<?xml version="1.0" encoding="UTF-8"?>
<svg xmlns="http://www.w3.org/2000/svg" xmlns:xlink="http://www.w3.org/1999/xlink" viewBox="0 0 595.28 333.33">
  <defs>
    <style>
      .cls-1 {
        fill: url(#New_Gradient_4-2);
      }

      .cls-1, .cls-2, .cls-3, .cls-4, .cls-5, .cls-6, .cls-7, .cls-8, .cls-9, .cls-10, .cls-11, .cls-12, .cls-13, .cls-14, .cls-15, .cls-16, .cls-17, .cls-18, .cls-19, .cls-20, .cls-21, .cls-22, .cls-23, .cls-24, .cls-25, .cls-26, .cls-27, .cls-28, .cls-29, .cls-30, .cls-31, .cls-32, .cls-33, .cls-34, .cls-35, .cls-36, .cls-37, .cls-38, .cls-39, .cls-40, .cls-41, .cls-42, .cls-43, .cls-44, .cls-45, .cls-46, .cls-47, .cls-48, .cls-49, .cls-50, .cls-51, .cls-52, .cls-53, .cls-54, .cls-55, .cls-56, .cls-57, .cls-58, .cls-59, .cls-60, .cls-61, .cls-62, .cls-63, .cls-64, .cls-65, .cls-66, .cls-67, .cls-68, .cls-69, .cls-70, .cls-71, .cls-72, .cls-73, .cls-74, .cls-75, .cls-76, .cls-77, .cls-78, .cls-79, .cls-80, .cls-81, .cls-82, .cls-83, .cls-84, .cls-85, .cls-86, .cls-87, .cls-88, .cls-89, .cls-90, .cls-91, .cls-92, .cls-93, .cls-94, .cls-95, .cls-96, .cls-97, .cls-98, .cls-99, .cls-100, .cls-101, .cls-102, .cls-103, .cls-104, .cls-105, .cls-106, .cls-107, .cls-108, .cls-109, .cls-110, .cls-111, .cls-112, .cls-113, .cls-114, .cls-115, .cls-116, .cls-117, .cls-118, .cls-119, .cls-120, .cls-121, .cls-122, .cls-123, .cls-124, .cls-125, .cls-126, .cls-127, .cls-128, .cls-129, .cls-130, .cls-131, .cls-132, .cls-133, .cls-134, .cls-135, .cls-136, .cls-137, .cls-138 {
        fill-rule: evenodd;
      }

      .cls-2 {
        fill: #f96271;
      }

      .cls-3 {
        fill: #f7f0d9;
      }

      .cls-4 {
        fill: #f9efd5;
      }

      .cls-5 {
        fill: #f9fed4;
      }

      .cls-6 {
        fill: #f9dbb3;
      }

      .cls-7 {
        fill: #f9d9af;
      }

      .cls-8 {
        fill: #f9d8d3;
      }

      .cls-9 {
        fill: #f9bfc9;
      }

      .cls-10 {
        fill: #f2f5fc;
      }

      .cls-11 {
        fill: #f7b4b4;
      }

      .cls-12 {
        fill: #653520;
      }

      .cls-13 {
        fill: #567429;
      }

      .cls-14 {
        fill: #85230f;
      }

      .cls-15 {
        fill: #852c19;
      }

      .cls-16 {
        fill: #59771e;
      }

      .cls-17 {
        fill: #5b6370;
      }

      .cls-18 {
        fill: #607d1b;
      }

      .cls-19 {
        fill: #772f02;
      }

      .cls-20 {
        fill: #793f25;
      }

      .cls-21 {
        fill: #782f07;
      }

      .cls-22 {
        fill: #768b3b;
      }

      .cls-23 {
        fill: #50641f;
      }

      .cls-24 {
        fill: #4f620c;
      }

      .cls-25 {
        fill: #50210d;
      }

      .cls-26 {
        fill: #652d15;
      }

      .cls-27 {
        fill: #779929;
      }

      .cls-28 {
        fill: #828a40;
      }

      .cls-29 {
        fill: #7b88a3;
      }

      .cls-30 {
        fill: #7a9336;
      }

      .cls-31 {
        fill: #710a0a;
      }

      .cls-32 {
        fill: #86ac3f;
      }

      .cls-33 {
        fill: #99b845;
      }

      .cls-34 {
        fill: #873911;
      }

      .cls-35 {
        fill: #96592b;
      }

      .cls-36 {
        fill: #96573c;
      }

      .cls-37 {
        fill: #94bb4c;
      }

      .cls-38 {
        fill: #a36b3a;
      }

      .cls-39 {
        fill: #949da9;
      }

      .cls-40 {
        fill: #a86f3e;
      }

      .cls-41 {
        fill: #a8703f;
      }

      .cls-42 {
        fill: #cb9975;
      }

      .cls-43 {
        fill: #d89464;
      }

      .cls-44 {
        fill: #b11b2a;
      }

      .cls-45 {
        fill: #c67b54;
      }

      .cls-46 {
        fill: #e2b7b2;
      }

      .cls-47 {
        fill: #e29664;
      }

      .cls-48 {
        fill: #e1b98c;
      }

      .cls-49 {
        fill: #c9642f;
      }

      .cls-50 {
        fill: #c87d6f;
      }

      .cls-51 {
        fill: #e18787;
      }

      .cls-52 {
        fill: #dca97a;
      }

      .cls-53 {
        fill: #dab585;
      }

      .cls-54 {
        fill: #afbbd8;
      }

      .cls-55 {
        fill: #acb463;
      }

      .cls-56 {
        fill: #c87447;
      }

      .cls-57 {
        fill: #d09c6e;
      }

      .cls-58 {
        fill: #cb7575;
      }

      .cls-59 {
        fill: #cd9d70;
      }

      .cls-60 {
        fill: #d0db85;
      }

      .cls-61 {
        fill: #c57a88;
      }

      .cls-62 {
        fill: #c3db84;
      }

      .cls-63 {
        fill: #e2c2ab;
      }

      .cls-64 {
        fill: #c3cee8;
      }

      .cls-65 {
        fill: #d29967;
      }

      .cls-66 {
        fill: #deae8c;
      }

      .cls-67 {
        fill: #ced3e0;
      }

      .cls-68 {
        fill: #d93f4d;
      }

      .cls-69 {
        fill: #d87b3b;
      }

      .cls-70 {
        fill: #be6e36;
      }

      .cls-71 {
        fill: #a9b2be;
      }

      .cls-72 {
        fill: #ac7849;
      }

      .cls-73 {
        fill: #a65c4c;
      }

      .cls-74 {
        fill: #a83d3d;
      }

      .cls-75 {
        fill: #adc862;
      }

      .cls-76 {
        fill: #ce7e48;
      }

      .cls-77 {
        fill: #ce9761;
      }

      .cls-78 {
        fill: #aeb483;
      }

      .cls-79 {
        fill: #b1592a;
      }

      .cls-80 {
        fill: #b26a1f;
      }

      .cls-81 {
        fill: #b35a2b;
      }

      .cls-82 {
        fill: #b1ce70;
      }

      .cls-83 {
        fill: #bd673a;
      }

      .cls-84 {
        fill: #add06b;
      }

      .cls-85 {
        fill: #7e848f;
      }

      .cls-86 {
        fill: #739442;
      }

      .cls-87 {
        fill: #657b2c;
      }

      .cls-88 {
        fill: #691916;
      }

      .cls-89 {
        fill: #98bc46;
      }

      .cls-90 {
        fill: #9a542d;
      }

      .cls-91 {
        fill: #9a2121;
      }

      .cls-92 {
        fill: #994e15;
      }

      .cls-93 {
        fill: #bb8552;
      }

      .cls-94 {
        fill: #8e4f17;
      }

      .cls-95 {
        fill: #8f5c30;
      }

      .cls-96 {
        fill: #8c5727;
      }

      .cls-97 {
        fill: #874b2c;
      }

      .cls-98 {
        fill: #874a31;
      }

      .cls-99 {
        fill: #933f12;
      }

      .cls-100 {
        fill: #933e2f;
      }

      .cls-101 {
        fill: #84a730;
      }

      .cls-102 {
        fill: #b4bbca;
      }

      .cls-103 {
        fill: #b58256;
      }

      .cls-104 {
        fill: #b66050;
      }

      .cls-105 {
        fill: #b8d576;
      }

      .cls-106 {
        fill: #9dac56;
      }

      .cls-107 {
        fill: #9e5a1a;
      }

      .cls-108 {
        fill: #9d4616;
      }

      .cls-109 {
        fill: #b67d4c;
      }

      .cls-110 {
        fill: #8ba14c;
      }

      .cls-111 {
        fill: #bc6464;
      }

      .cls-112 {
        fill: #c28767;
      }

      .cls-113 {
        fill: #c28752;
      }

      .cls-114 {
        fill: #b47946;
      }

      .cls-115 {
        fill: #924436;
      }

      .cls-116 {
        fill: #b6c1cd;
      }

      .cls-117 {
        fill: #b48558;
      }

      .cls-118 {
        fill: #f1a8b6;
      }

      .cls-119 {
        fill: #efcea4;
      }

      .cls-120 {
        fill: #ed9898;
      }

      .cls-121 {
        fill: #e4e8c2;
      }

      .cls-122 {
        fill: #f2a8a8;
      }

      .cls-123 {
        fill: #f2a6a6;
      }

      .cls-124 {
        fill: #f2d0a5;
      }

      .cls-125 {
        fill: #ead8b2;
      }

      .cls-126 {
        fill: #ead8b3;
      }

      .cls-127 {
        fill: #e4c092;
      }

      .cls-128 {
        fill: #fffbed;
      }

      .cls-129 {
        fill: #fff;
      }

      .cls-130 {
        fill: #fef7f1;
      }

      .cls-131 {
        fill: #e4b283;
      }

      .cls-132 {
        fill: #e4ad79;
      }

      .cls-133 {
        fill: #f4ddbd;
      }

      .cls-134 {
        fill: #fce6e3;
      }

      .cls-135 {
        fill: #ecf2b9;
      }

      .cls-136 {
        fill: #feffea;
      }

      .cls-137 {
        fill: #6b221f;
      }

      .cls-138 {
        fill: url(#New_Gradient_4);
      }
    </style>
    <linearGradient id="New_Gradient_4" data-name="New Gradient 4" x1="405.5" y1="291.85" x2="405.5" y2="432.86" gradientTransform="translate(-81.65 -183.21) scale(.83)" gradientUnits="userSpaceOnUse">
      <stop offset="0" stop-color="#cae7ff"/>
      <stop offset="1" stop-color="#ddf3ff"/>
    </linearGradient>
    <linearGradient id="New_Gradient_4-2" data-name="New Gradient 4" x1="405.5" x2="405.5" gradientTransform="translate(144.19 -183.21) scale(.83)" xlink:href="#New_Gradient_4"/>
  </defs>
  <g id="walls_floor">
    <polygon class="cls-8" points="0 0 595.28 0 595.28 333.33 0 333.33 0 0 0 0"/>
    <path class="cls-134" d="M298.73,13.92c270.22-2.73,284.28-1.41,286.33,233.23-190.88,.67-381.77,1.33-572.65,2C9.77-4.61,45.08,16.49,298.73,13.92h0Z"/>
    <polygon class="cls-46" points="0 236.28 595.28 236.28 595.28 244.49 0 244.49 0 236.28 0 236.28"/>
    <polygon class="cls-98" points="0 248.49 595.27 248.49 595.27 333.33 0 333.33 0 248.49 0 248.49"/>
    <polygon class="cls-20" points="0 248.49 595.28 248.49 595.28 269.38 0 269.38 0 248.49 0 248.49"/>
    <path class="cls-36" d="M581.16,333.33H14.12c44.26-44.6,85.69-48.62,146.36-48.62H434.8c60.67,0,102.09,4.02,146.36,48.62h0Z"/>
    <polygon class="cls-25" points="0 244.49 595.27 244.49 595.27 252.99 0 252.99 0 244.49 0 244.49"/>
    <polygon class="cls-26" points="0 246.65 595.27 246.65 595.27 250.82 0 250.82 0 246.65 0 246.65"/>
  </g>
  <g id="windows">
    <g>
      <polygon class="cls-106" points="461.42 304.06 305.25 304.06 305.25 276.15 461.42 276.15 461.42 304.06 461.42 304.06"/>
      <path class="cls-28" d="M461.42,304.06h-156.17v-1.37c35.3-.28,70.38-.55,105.69-1.3,26.18-.56,41.02,1.6,40.43-10.44-.43-8.81-7.61-10.19-13.66-10.49-27.16-1.34-52.97-3.1-80.4-3.81,23.63-3.65,77.32-.51,104.11-.51v27.91h0Z"/>
      <path class="cls-60" d="M338.8,224.4c-10.6,10.51-25.59,36.74-33.56,54.82,55.63-3.99,99.73-3.8,156.17,.02-7.96-18.07-22.7-43.85-33.55-54.86-35.7-2.55-53.36-2.52-89.06,.03h0Z"/>
      <path class="cls-28" d="M312.77,278.7c52.14-3.45,94.78-3.11,148.65,.54-5.07-11.5-12.87-26.11-20.68-38.06-41.68-4.4-72.98-4.56-113.58,1.06,27.01-.27,52.5-1.17,79.21,.08,8.11,.38,15,1.08,22.48,2.86,9.56,2.27,13.08,7.57,16.51,15.47,4.26,9.79,3.51,13.21-6.97,12.67-42.06-2.16-82.96,.2-125.62,5.38h0Z"/>
    </g>
    <g>
      <g>
        <path class="cls-46" d="M307.24,59.94c.65,0,1.17,.52,1.17,1.17s-.52,1.17-1.17,1.17-1.17-.52-1.17-1.17,.52-1.17,1.17-1.17h0Z"/>
        <path class="cls-46" d="M307.06,60.23c.39,0,.71,.32,.71,.71s-.32,.71-.71,.71-.71-.32-.71-.71,.32-.71,.71-.71h0Z"/>
      </g>
      <g>
        <path class="cls-46" d="M307.24,65.2c.65,0,1.17,.52,1.17,1.17s-.52,1.17-1.17,1.17-1.17-.52-1.17-1.17,.52-1.17,1.17-1.17h0Z"/>
        <path class="cls-46" d="M307.06,65.49c.39,0,.71,.32,.71,.71s-.32,.71-.71,.71-.71-.32-.71-.71,.32-.71,.71-.71h0Z"/>
      </g>
      <g>
        <path class="cls-46" d="M307.24,70.46c.65,0,1.17,.52,1.17,1.17s-.52,1.17-1.17,1.17-1.17-.52-1.17-1.17,.52-1.17,1.17-1.17h0Z"/>
        <path class="cls-46" d="M307.06,70.75c.39,0,.71,.32,.71,.71s-.32,.71-.71,.71-.71-.32-.71-.71,.32-.71,.71-.71h0Z"/>
      </g>
      <g>
        <path class="cls-46" d="M307.24,75.72c.65,0,1.17,.52,1.17,1.17s-.52,1.17-1.17,1.17-1.17-.52-1.17-1.17,.52-1.17,1.17-1.17h0Z"/>
        <path class="cls-46" d="M307.06,76.01c.39,0,.71,.32,.71,.71s-.32,.71-.71,.71-.71-.32-.71-.71,.32-.71,.71-.71h0Z"/>
      </g>
      <g>
        <path class="cls-46" d="M307.24,80.99c.65,0,1.17,.52,1.17,1.17s-.52,1.17-1.17,1.17-1.17-.52-1.17-1.17,.52-1.17,1.17-1.17h0Z"/>
        <path class="cls-46" d="M307.06,81.28c.39,0,.71,.32,.71,.71s-.32,.71-.71,.71-.71-.32-.71-.71,.32-.71,.71-.71h0Z"/>
      </g>
      <g>
        <path class="cls-46" d="M307.24,86.25c.65,0,1.17,.52,1.17,1.17s-.52,1.17-1.17,1.17-1.17-.52-1.17-1.17,.52-1.17,1.17-1.17h0Z"/>
        <path class="cls-46" d="M307.06,86.54c.39,0,.71,.32,.71,.71s-.32,.71-.71,.71-.71-.32-.71-.71,.32-.71,.71-.71h0Z"/>
      </g>
      <g>
        <path class="cls-46" d="M307.24,91.51c.65,0,1.17,.52,1.17,1.17s-.52,1.17-1.17,1.17-1.17-.52-1.17-1.17,.52-1.17,1.17-1.17h0Z"/>
        <path class="cls-46" d="M307.06,91.8c.39,0,.71,.32,.71,.71s-.32,.71-.71,.71-.71-.32-.71-.71,.32-.71,.71-.71h0Z"/>
      </g>
      <g>
        <path class="cls-46" d="M307.24,96.78c.65,0,1.17,.52,1.17,1.17s-.52,1.17-1.17,1.17-1.17-.52-1.17-1.17,.52-1.17,1.17-1.17h0Z"/>
        <path class="cls-46" d="M307.06,97.07c.39,0,.71,.32,.71,.71s-.32,.71-.71,.71-.71-.32-.71-.71,.32-.71,.71-.71h0Z"/>
      </g>
      <g>
        <path class="cls-46" d="M307.24,102.04c.65,0,1.17,.52,1.17,1.17s-.52,1.17-1.17,1.17-1.17-.52-1.17-1.17,.52-1.17,1.17-1.17h0Z"/>
        <path class="cls-46" d="M307.06,102.33c.39,0,.71,.32,.71,.71s-.32,.71-.71,.71-.71-.32-.71-.71,.32-.71,.71-.71h0Z"/>
      </g>
      <g>
        <path class="cls-46" d="M307.24,107.3c.65,0,1.17,.52,1.17,1.17s-.52,1.17-1.17,1.17-1.17-.52-1.17-1.17,.52-1.17,1.17-1.17h0Z"/>
        <path class="cls-46" d="M307.06,107.59c.39,0,.71,.32,.71,.71s-.32,.71-.71,.71-.71-.32-.71-.71,.32-.71,.71-.71h0Z"/>
      </g>
      <g>
        <path class="cls-46" d="M307.24,112.56c.65,0,1.17,.52,1.17,1.17s-.52,1.17-1.17,1.17-1.17-.52-1.17-1.17,.52-1.17,1.17-1.17h0Z"/>
        <path class="cls-46" d="M307.06,112.85c.39,0,.71,.32,.71,.71s-.32,.71-.71,.71-.71-.32-.71-.71,.32-.71,.71-.71h0Z"/>
      </g>
      <g>
        <path class="cls-46" d="M307.24,117.83c.65,0,1.17,.52,1.17,1.17s-.52,1.17-1.17,1.17-1.17-.52-1.17-1.17,.52-1.17,1.17-1.17h0Z"/>
        <path class="cls-46" d="M307.06,118.12c.39,0,.71,.32,.71,.71s-.32,.71-.71,.71-.71-.32-.71-.71,.32-.71,.71-.71h0Z"/>
      </g>
      <g>
        <path class="cls-46" d="M307.24,123.09c.65,0,1.17,.52,1.17,1.17s-.52,1.17-1.17,1.17-1.17-.52-1.17-1.17,.52-1.17,1.17-1.17h0Z"/>
        <path class="cls-46" d="M307.06,123.38c.39,0,.71,.32,.71,.71s-.32,.71-.71,.71-.71-.32-.71-.71,.32-.71,.71-.71h0Z"/>
      </g>
      <g>
        <path class="cls-46" d="M307.24,128.35c.65,0,1.17,.52,1.17,1.17s-.52,1.17-1.17,1.17-1.17-.52-1.17-1.17,.52-1.17,1.17-1.17h0Z"/>
        <path class="cls-46" d="M307.06,128.64c.39,0,.71,.32,.71,.71s-.32,.71-.71,.71-.71-.32-.71-.71,.32-.71,.71-.71h0Z"/>
      </g>
      <g>
        <path class="cls-46" d="M307.24,133.62c.65,0,1.17,.52,1.17,1.17s-.52,1.17-1.17,1.17-1.17-.52-1.17-1.17,.52-1.17,1.17-1.17h0Z"/>
        <path class="cls-46" d="M307.06,133.91c.39,0,.71,.32,.71,.71s-.32,.71-.71,.71-.71-.32-.71-.71,.32-.71,.71-.71h0Z"/>
      </g>
      <g>
        <path class="cls-46" d="M307.24,138.88c.65,0,1.17,.52,1.17,1.17s-.52,1.17-1.17,1.17-1.17-.52-1.17-1.17,.52-1.17,1.17-1.17h0Z"/>
        <path class="cls-46" d="M307.06,139.17c.39,0,.71,.32,.71,.71s-.32,.71-.71,.71-.71-.32-.71-.71,.32-.71,.71-.71h0Z"/>
      </g>
      <g>
        <path class="cls-46" d="M307.24,144.14c.65,0,1.17,.52,1.17,1.17s-.52,1.17-1.17,1.17-1.17-.52-1.17-1.17,.52-1.17,1.17-1.17h0Z"/>
        <path class="cls-46" d="M307.06,144.43c.39,0,.71,.32,.71,.71s-.32,.71-.71,.71-.71-.32-.71-.71,.32-.71,.71-.71h0Z"/>
      </g>
      <g>
        <path class="cls-46" d="M307.24,149.4c.65,0,1.17,.52,1.17,1.17s-.52,1.17-1.17,1.17-1.17-.52-1.17-1.17,.52-1.17,1.17-1.17h0Z"/>
        <path class="cls-46" d="M307.06,149.69c.39,0,.71,.32,.71,.71s-.32,.71-.71,.71-.71-.32-.71-.71,.32-.71,.71-.71h0Z"/>
      </g>
    </g>
    <path class="cls-46" d="M298.33,77.07h4.56c4.38,0,3.86-.99,3.86-5.48v-8.33c0-1.82-.25-1.99,1.49-1.92,.54,.02,1.08,.05,1.63,.07,3.13,.13,2.76-.87,2.76-3.5v-6.71h2.02c.53-3.16,.55-6.32,0-9.47h-1.84c0-1.42,.02-2.84,0-4.25-.04-3.07,.09-2.93-1.75-3.03h-13.19l.47,42.63h0Z"/>
    <polygon class="cls-46" points="214.17 179.58 298.33 179.58 298.33 72.9 300.83 72.9 300.83 182.08 216.6 182.08 214.17 179.58 214.17 179.58"/>
    <polygon class="cls-138" points="216.25 60 296.25 60 296.25 177.5 216.25 177.5 216.25 60 216.25 60"/>
    <g>
      <path class="cls-130" d="M214.17,179.58V57.91h84.17v121.67h-84.17Zm44.17-115h33.33v33.33h-33.33v-33.33h0Zm0,37.5h33.33v33.33h-33.33v-33.33h0Zm0,37.5h33.33v33.33h-33.33v-33.33h0Zm-37.5-75h33.33v33.33h-33.33v-33.33h0Zm0,37.5h33.33v33.33h-33.33v-33.33h0Zm0,37.5h33.33v33.33h-33.33v-33.33h0Z"/>
      <polygon class="cls-129" points="254.17 64.58 252.5 66.25 252.5 96.25 222.5 96.25 220.83 97.91 254.17 97.91 254.17 64.58 254.17 64.58"/>
      <polygon class="cls-129" points="254.17 102.08 252.5 103.75 252.5 133.75 222.5 133.75 220.83 135.41 254.17 135.41 254.17 102.08 254.17 102.08"/>
      <polygon class="cls-129" points="254.17 139.58 252.5 141.25 252.5 171.25 222.5 171.25 220.83 172.91 254.17 172.91 254.17 139.58 254.17 139.58"/>
      <polygon class="cls-129" points="291.67 64.58 290 66.25 290 96.25 260 96.25 258.33 97.91 291.67 97.91 291.67 64.58 291.67 64.58"/>
      <polygon class="cls-129" points="291.67 102.08 290 103.75 290 133.75 260 133.75 258.33 135.41 291.67 135.41 291.67 102.08 291.67 102.08"/>
      <polygon class="cls-129" points="291.67 139.58 290 141.25 290 171.25 260 171.25 258.33 172.91 291.67 172.91 291.67 139.58 291.67 139.58"/>
      <polygon class="cls-63" points="220.83 97.91 222.5 96.25 222.5 66.25 252.5 66.25 254.17 64.58 220.83 64.58 220.83 97.91 220.83 97.91"/>
      <polygon class="cls-63" points="220.83 135.41 222.5 133.75 222.5 103.75 252.5 103.75 254.17 102.08 220.83 102.08 220.83 135.41 220.83 135.41"/>
      <polygon class="cls-63" points="220.83 172.91 222.5 171.25 222.5 141.25 252.5 141.25 254.17 139.58 220.83 139.58 220.83 172.91 220.83 172.91"/>
      <polygon class="cls-63" points="258.33 97.91 260 96.25 260 66.25 290 66.25 291.67 64.58 258.33 64.58 258.33 97.91 258.33 97.91"/>
      <polygon class="cls-63" points="258.33 135.41 260 133.75 260 103.75 290 103.75 291.67 102.08 258.33 102.08 258.33 135.41 258.33 135.41"/>
      <polygon class="cls-63" points="258.33 172.91 260 171.25 260 141.25 290 141.25 291.67 139.58 258.33 139.58 258.33 172.91 258.33 172.91"/>
    </g>
    <g>
      <g>
        <path class="cls-3" d="M304.7,58.53c.65,0,1.17,.52,1.17,1.17s-.52,1.17-1.17,1.17-1.17-.52-1.17-1.17,.52-1.17,1.17-1.17h0Z"/>
        <path class="cls-129" d="M304.52,58.82c.39,0,.71,.32,.71,.71s-.32,.71-.71,.71-.71-.32-.71-.71,.32-.71,.71-.71h0Z"/>
      </g>
      <g>
        <path class="cls-3" d="M304.7,63.79c.65,0,1.17,.52,1.17,1.17s-.52,1.17-1.17,1.17-1.17-.52-1.17-1.17,.52-1.17,1.17-1.17h0Z"/>
        <path class="cls-129" d="M304.52,64.08c.39,0,.71,.32,.71,.71s-.32,.71-.71,.71-.71-.32-.71-.71,.32-.71,.71-.71h0Z"/>
      </g>
      <g>
        <path class="cls-3" d="M304.7,69.06c.65,0,1.17,.52,1.17,1.17s-.52,1.17-1.17,1.17-1.17-.52-1.17-1.17,.52-1.17,1.17-1.17h0Z"/>
        <path class="cls-129" d="M304.52,69.35c.39,0,.71,.32,.71,.71s-.32,.71-.71,.71-.71-.32-.71-.71,.32-.71,.71-.71h0Z"/>
      </g>
      <g>
        <path class="cls-3" d="M304.7,74.32c.65,0,1.17,.52,1.17,1.17s-.52,1.17-1.17,1.17-1.17-.52-1.17-1.17,.52-1.17,1.17-1.17h0Z"/>
        <path class="cls-129" d="M304.52,74.61c.39,0,.71,.32,.71,.71s-.32,.71-.71,.71-.71-.32-.71-.71,.32-.71,.71-.71h0Z"/>
      </g>
      <g>
        <path class="cls-3" d="M304.7,79.58c.65,0,1.17,.52,1.17,1.17s-.52,1.17-1.17,1.17-1.17-.52-1.17-1.17,.52-1.17,1.17-1.17h0Z"/>
        <path class="cls-129" d="M304.52,79.87c.39,0,.71,.32,.71,.71s-.32,.71-.71,.71-.71-.32-.71-.71,.32-.71,.71-.71h0Z"/>
      </g>
      <g>
        <path class="cls-3" d="M304.7,84.85c.65,0,1.17,.52,1.17,1.17s-.52,1.17-1.17,1.17-1.17-.52-1.17-1.17,.52-1.17,1.17-1.17h0Z"/>
        <path class="cls-129" d="M304.52,85.14c.39,0,.71,.32,.71,.71s-.32,.71-.71,.71-.71-.32-.71-.71,.32-.71,.71-.71h0Z"/>
      </g>
      <g>
        <path class="cls-3" d="M304.7,90.11c.65,0,1.17,.52,1.17,1.17s-.52,1.17-1.17,1.17-1.17-.52-1.17-1.17,.52-1.17,1.17-1.17h0Z"/>
        <path class="cls-129" d="M304.52,90.4c.39,0,.71,.32,.71,.71s-.32,.71-.71,.71-.71-.32-.71-.71,.32-.71,.71-.71h0Z"/>
      </g>
      <g>
        <path class="cls-3" d="M304.7,95.37c.65,0,1.17,.52,1.17,1.17s-.52,1.17-1.17,1.17-1.17-.52-1.17-1.17,.52-1.17,1.17-1.17h0Z"/>
        <path class="cls-129" d="M304.52,95.66c.39,0,.71,.32,.71,.71s-.32,.71-.71,.71-.71-.32-.71-.71,.32-.71,.71-.71h0Z"/>
      </g>
      <g>
        <path class="cls-3" d="M304.7,100.63c.65,0,1.17,.52,1.17,1.17s-.52,1.17-1.17,1.17-1.17-.52-1.17-1.17,.52-1.17,1.17-1.17h0Z"/>
        <path class="cls-129" d="M304.52,100.92c.39,0,.71,.32,.71,.71s-.32,.71-.71,.71-.71-.32-.71-.71,.32-.71,.71-.71h0Z"/>
      </g>
      <g>
        <path class="cls-3" d="M304.7,105.9c.65,0,1.17,.52,1.17,1.17s-.52,1.17-1.17,1.17-1.17-.52-1.17-1.17,.52-1.17,1.17-1.17h0Z"/>
        <path class="cls-129" d="M304.52,106.19c.39,0,.71,.32,.71,.71s-.32,.71-.71,.71-.71-.32-.71-.71,.32-.71,.71-.71h0Z"/>
      </g>
      <g>
        <path class="cls-3" d="M304.7,111.16c.65,0,1.17,.52,1.17,1.17s-.52,1.17-1.17,1.17-1.17-.52-1.17-1.17,.52-1.17,1.17-1.17h0Z"/>
        <path class="cls-129" d="M304.52,111.45c.39,0,.71,.32,.71,.71s-.32,.71-.71,.71-.71-.32-.71-.71,.32-.71,.71-.71h0Z"/>
      </g>
      <g>
        <path class="cls-3" d="M304.7,116.42c.65,0,1.17,.52,1.17,1.17s-.52,1.17-1.17,1.17-1.17-.52-1.17-1.17,.52-1.17,1.17-1.17h0Z"/>
        <path class="cls-129" d="M304.52,116.71c.39,0,.71,.32,.71,.71s-.32,.71-.71,.71-.71-.32-.71-.71,.32-.71,.71-.71h0Z"/>
      </g>
      <g>
        <path class="cls-3" d="M304.7,121.69c.65,0,1.17,.52,1.17,1.17s-.52,1.17-1.17,1.17-1.17-.52-1.17-1.17,.52-1.17,1.17-1.17h0Z"/>
        <path class="cls-129" d="M304.52,121.98c.39,0,.71,.32,.71,.71s-.32,.71-.71,.71-.71-.32-.71-.71,.32-.71,.71-.71h0Z"/>
      </g>
      <g>
        <path class="cls-3" d="M304.7,126.95c.65,0,1.17,.52,1.17,1.17s-.52,1.17-1.17,1.17-1.17-.52-1.17-1.17,.52-1.17,1.17-1.17h0Z"/>
        <path class="cls-129" d="M304.52,127.24c.39,0,.71,.32,.71,.71s-.32,.71-.71,.71-.71-.32-.71-.71,.32-.71,.71-.71h0Z"/>
      </g>
      <g>
        <path class="cls-3" d="M304.7,132.21c.65,0,1.17,.52,1.17,1.17s-.52,1.17-1.17,1.17-1.17-.52-1.17-1.17,.52-1.17,1.17-1.17h0Z"/>
        <path class="cls-129" d="M304.52,132.5c.39,0,.71,.32,.71,.71s-.32,.71-.71,.71-.71-.32-.71-.71,.32-.71,.71-.71h0Z"/>
      </g>
      <g>
        <path class="cls-3" d="M304.7,137.47c.65,0,1.17,.52,1.17,1.17s-.52,1.17-1.17,1.17-1.17-.52-1.17-1.17,.52-1.17,1.17-1.17h0Z"/>
        <path class="cls-129" d="M304.52,137.76c.39,0,.71,.32,.71,.71s-.32,.71-.71,.71-.71-.32-.71-.71,.32-.71,.71-.71h0Z"/>
      </g>
      <g>
        <path class="cls-3" d="M304.7,142.74c.65,0,1.17,.52,1.17,1.17s-.52,1.17-1.17,1.17-1.17-.52-1.17-1.17,.52-1.17,1.17-1.17h0Z"/>
        <path class="cls-129" d="M304.52,143.03c.39,0,.71,.32,.71,.71s-.32,.71-.71,.71-.71-.32-.71-.71,.32-.71,.71-.71h0Z"/>
      </g>
      <g>
        <path class="cls-3" d="M304.7,148c.65,0,1.17,.52,1.17,1.17s-.52,1.17-1.17,1.17-1.17-.52-1.17-1.17,.52-1.17,1.17-1.17h0Z"/>
        <path class="cls-129" d="M304.52,148.29c.39,0,.71,.32,.71,.71s-.32,.71-.71,.71-.71-.32-.71-.71,.32-.71,.71-.71h0Z"/>
      </g>
    </g>
    <g>
      <path class="cls-94" d="M199.32,39.02h113c.51,3.24,.49,6.4,0,9.47h-113c-.56-3.08-.6-6.23,0-9.47h0Z"/>
      <polygon class="cls-122" points="207.88 55.46 303.76 55.46 303.76 73.36 207.88 73.36 207.88 55.46 207.88 55.46"/>
      <polygon class="cls-58" points="207.88 55.46 303.76 55.46 303.76 57.48 207.88 57.48 207.88 55.46 207.88 55.46"/>
      <path class="cls-51" d="M203.97,31.61h103.69c.96,0,1.75,.79,1.75,1.75v20.35c0,.96-.79,1.75-1.75,1.75h-103.69c-.96,0-1.75-.79-1.75-1.75v-20.35c0-.96,.79-1.75,1.75-1.75h0Z"/>
      <path class="cls-120" d="M219.69,33.18c20.66-.07,41.43-.35,62.08,.27,13.12,.39,15.82-1.61,16.05,9.17,.12,5.53-.37,7.34-6.66,7.63-15.48,.72-33.94,.12-49.58-.08-8.08-.1-16.37-.78-24.03-.42-5.84,.27-11.84,.08-12.28-8.31-.5-9.37,7.28-8.23,14.43-8.26h0Z"/>
      <path class="cls-123" d="M222.43,35.88c10.91-.04,21.88-.2,32.78,.15,13.85,.45,9.33,9.28,4.96,9.49-12.98,.64-29.61,.46-38.88-.28-8.54-.68-10.39-9.32,1.13-9.36h0Z"/>
    </g>
    <polygon class="cls-1" points="442.09 60 522.09 60 522.09 177.5 442.09 177.5 442.09 60 442.09 60"/>
    <g>
      <path class="cls-130" d="M440.01,179.58V57.91h84.17v121.67h-84.17Zm44.17-115h33.33v33.33h-33.33v-33.33h0Zm0,37.5h33.33v33.33h-33.33v-33.33h0Zm0,37.5h33.33v33.33h-33.33v-33.33h0Zm-37.5-75h33.33v33.33h-33.33v-33.33h0Zm0,37.5h33.33v33.33h-33.33v-33.33h0Zm0,37.5h33.33v33.33h-33.33v-33.33h0Z"/>
      <polygon class="cls-129" points="480.01 64.58 478.34 66.25 478.34 96.25 448.34 96.25 446.67 97.91 480.01 97.91 480.01 64.58 480.01 64.58"/>
      <polygon class="cls-129" points="480.01 102.08 478.34 103.75 478.34 133.75 448.34 133.75 446.67 135.41 480.01 135.41 480.01 102.08 480.01 102.08"/>
      <polygon class="cls-129" points="480.01 139.58 478.34 141.25 478.34 171.25 448.34 171.25 446.67 172.91 480.01 172.91 480.01 139.58 480.01 139.58"/>
      <polygon class="cls-129" points="517.51 64.58 515.84 66.25 515.84 96.25 485.84 96.25 484.17 97.91 517.51 97.91 517.51 64.58 517.51 64.58"/>
      <polygon class="cls-129" points="517.51 102.08 515.84 103.75 515.84 133.75 485.84 133.75 484.17 135.41 517.51 135.41 517.51 102.08 517.51 102.08"/>
      <polygon class="cls-129" points="517.51 139.58 515.84 141.25 515.84 171.25 485.84 171.25 484.17 172.91 517.51 172.91 517.51 139.58 517.51 139.58"/>
      <polygon class="cls-63" points="446.67 97.91 448.34 96.25 448.34 66.25 478.34 66.25 480.01 64.58 446.67 64.58 446.67 97.91 446.67 97.91"/>
      <polygon class="cls-63" points="446.67 135.41 448.34 133.75 448.34 103.75 478.34 103.75 480.01 102.08 446.67 102.08 446.67 135.41 446.67 135.41"/>
      <polygon class="cls-63" points="446.67 172.91 448.34 171.25 448.34 141.25 478.34 141.25 480.01 139.58 446.67 139.58 446.67 172.91 446.67 172.91"/>
      <polygon class="cls-63" points="484.17 97.91 485.84 96.25 485.84 66.25 515.84 66.25 517.51 64.58 484.17 64.58 484.17 97.91 484.17 97.91"/>
      <polygon class="cls-63" points="484.17 135.41 485.84 133.75 485.84 103.75 515.84 103.75 517.51 102.08 484.17 102.08 484.17 135.41 484.17 135.41"/>
      <polygon class="cls-63" points="484.17 172.91 485.84 171.25 485.84 141.25 515.84 141.25 517.51 139.58 484.17 139.58 484.17 172.91 484.17 172.91"/>
    </g>
    <g>
      <g>
        <path class="cls-46" d="M434.12,59.94c.65,0,1.17,.52,1.17,1.17s-.52,1.17-1.17,1.17-1.17-.52-1.17-1.17,.52-1.17,1.17-1.17h0Z"/>
        <path class="cls-46" d="M433.94,60.23c.39,0,.71,.32,.71,.71s-.32,.71-.71,.71-.71-.32-.71-.71,.32-.71,.71-.71h0Z"/>
      </g>
      <g>
        <path class="cls-46" d="M434.12,65.2c.65,0,1.17,.52,1.17,1.17s-.52,1.17-1.17,1.17-1.17-.52-1.17-1.17,.52-1.17,1.17-1.17h0Z"/>
        <path class="cls-46" d="M433.94,65.49c.39,0,.71,.32,.71,.71s-.32,.71-.71,.71-.71-.32-.71-.71,.32-.71,.71-.71h0Z"/>
      </g>
      <g>
        <path class="cls-46" d="M434.12,70.46c.65,0,1.17,.52,1.17,1.17s-.52,1.17-1.17,1.17-1.17-.52-1.17-1.17,.52-1.17,1.17-1.17h0Z"/>
        <path class="cls-46" d="M433.94,70.75c.39,0,.71,.32,.71,.71s-.32,.71-.71,.71-.71-.32-.71-.71,.32-.71,.71-.71h0Z"/>
      </g>
      <g>
        <path class="cls-46" d="M434.12,75.72c.65,0,1.17,.52,1.17,1.17s-.52,1.17-1.17,1.17-1.17-.52-1.17-1.17,.52-1.17,1.17-1.17h0Z"/>
        <path class="cls-46" d="M433.94,76.01c.39,0,.71,.32,.71,.71s-.32,.71-.71,.71-.71-.32-.71-.71,.32-.71,.71-.71h0Z"/>
      </g>
      <g>
        <path class="cls-46" d="M434.12,80.99c.65,0,1.17,.52,1.17,1.17s-.52,1.17-1.17,1.17-1.17-.52-1.17-1.17,.52-1.17,1.17-1.17h0Z"/>
        <path class="cls-46" d="M433.94,81.28c.39,0,.71,.32,.71,.71s-.32,.71-.71,.71-.71-.32-.71-.71,.32-.71,.71-.71h0Z"/>
      </g>
      <g>
        <path class="cls-46" d="M434.12,86.25c.65,0,1.17,.52,1.17,1.17s-.52,1.17-1.17,1.17-1.17-.52-1.17-1.17,.52-1.17,1.17-1.17h0Z"/>
        <path class="cls-46" d="M433.94,86.54c.39,0,.71,.32,.71,.71s-.32,.71-.71,.71-.71-.32-.71-.71,.32-.71,.71-.71h0Z"/>
      </g>
      <g>
        <path class="cls-46" d="M434.12,91.51c.65,0,1.17,.52,1.17,1.17s-.52,1.17-1.17,1.17-1.17-.52-1.17-1.17,.52-1.17,1.17-1.17h0Z"/>
        <path class="cls-46" d="M433.94,91.8c.39,0,.71,.32,.71,.71s-.32,.71-.71,.71-.71-.32-.71-.71,.32-.71,.71-.71h0Z"/>
      </g>
      <g>
        <path class="cls-46" d="M434.12,96.78c.65,0,1.17,.52,1.17,1.17s-.52,1.17-1.17,1.17-1.17-.52-1.17-1.17,.52-1.17,1.17-1.17h0Z"/>
        <path class="cls-46" d="M433.94,97.07c.39,0,.71,.32,.71,.71s-.32,.71-.71,.71-.71-.32-.71-.71,.32-.71,.71-.71h0Z"/>
      </g>
      <g>
        <path class="cls-46" d="M434.12,102.04c.65,0,1.17,.52,1.17,1.17s-.52,1.17-1.17,1.17-1.17-.52-1.17-1.17,.52-1.17,1.17-1.17h0Z"/>
        <path class="cls-46" d="M433.94,102.33c.39,0,.71,.32,.71,.71s-.32,.71-.71,.71-.71-.32-.71-.71,.32-.71,.71-.71h0Z"/>
      </g>
      <g>
        <path class="cls-46" d="M434.12,107.3c.65,0,1.17,.52,1.17,1.17s-.52,1.17-1.17,1.17-1.17-.52-1.17-1.17,.52-1.17,1.17-1.17h0Z"/>
        <path class="cls-46" d="M433.94,107.59c.39,0,.71,.32,.71,.71s-.32,.71-.71,.71-.71-.32-.71-.71,.32-.71,.71-.71h0Z"/>
      </g>
      <g>
        <path class="cls-46" d="M434.12,112.56c.65,0,1.17,.52,1.17,1.17s-.52,1.17-1.17,1.17-1.17-.52-1.17-1.17,.52-1.17,1.17-1.17h0Z"/>
        <path class="cls-46" d="M433.94,112.85c.39,0,.71,.32,.71,.71s-.32,.71-.71,.71-.71-.32-.71-.71,.32-.71,.71-.71h0Z"/>
      </g>
      <g>
        <path class="cls-46" d="M434.12,117.83c.65,0,1.17,.52,1.17,1.17s-.52,1.17-1.17,1.17-1.17-.52-1.17-1.17,.52-1.17,1.17-1.17h0Z"/>
        <path class="cls-46" d="M433.94,118.12c.39,0,.71,.32,.71,.71s-.32,.71-.71,.71-.71-.32-.71-.71,.32-.71,.71-.71h0Z"/>
      </g>
      <g>
        <path class="cls-46" d="M434.12,123.09c.65,0,1.17,.52,1.17,1.17s-.52,1.17-1.17,1.17-1.17-.52-1.17-1.17,.52-1.17,1.17-1.17h0Z"/>
        <path class="cls-46" d="M433.94,123.38c.39,0,.71,.32,.71,.71s-.32,.71-.71,.71-.71-.32-.71-.71,.32-.71,.71-.71h0Z"/>
      </g>
      <g>
        <path class="cls-46" d="M434.12,128.35c.65,0,1.17,.52,1.17,1.17s-.52,1.17-1.17,1.17-1.17-.52-1.17-1.17,.52-1.17,1.17-1.17h0Z"/>
        <path class="cls-46" d="M433.94,128.64c.39,0,.71,.32,.71,.71s-.32,.71-.71,.71-.71-.32-.71-.71,.32-.71,.71-.71h0Z"/>
      </g>
      <g>
        <path class="cls-46" d="M434.12,133.62c.65,0,1.17,.52,1.17,1.17s-.52,1.17-1.17,1.17-1.17-.52-1.17-1.17,.52-1.17,1.17-1.17h0Z"/>
        <path class="cls-46" d="M433.94,133.91c.39,0,.71,.32,.71,.71s-.32,.71-.71,.71-.71-.32-.71-.71,.32-.71,.71-.71h0Z"/>
      </g>
      <g>
        <path class="cls-46" d="M434.12,138.88c.65,0,1.17,.52,1.17,1.17s-.52,1.17-1.17,1.17-1.17-.52-1.17-1.17,.52-1.17,1.17-1.17h0Z"/>
        <path class="cls-46" d="M433.94,139.17c.39,0,.71,.32,.71,.71s-.32,.71-.71,.71-.71-.32-.71-.71,.32-.71,.71-.71h0Z"/>
      </g>
      <g>
        <path class="cls-46" d="M434.12,144.14c.65,0,1.17,.52,1.17,1.17s-.52,1.17-1.17,1.17-1.17-.52-1.17-1.17,.52-1.17,1.17-1.17h0Z"/>
        <path class="cls-46" d="M433.94,144.43c.39,0,.71,.32,.71,.71s-.32,.71-.71,.71-.71-.32-.71-.71,.32-.71,.71-.71h0Z"/>
      </g>
      <g>
        <path class="cls-46" d="M434.12,149.4c.65,0,1.17,.52,1.17,1.17s-.52,1.17-1.17,1.17-1.17-.52-1.17-1.17,.52-1.17,1.17-1.17h0Z"/>
        <path class="cls-46" d="M433.94,149.69c.39,0,.71,.32,.71,.71s-.32,.71-.71,.71-.71-.32-.71-.71,.32-.71,.71-.71h0Z"/>
      </g>
    </g>
    <path class="cls-46" d="M524.17,87.07h4.56c4.38,0,3.86-.99,3.86-5.48v-18.33c0-1.82-.25-1.99,1.49-1.92,.54,.02,1.08,.05,1.63,.07,3.13,.13,2.76-.87,2.76-3.5v-6.71h2.02c.53-3.16,.55-6.32,0-9.47h-1.84c0-1.42,.02-2.84,0-4.25-.04-3.07,.09-2.93-1.75-3.03h-13.19l.47,52.63h0Z"/>
    <polygon class="cls-46" points="440.01 179.58 524.17 179.58 524.17 72.9 526.67 72.9 526.67 182.08 442.44 182.08 440.01 179.58 440.01 179.58"/>
    <g>
      <g>
        <path class="cls-3" d="M431.58,58.53c.65,0,1.17,.52,1.17,1.17s-.52,1.17-1.17,1.17-1.17-.52-1.17-1.17,.52-1.17,1.17-1.17h0Z"/>
        <path class="cls-129" d="M431.4,58.82c.39,0,.71,.32,.71,.71s-.32,.71-.71,.71-.71-.32-.71-.71,.32-.71,.71-.71h0Z"/>
      </g>
      <g>
        <path class="cls-3" d="M431.58,63.79c.65,0,1.17,.52,1.17,1.17s-.52,1.17-1.17,1.17-1.17-.52-1.17-1.17,.52-1.17,1.17-1.17h0Z"/>
        <path class="cls-129" d="M431.4,64.08c.39,0,.71,.32,.71,.71s-.32,.71-.71,.71-.71-.32-.71-.71,.32-.71,.71-.71h0Z"/>
      </g>
      <g>
        <path class="cls-3" d="M431.58,69.06c.65,0,1.17,.52,1.17,1.17s-.52,1.17-1.17,1.17-1.17-.52-1.17-1.17,.52-1.17,1.17-1.17h0Z"/>
        <path class="cls-129" d="M431.4,69.35c.39,0,.71,.32,.71,.71s-.32,.71-.71,.71-.71-.32-.71-.71,.32-.71,.71-.71h0Z"/>
      </g>
      <g>
        <path class="cls-3" d="M431.58,74.32c.65,0,1.17,.52,1.17,1.17s-.52,1.17-1.17,1.17-1.17-.52-1.17-1.17,.52-1.17,1.17-1.17h0Z"/>
        <path class="cls-129" d="M431.4,74.61c.39,0,.71,.32,.71,.71s-.32,.71-.71,.71-.71-.32-.71-.71,.32-.71,.71-.71h0Z"/>
      </g>
      <g>
        <path class="cls-3" d="M431.58,79.58c.65,0,1.17,.52,1.17,1.17s-.52,1.17-1.17,1.17-1.17-.52-1.17-1.17,.52-1.17,1.17-1.17h0Z"/>
        <path class="cls-129" d="M431.4,79.87c.39,0,.71,.32,.71,.71s-.32,.71-.71,.71-.71-.32-.71-.71,.32-.71,.71-.71h0Z"/>
      </g>
      <g>
        <path class="cls-3" d="M431.58,84.85c.65,0,1.17,.52,1.17,1.17s-.52,1.17-1.17,1.17-1.17-.52-1.17-1.17,.52-1.17,1.17-1.17h0Z"/>
        <path class="cls-129" d="M431.4,85.14c.39,0,.71,.32,.71,.71s-.32,.71-.71,.71-.71-.32-.71-.71,.32-.71,.71-.71h0Z"/>
      </g>
      <g>
        <path class="cls-3" d="M431.58,90.11c.65,0,1.17,.52,1.17,1.17s-.52,1.17-1.17,1.17-1.17-.52-1.17-1.17,.52-1.17,1.17-1.17h0Z"/>
        <path class="cls-129" d="M431.4,90.4c.39,0,.71,.32,.71,.71s-.32,.71-.71,.71-.71-.32-.71-.71,.32-.71,.71-.71h0Z"/>
      </g>
      <g>
        <path class="cls-3" d="M431.58,95.37c.65,0,1.17,.52,1.17,1.17s-.52,1.17-1.17,1.17-1.17-.52-1.17-1.17,.52-1.17,1.17-1.17h0Z"/>
        <path class="cls-129" d="M431.4,95.66c.39,0,.71,.32,.71,.71s-.32,.71-.71,.71-.71-.32-.71-.71,.32-.71,.71-.71h0Z"/>
      </g>
      <g>
        <path class="cls-3" d="M431.58,100.63c.65,0,1.17,.52,1.17,1.17s-.52,1.17-1.17,1.17-1.17-.52-1.17-1.17,.52-1.17,1.17-1.17h0Z"/>
        <path class="cls-129" d="M431.4,100.92c.39,0,.71,.32,.71,.71s-.32,.71-.71,.71-.71-.32-.71-.71,.32-.71,.71-.71h0Z"/>
      </g>
      <g>
        <path class="cls-3" d="M431.58,105.9c.65,0,1.17,.52,1.17,1.17s-.52,1.17-1.17,1.17-1.17-.52-1.17-1.17,.52-1.17,1.17-1.17h0Z"/>
        <path class="cls-129" d="M431.4,106.19c.39,0,.71,.32,.71,.71s-.32,.71-.71,.71-.71-.32-.71-.71,.32-.71,.71-.71h0Z"/>
      </g>
      <g>
        <path class="cls-3" d="M431.58,111.16c.65,0,1.17,.52,1.17,1.17s-.52,1.17-1.17,1.17-1.17-.52-1.17-1.17,.52-1.17,1.17-1.17h0Z"/>
        <path class="cls-129" d="M431.4,111.45c.39,0,.71,.32,.71,.71s-.32,.71-.71,.71-.71-.32-.71-.71,.32-.71,.71-.71h0Z"/>
      </g>
      <g>
        <path class="cls-3" d="M431.58,116.42c.65,0,1.17,.52,1.17,1.17s-.52,1.17-1.17,1.17-1.17-.52-1.17-1.17,.52-1.17,1.17-1.17h0Z"/>
        <path class="cls-129" d="M431.4,116.71c.39,0,.71,.32,.71,.71s-.32,.71-.71,.71-.71-.32-.71-.71,.32-.71,.71-.71h0Z"/>
      </g>
      <g>
        <path class="cls-3" d="M431.58,121.69c.65,0,1.17,.52,1.17,1.17s-.52,1.17-1.17,1.17-1.17-.52-1.17-1.17,.52-1.17,1.17-1.17h0Z"/>
        <path class="cls-129" d="M431.4,121.98c.39,0,.71,.32,.71,.71s-.32,.71-.71,.71-.71-.32-.71-.71,.32-.71,.71-.71h0Z"/>
      </g>
      <g>
        <path class="cls-3" d="M431.58,126.95c.65,0,1.17,.52,1.17,1.17s-.52,1.17-1.17,1.17-1.17-.52-1.17-1.17,.52-1.17,1.17-1.17h0Z"/>
        <path class="cls-129" d="M431.4,127.24c.39,0,.71,.32,.71,.71s-.32,.71-.71,.71-.71-.32-.71-.71,.32-.71,.71-.71h0Z"/>
      </g>
      <g>
        <path class="cls-3" d="M431.58,132.21c.65,0,1.17,.52,1.17,1.17s-.52,1.17-1.17,1.17-1.17-.52-1.17-1.17,.52-1.17,1.17-1.17h0Z"/>
        <path class="cls-129" d="M431.4,132.5c.39,0,.71,.32,.71,.71s-.32,.71-.71,.71-.71-.32-.71-.71,.32-.71,.71-.71h0Z"/>
      </g>
      <g>
        <path class="cls-3" d="M431.58,137.47c.65,0,1.17,.52,1.17,1.17s-.52,1.17-1.17,1.17-1.17-.52-1.17-1.17,.52-1.17,1.17-1.17h0Z"/>
        <path class="cls-129" d="M431.4,137.76c.39,0,.71,.32,.71,.71s-.32,.71-.71,.71-.71-.32-.71-.71,.32-.71,.71-.71h0Z"/>
      </g>
      <g>
        <path class="cls-3" d="M431.58,142.74c.65,0,1.17,.52,1.17,1.17s-.52,1.17-1.17,1.17-1.17-.52-1.17-1.17,.52-1.17,1.17-1.17h0Z"/>
        <path class="cls-129" d="M431.4,143.03c.39,0,.71,.32,.71,.71s-.32,.71-.71,.71-.71-.32-.71-.71,.32-.71,.71-.71h0Z"/>
      </g>
      <g>
        <path class="cls-3" d="M431.58,148c.65,0,1.17,.52,1.17,1.17s-.52,1.17-1.17,1.17-1.17-.52-1.17-1.17,.52-1.17,1.17-1.17h0Z"/>
        <path class="cls-129" d="M431.4,148.29c.39,0,.71,.32,.71,.71s-.32,.71-.71,.71-.71-.32-.71-.71,.32-.71,.71-.71h0Z"/>
      </g>
    </g>
    <g>
      <path class="cls-107" d="M425.16,39.02h113c.51,3.24,.49,6.4,0,9.47h-113c-.56-3.08-.6-6.23,0-9.47h0Z"/>
      <polygon class="cls-122" points="433.72 55.46 529.6 55.46 529.6 83.23 433.72 83.23 433.72 55.46 433.72 55.46"/>
      <path class="cls-11" d="M433.72,55.46h90.83c-6.67,30.31-74.77,24.42-90.83,16.5v-16.5h0Z"/>
      <polygon class="cls-58" points="433.72 55.46 529.6 55.46 529.6 57.48 433.72 57.48 433.72 55.46 433.72 55.46"/>
      <path class="cls-51" d="M429.81,31.61h103.69c.96,0,1.75,.79,1.75,1.75v20.35c0,.96-.79,1.75-1.75,1.75h-103.69c-.96,0-1.75-.79-1.75-1.75v-20.35c0-.96,.79-1.75,1.75-1.75h0Z"/>
      <path class="cls-120" d="M445.53,33.18c20.66-.07,41.43-.35,62.08,.27,13.12,.39,15.82-1.61,16.05,9.17,.12,5.53-.37,7.34-6.66,7.63-15.48,.72-33.94,.12-49.58-.08-8.08-.1-16.37-.78-24.03-.42-5.84,.27-11.84,.08-12.28-8.31-.5-9.37,7.29-8.23,14.42-8.26h0Z"/>
      <path class="cls-123" d="M448.27,35.88c10.91-.04,21.88-.2,32.78,.15,13.85,.45,9.33,9.28,4.96,9.49-12.98,.64-29.61,.46-38.88-.28-8.54-.68-10.39-9.32,1.13-9.36h0Z"/>
    </g>
  </g>
  <g id="shelves">
    <polygon class="cls-46" points="322.78 84.66 417.22 84.66 407.69 89.89 331.44 89.89 322.78 84.66 322.78 84.66"/>
    <path class="cls-46" d="M420.8,49.55c-2.5-1.3-4.98-1.53-7.7-.73-2.83,.83-4.62,2.25-5.88,4.13,4.28-4.33,12.03-2.9,13.45,2,.32,1.1,.11,.84-.48,.42-3.73-2.63-7.86-1.78-11.06,.71,.12,.12,.24,.25,.36,.39,.5,.6,.79,1.23,.9,1.89,.61-.24,1.04-.83,1.31-1.33,1.36-2.5,3.73-2.5,5.66-1.36,4.13,2.42-.27,10.73-2.6,13.14-.68,.7-1.04,.98-1.04-.7,0-.59-.07-1.13-.19-1.64-.27,.67-.64,1.22-1.08,1.25-1.65,3.95-3.15,7.62-3.59,12.1-3.05,.13-8.78,0-12.17,0-.44-4.48-1.94-8.15-3.59-12.1-.59-.04-1.06-1-1.31-1.95-1.74,1.15-3.28,2.29-3.62,3.55-.45,1.65-.44,1.47-.92,.45-.88-1.89-1.91-4.98-.16-8.26,1.27-2.38,3.78-3.97,6.49-4.34-3.14-1.5-6.1-2.77-8.39-2.68-1.06,.04-1.57,0-.82-.98,1.77-2.31,6.84-2.92,9.97-2.61-1.51-1.89-2.28-3.62-3.41-5.28-1.02-1.5-2.66-3.27-4.33-4.02-1.31-.58-1.45-.8,.53-.8,7.03,.12,10.82,2.18,13.18,5.55-.18-2.33,.16-4.72,1.22-7.42,1.51-3.86,1.73-3.73,2.54-.48,.66,2.62,1.06,4.53,1.22,6.19,.3-.58,.63-1.2,.99-1.86,1.37-2.53,2.85-5.32,2.97-8.25,.07-1.72,.39-.32,.64,1.22,.8,4.8,.31,8.58-.84,12.14,3.22-2.9,7.85-3.32,11.54,.52,.29,.3,1.43,1.77,.22,1.15h0Z"/>
    <polygon class="cls-46" points="322.78 133.66 417.22 133.66 407.69 138.89 331.44 138.89 322.78 133.66 322.78 133.66"/>
    <g>
      <path class="cls-46" d="M394.95,129.41v-27.03c0-1.93-1.76-1.69-3.65-1.74-1.99-.05-4.12-.27-4.12,1.63v27.14h.03s0,0,0,0h7.74Z"/>
      <path class="cls-46" d="M405.62,129.41v-23.56c0-1.68-2.42-1.47-5.02-1.51-2.74-.04-5.65-.24-5.65,1.42v23.65h.04s0,0,0,0h10.63Z"/>
      <path class="cls-46" d="M361.58,129.41h-28.62c-2.22,0-1.95-1.37-2-2.84-.05-1.55-.31-3.2,1.87-3.2h29.4c1.01,.09,1.23,.35,1.35,1.25,.14,1.08,.09,2.22,0,3.22-.09,1.15-.75,1.49-2.01,1.58h0Z"/>
      <path class="cls-46" d="M360.29,123.36h-26.03c-2.02,0-1.77-1.13-1.81-2.35-.05-1.28-.29-2.64,1.7-2.64h26.74c.92,.07,1.12,.29,1.22,1.03,.13,.89,.08,1.83,0,2.66-.08,.95-.68,1.23-1.83,1.3h0Z"/>
      <path class="cls-46" d="M359.22,118.37h-23.89c-1.85,0-1.62-.88-1.67-1.83-.04-1-.26-2.06,1.56-2.06h24.54c.84,.06,1.02,.23,1.12,.8,.12,.69,.07,1.43,0,2.07-.08,.74-.62,.96-1.68,1.01h0Z"/>
      <path class="cls-46" d="M359.74,114.49h-24.93c-1.93,0-1.69-1.5-1.74-3.11-.05-1.69-.27-3.5,1.63-3.5h25.61c.88,.1,1.07,.39,1.17,1.36,.13,1.18,.08,2.42,0,3.52-.08,1.26-.65,1.62-1.75,1.72h0Z"/>
      <path class="cls-46" d="M358.38,107.88h-21.92c-1.7,0-1.49-.94-1.53-1.95-.04-1.06-.24-2.2,1.43-2.2h22.51c.77,.06,.94,.24,1.03,.85,.11,.74,.07,1.52,0,2.21-.07,.79-.57,1.02-1.54,1.08h0Z"/>
      <path class="cls-46" d="M371.66,128.07l-5.5-29.73c-.4-2.14-1.81-1.61-3.38-1.37-1.66,.25-3.46,.33-3.07,2.44l5.49,29.67c.15,.29,.31,.38,.74,.3,1.66-.3,3.33-.6,4.99-.91,.49-.09,.63-.15,.73-.4h0Z"/>
      <path class="cls-46" d="M387.15,126.29l-14.23-26.67c-1.03-1.92-2.21-.99-3.64-.28-1.5,.74-3.2,1.36-2.19,3.25l14.2,26.62c.23,.23,.41,.27,.8,.06,1.49-.79,2.99-1.58,4.48-2.37,.44-.23,.56-.33,.58-.61h0Z"/>
    </g>
    <g>
      <path class="cls-46" d="M342.75,79.63l8.36-24.69c.6-1.78-.69-1.97-1.97-2.45-1.35-.51-2.74-1.21-3.34,.54l-8.34,24.63c0,.28,.07,.41,.43,.54,1.38,.47,2.76,.95,4.14,1.42,.41,.14,.54,.15,.72,0h0Z"/>
      <path class="cls-46" d="M337.33,79.91v-26.8c0-1.91-1.54-1.68-3.2-1.72-1.74-.05-3.6-.27-3.6,1.62v26.91h6.8Z"/>
      <path class="cls-46" d="M372.47,79.91v-26.45c0-1.89-1.24-1.66-2.57-1.7-1.4-.05-2.89-.27-2.89,1.59v26.55h5.46Z"/>
      <path class="cls-46" d="M367.01,79.91v-25.68c0-1.83-2.24-1.61-4.64-1.65-2.53-.04-5.23-.26-5.23,1.55v25.78h9.87Z"/>
      <path class="cls-46" d="M355.37,79.89l1.95-28.44c.14-2.03-1.2-1.87-2.62-2.01-1.49-.15-3.07-.5-3.21,1.5-.65,9.52-1.3,19.04-1.95,28.55h.02s0,0,0,0l5.82,.4h0Z"/>
    </g>
    <g>
      <polygon class="cls-109" points="334.01 133.66 337.15 133.66 342.16 143.8 339.02 143.8 334.01 133.66 334.01 133.66"/>
      <polygon class="cls-96" points="342.16 133.66 337.15 133.66 342.16 143.8 342.16 133.66 342.16 133.66"/>
    </g>
    <g>
      <polygon class="cls-109" points="334.01 84.66 337.15 84.66 342.16 94.8 339.02 94.8 334.01 84.66 334.01 84.66"/>
      <polygon class="cls-96" points="342.16 84.66 337.15 84.66 342.16 94.8 342.16 84.66 342.16 84.66"/>
    </g>
    <g>
      <polygon class="cls-109" points="405.99 133.66 402.85 133.66 397.84 143.8 400.98 143.8 405.99 133.66 405.99 133.66"/>
      <polygon class="cls-96" points="397.84 133.66 402.85 133.66 397.84 143.8 397.84 133.66 397.84 133.66"/>
    </g>
    <g>
      <polygon class="cls-109" points="405.99 84.66 402.85 84.66 397.84 94.8 400.98 94.8 405.99 84.66 405.99 84.66"/>
      <polygon class="cls-96" points="397.84 84.66 402.85 84.66 397.84 94.8 397.84 84.66 397.84 84.66"/>
    </g>
    <g>
      <path class="cls-24" d="M385.52,61.94c2.9-11.24,22.78-13.82,24.1,.73-9.93,1.76-15.78,2.2-24.1-.73h0Z"/>
      <path class="cls-101" d="M396.25,32.99c1.69-4.31,1.93-4.16,2.84-.54,2.28,9.05,1.8,10.47-.83,19.49-3.16-6.71-4.78-11.91-2.02-18.95h0Z"/>
      <path class="cls-18" d="M398.38,30.13c.21,.43,.43,1.21,.71,2.32,2.28,9.05,1.8,10.47-.83,19.49-1.98-4.2-3.35-7.81-3.43-11.65,1.83,2.75,3.31,.77,3.86-1.68,.62-2.75-.05-6.5-.31-8.48h0Z"/>
      <path class="cls-101" d="M401.56,37.29c1.53-2.82,3.19-5.94,3.32-9.21,.08-1.92,.43-.36,.72,1.37,1.93,11.58-2.88,17.8-7.22,27.79-1.63-9.49-1.51-11.31,3.18-19.95h0Z"/>
      <path class="cls-18" d="M405.71,30.18c1.61,11.11-3.09,17.28-7.33,27.05-.34-1.96-.6-3.59-.76-5.02,3.31-9.45,7.95-8.3,8.09-22.03h0Z"/>
      <path class="cls-101" d="M380.17,35.08c-2.21,0-2.05,.24-.59,.9,1.87,.83,3.7,2.81,4.84,4.49,2.75,4.03,3.56,8.42,15.15,14.18-2.57-11.14-4.4-19.31-19.39-19.56h0Z"/>
      <path class="cls-82" d="M381.43,36.01c4.96,1.97,4.13,4.84,10.62,12.92l-3.26-7.67c-.96-2.01-1.13-2.69,.84-1.87,.82,.34,1.6,.88,2.36,1.63-2.47-3.86-6.01-4.5-10.57-5h0Z"/>
      <path class="cls-18" d="M399.56,54.64c-2.11-9.14-3.72-16.28-12.51-18.69,3.72,1.28,5.8,3.87,7.12,6.31,.94,1.73,1.33,4.31-.16,2.31-1.39-1.86-2.57-3.19-4.75-4.09,3.79,3.16,6.87,12.26,10.3,14.16h0Z"/>
      <path class="cls-92" d="M385.12,61.24c7.86-.54,17.46-.22,25.03,0,.05,1.09-.64,3.83-1.71,3.91-1.84,4.41-3.51,8.51-4.01,13.51-3.41,.14-9.81,0-13.59,0-.49-5-2.17-9.1-4.01-13.51-1.07-.08-1.76-2.82-1.71-3.91h0Z"/>
      <path class="cls-19" d="M405.96,61.11c1.47,.04,2.81,.08,4.19,.12,.05,1.09-.64,3.83-1.71,3.91-1.84,4.41-3.51,8.51-4.01,13.51-3.5,.06-9.4,.03-13.59,0-.01-.11-.18-1.56-.27-2.02,2.73,1.75,11.16,1.53,12.87-2.24,1.17-2.58,1.67-7.75-.99-8.42-2.85-.72-5.92-.87-9.31-1.28,3.2-.12,6.33,.15,9.42-.48,1.7-.34,3.89-.77,3.39-3.11h0Z"/>
      <path class="cls-80" d="M391.11,72.41c-1.18-2.55-1.11-5.15,2.4-5.09,1.3,.02,2.59,.07,3.89,.13,3.17,.15,3.67,1.61,3.26,3.42-.9,4.06-2.91,4.55-5.41,4.49-1.8-.04-3.2-.91-4.15-2.95h0Z"/>
      <path class="cls-80" d="M387.73,62.06c4.1-.13,7.84-.25,11.77-.03,1.96,.11,1.94,.81,1.31,1.21-.44,.28-1.18,.3-1.75,.32-1.9,.05-8.04,.05-10.56,0-.48-.01-1.07-.03-1.57-.27-.86-.42-1.28-1.15,.8-1.22h0Z"/>
      <path class="cls-89" d="M378.01,50.37c-1.18,.05-1.75,0-.92-1.1,2.28-2.98,9.48-3.42,12.58-2.7,4.54,1.06,7.58,4.89,10.43,11.75-7.09-.92-16.4-8.2-22.09-7.96h0Z"/>
      <path class="cls-27" d="M393.02,48.04c2.8,1.88,4.99,5.27,7.07,10.3-5.91-.77-13.37-5.96-18.99-7.52,4.85-.27,10.34,2.56,11.93,1.04,1.11-1.06,.95-2.32-.02-3.82h0Z"/>
      <path class="cls-101" d="M417.63,50.89c.36,1.23,.12,.94-.54,.47-6.86-4.85-14.92,.87-17.6,7.94-1.31-16.12,15.84-16.35,18.14-8.41h0Z"/>
      <path class="cls-18" d="M417.28,51.5c-.06-.04-.12-.08-.18-.13-5.91-4.17-12.71-.51-16.19,5.1-.48,.07-.97,.13-1.45,.2,.31-6.23,7.38-10.2,12.27-8.75-.91-.06-1.67-.12-3.63,.54-.37,.12-.16,.42,.36,.35,1.8-.25,7.09-.35,8.82,2.69h0Z"/>
      <path class="cls-89" d="M417.79,44.85c-2.79-1.45-5.57-1.71-8.6-.81-5.35,1.57-7.34,4.99-8.88,9.69-.14-10.8,10.13-17.56,17.24-10.16,.32,.33,1.59,1.97,.25,1.28h0Z"/>
      <path class="cls-27" d="M417,44.48c-2.53-1.11-5.06-1.25-7.81-.44-4.31,1.27-6.45,3.74-7.92,7.12,.32-6.23,9.64-11.18,15.73-6.68h0Z"/>
      <path class="cls-101" d="M405.68,59c2.22,1.01,4.18,3.19,4.18,6.58,0,1.88,.41,1.57,1.17,.78,2.61-2.69,7.52-11.97,2.91-14.67-2.16-1.26-4.8-1.27-6.32,1.52-.34,.62-.91,1.39-1.73,1.57-3.13,.67-3.39,2.76-.2,4.22h0Z"/>
      <path class="cls-18" d="M405.68,59c1.84,.84,3.5,2.48,4.02,4.94l.05-.55c-.57-2.15-4.15-7.4-1.14-8.26,.76-.22,2.59,.23,3.72,1.92-.11-1.41-2.75-4.66-4.72-3.84-.34,.62-.91,1.39-1.74,1.57-3.13,.67-3.39,2.76-.2,4.22h0Z"/>
      <path class="cls-101" d="M389.6,60.02c-2.87,2.42-7.61,4.45-8.28,6.91-.5,1.85-.5,1.65-1.02,.51-.98-2.11-2.14-5.56-.17-9.23,2.91-5.44,11.6-7.2,16.26-1.06-3.19-.83-4.51,.94-6.79,2.87h0Z"/>
      <path class="cls-18" d="M389.6,60.02c-2.25,1.9-5.66,3.56-7.34,5.38,1.78-3.01,5.05-4.67,7.6-7.21,.76-.86,2.66-3.19,.97-3.94-1.5-.66-2.26-.66-3.86-.82,3.29-.59,6.93,.44,9.43,3.72-3.19-.83-4.51,.94-6.79,2.87h0Z"/>
      <path class="cls-89" d="M399.22,63.19c-1.06-2.94-1.52-3.6-3.44-5.58-3.92-4.05-.06-7.02,3.24-5.93,2.53-1.48,4.63-.84,6.12,.92,2.77,3.29-.46,7.58-3.24,10.71-2.83,3.2-1.88,2.13-2.69-.11h0Z"/>
      <path class="cls-27" d="M406.06,56.63c-.53,2.33-2.43,4.72-4.16,6.67-.31,.35-.57,.65-.8,.9,2.8-5.12-.63-8.08-.11-9.65,.55-1.65,2.21-.72,3.25,0,.57,.4,.96,.89,1.6,1.6,.07,.16,.14,.32,.21,.47h0Z"/>
      <path class="cls-105" d="M400.37,63.17c-.94-2-1.42-3.38-2.85-5.07-.68-.8-1.34-1.6-1.73-2.35-1.31-2.51,1.19-4.27,3.57-3.04-1.06,1.33-1.18,2.57-.42,4.8,.64,1.87,1.01,3.74,1.44,5.66h0Z"/>
      <path class="cls-105" d="M379.37,48.5c2.29-1.79,10.58-2.03,12.39-.08,1.21,1.3,0,1.48-1.12,1.01-3.6-1.54-7.32-2-11.27-.93h0Z"/>
      <path class="cls-82" d="M380.91,58.25c1.17-1.85,2.61-3.02,5.98-3.5,2.07-.3,.53,1.39-.12,1.98-1.04,.94-1.15,.9-2.96,2.03-2.16,1.36-3.51,2.77-3.65,6.1,.06,1.09,0,1.21-.2,.09-.43-2.4-.47-4.44,.96-6.7h0Z"/>
      <path class="cls-82" d="M398.67,45.86c1.67-5.02,4.32-9.36,6.25-14.62-.81,6.92-2.25,9.21-6.25,14.62h0Z"/>
      <path class="cls-82" d="M410.36,52.39c2.3-.98,3.53,0,4.11,1.01,1.31,2.26-.67,7.13-1.93,9.51,1.46-4.83,2.57-9.2-2.19-10.52h0Z"/>
      <path class="cls-105" d="M416.63,43.11c-4.22-2.94-7.87-3.07-12.17,.91,3.97-2.39,7.68-3.29,12.17-.91h0Z"/>
    </g>
    <g>
      <path class="cls-49" d="M340.25,78.38l8.36-24.69c.6-1.78-.69-1.97-1.97-2.45-1.35-.51-2.74-1.21-3.34,.54l-8.34,24.63c0,.28,.07,.41,.44,.54,1.38,.47,2.76,.94,4.13,1.42,.41,.14,.54,.15,.72,0h0Z"/>
      <path class="cls-108" d="M340.25,78.38l8.36-24.69c.26-.78,.16-1.26-.14-1.59-2.32,6.88-4.58,14.17-7.15,20.89-.97,2.52-1.43,3.79-3.64,3.08-.8-.26-1.59-.46-2.09-1.49l-.62,1.84c0,.28,.07,.41,.44,.54,1.38,.47,2.76,.94,4.13,1.42,.41,.14,.54,.15,.72,0h0Z"/>
      <path class="cls-69" d="M346.31,51.12c-1.25-.48-2.47-.95-3.01,.67l-6.57,19.41c1.01,1.54,2.91,1.8,4.01-.96,.65-1.63,1.37-3.96,2.16-6.29l3.24-9.56c.6-1.73,1.24-2.85,.17-3.26h0Z"/>
      <path class="cls-47" d="M342.86,55c.55-1.47,.85-2.21,1.78-1.81,.83,.36,.63,1.04,.25,2.46-1.34,3.97-2.69,7.94-4.03,11.91-.47,1.4-.97,3.42-2.14,2.93-1.17-.49-.36-2.5,.15-3.96,1.01-2.83,3.01-8.91,3.99-11.53h0Z"/>
    </g>
    <g>
      <path class="cls-33" d="M334.83,78.66v-26.8c0-1.91-1.54-1.68-3.2-1.72-1.74-.05-3.6-.27-3.6,1.62v26.91h6.8Z"/>
      <path class="cls-30" d="M334.83,78.66v-26.8c0-.84-.3-1.27-.78-1.48,.02,7.39,.25,15.17-.09,22.49-.13,2.75-.17,4.12-2.96,4.16-1.01,.01-1.99,.07-2.97-.76v2.39h6.8Z"/>
      <path class="cls-75" d="M331.22,50.12c-1.61-.05-3.18-.11-3.18,1.63v20.87c1.74,1.15,4.01,.79,4.21-2.24,.12-1.79,.04-4.27,.04-6.78v-10.28c.02-1.87,.31-3.16-1.06-3.2h0Z"/>
      <path class="cls-62" d="M328.77,54.99c.06-1.6,.12-2.42,1.33-2.33,1.09,.08,1.12,.8,1.24,2.29v12.81c0,1.51,.21,3.61-1.31,3.53-1.52-.09-1.38-2.3-1.35-3.87,.06-3.06,0-9.57,.1-12.42h0Z"/>
    </g>
    <g>
      <path class="cls-99" d="M369.97,78.66v-26.45c0-1.89-1.24-1.66-2.57-1.7-1.4-.05-2.89-.27-2.89,1.59v26.55h5.46Z"/>
      <path class="cls-21" d="M369.97,78.66v-26.45c0-.83-.24-1.25-.62-1.46,.01,7.3,.2,14.97-.07,22.19-.1,2.71-.14,4.07-2.38,4.11-.82,.02-1.6,.07-2.39-.75v2.36h5.46Z"/>
      <path class="cls-81" d="M367.07,50.49c-1.29-.05-2.56-.11-2.56,1.61v20.6c1.4,1.14,3.23,.78,3.38-2.21,.09-1.77,.03-4.21,.03-6.69v-10.15c.01-1.84,.25-3.11-.86-3.16h0Z"/>
      <path class="cls-56" d="M365.1,55.3c.05-1.58,.09-2.38,1.07-2.3,.88,.08,.9,.79,.99,2.26v12.64c0,1.49,.17,3.57-1.05,3.48-1.23-.08-1.11-2.27-1.09-3.82,.04-3.02,0-9.45,.08-12.26h0Z"/>
    </g>
    <g>
      <path class="cls-39" d="M364.51,78.66v-25.68c0-1.83-2.24-1.61-4.64-1.65-2.53-.04-5.23-.26-5.23,1.55v25.78h9.87Z"/>
      <path class="cls-17" d="M364.51,78.66v-25.68c0-.81-.43-1.21-1.13-1.42,.02,7.08,.37,14.53-.13,21.54-.19,2.64-.25,3.95-4.3,3.99-1.47,.01-2.89,.07-4.31-.73v2.29h9.87Z"/>
      <path class="cls-71" d="M359.26,51.32c-2.34-.05-4.62-.1-4.62,1.56v20c2.53,1.11,5.83,.75,6.11-2.15,.17-1.71,.05-4.09,.05-6.49v-9.85c.03-1.79,.45-3.02-1.55-3.07h0Z"/>
      <path class="cls-116" d="M355.71,55.98c.08-1.54,.17-2.31,1.93-2.23,1.58,.07,1.62,.77,1.79,2.19v12.27c0,1.44,.3,3.46-1.9,3.38-2.21-.08-2.01-2.2-1.97-3.71,.08-2.93-.01-9.17,.14-11.9h0Z"/>
    </g>
    <g>
      <path class="cls-91" d="M352.87,78.64l1.95-28.44c.14-2.03-1.2-1.87-2.62-2.01-1.49-.15-3.07-.5-3.21,1.5-.65,9.52-1.3,19.04-1.95,28.55h.02s0,0,0,0l5.81,.4h0Z"/>
      <path class="cls-31" d="M352.87,78.64l1.95-28.44c.06-.89-.16-1.36-.56-1.62-.52,7.85-.88,16.11-1.71,23.86-.31,2.91-.45,4.36-2.85,4.24-.87-.04-1.71-.04-2.49-.98l-.17,2.54h.02s5.81,.4,5.81,.4h0Z"/>
      <path class="cls-74" d="M351.84,48.15c-1.38-.15-2.72-.3-2.85,1.54l-1.52,22.15c1.41,1.33,3.39,1.07,3.78-2.13,.23-1.89,.34-4.53,.53-7.19l.75-10.91c.15-1.98,.49-3.33-.68-3.46h0Z"/>
      <path class="cls-111" d="M349.39,53.17c.17-1.7,.27-2.56,1.31-2.39,.93,.15,.9,.92,.9,2.5-.31,4.53-.62,9.06-.93,13.59-.11,1.6-.08,3.85-1.38,3.67-1.3-.18-1.02-2.52-.88-4.19,.27-3.24,.69-10.16,.99-13.18h0Z"/>
    </g>
    <g>
      <path class="cls-15" d="M391.64,127.66v-27.03c0-1.93-1.76-1.69-3.66-1.74-1.99-.05-4.12-.27-4.12,1.63v27.14h.03s0,0,0,0h7.75Z"/>
      <path class="cls-137" d="M391.64,127.66v-27.03c0-.85-.34-1.28-.89-1.5,.02,7.46,.29,15.3-.1,22.68-.15,2.78-.2,4.16-3.39,4.2-1.16,.02-2.28,.07-3.39-.76v2.41h7.77Z"/>
      <path class="cls-115" d="M387.51,98.87c-1.84-.05-3.64-.11-3.64,1.64v21.05c2,1.17,4.59,.79,4.81-2.26,.13-1.8,.04-4.3,.04-6.83v-10.37c.02-1.88,.35-3.18-1.22-3.23h0Z"/>
      <path class="cls-104" d="M384.71,103.78c.07-1.62,.13-2.44,1.52-2.35,1.25,.08,1.28,.81,1.41,2.31v12.92c0,1.52,.24,3.65-1.5,3.56-1.74-.09-1.58-2.32-1.55-3.9,.06-3.08,0-9.66,.11-12.53h0Z"/>
    </g>
    <g>
      <path class="cls-83" d="M402.31,127.66v-23.56c0-1.68-2.42-1.47-5.02-1.51-2.74-.04-5.65-.24-5.65,1.42v23.65h.04s0,0,0,0h10.63Z"/>
      <path class="cls-90" d="M402.31,127.66v-23.56c0-.74-.47-1.11-1.22-1.3,.03,6.5,.4,13.33-.14,19.77-.2,2.42-.27,3.62-4.65,3.66-1.59,.01-3.12,.06-4.66-.67v2.1h10.67Z"/>
      <path class="cls-45" d="M396.64,102.57c-2.53-.05-5-.09-5,1.43v18.34c2.74,1.02,6.3,.69,6.61-1.97,.18-1.57,.06-3.75,.06-5.96v-9.04c.03-1.64,.48-2.77-1.67-2.81h0Z"/>
      <path class="cls-43" d="M392.79,106.85c.09-1.41,.18-2.12,2.09-2.05,1.71,.07,1.75,.7,1.94,2.01v11.26c0,1.32,.33,3.18-2.06,3.1-2.39-.08-2.17-2.02-2.12-3.4,.09-2.69-.01-8.42,.15-10.92h0Z"/>
    </g>
    <g>
      <path class="cls-83" d="M358.27,127.66h-28.62c-2.22,0-1.94-1.37-1.99-2.84-.05-1.55-.31-3.2,1.87-3.2h29.4c1.01,.09,1.23,.35,1.35,1.25,.14,1.08,.09,2.22,0,3.22-.09,1.15-.75,1.49-2.01,1.58h0Z"/>
      <path class="cls-90" d="M358.27,127.66h-28.62c-1.51,0-1.87-.64-1.95-1.51,1.13,1.18,3.39,.88,5.44,.88h21.79c5.07,0,5.12-1.4,5.39-3.76,.08,.95,.03,1.93-.04,2.81-.09,1.15-.75,1.49-2.01,1.58h0Z"/>
      <path class="cls-45" d="M327.64,124.44c-.06-1.43-.12-2.83,1.89-2.83h27.95c1.34,1.55,.91,4.1-2.6,4.27-2.07,.1-8.7,.03-11.61,.03h-11.92c-2.16,.02-3.66-.25-3.71-1.47h0Z"/>
      <path class="cls-43" d="M333.71,122.46c-1.86,.05-2.8,.1-2.7,1.18,.09,.97,.93,.99,2.65,1.1h14.85c1.75,0,4.19,.18,4.09-1.17-.1-1.36-2.66-1.23-4.49-1.2-3.55,.05-11.1,0-14.4,.09h0Z"/>
    </g>
    <g>
      <path class="cls-39" d="M356.98,121.61h-26.03c-2.02,0-1.77-1.13-1.81-2.35-.05-1.28-.29-2.64,1.7-2.64h26.74c.92,.07,1.12,.29,1.22,1.03,.13,.89,.08,1.83,0,2.66-.08,.95-.68,1.23-1.83,1.3h0Z"/>
      <path class="cls-17" d="M356.98,121.61h-26.03c-1.37,0-1.7-.53-1.78-1.25,1.03,.97,3.08,.73,4.95,.73h19.82c4.61,0,4.66-1.16,4.91-3.1,.08,.79,.03,1.6-.03,2.32-.08,.95-.68,1.23-1.83,1.3h0Z"/>
      <path class="cls-71" d="M329.12,118.96c-.06-1.18-.11-2.34,1.72-2.34h25.41c1.22,1.28,.83,3.38-2.36,3.53-1.89,.08-7.91,.03-10.55,.03h-10.84c-1.97,.01-3.33-.21-3.37-1.22h0Z"/>
      <path class="cls-116" d="M334.64,117.32c-1.69,.04-2.54,.08-2.46,.98,.08,.8,.84,.82,2.41,.91h13.5c1.59,0,3.81,.15,3.72-.96-.09-1.12-2.42-1.01-4.08-.99-3.22,.04-10.09,0-13.1,.07h0Z"/>
    </g>
    <g>
      <path class="cls-14" d="M355.91,116.62h-23.89c-1.85,0-1.62-.88-1.67-1.83-.04-1-.26-2.06,1.56-2.06h24.54c.84,.06,1.02,.23,1.12,.8,.12,.69,.07,1.43,0,2.07-.08,.74-.62,.96-1.68,1.01h0Z"/>
      <path class="cls-88" d="M355.91,116.62h-23.89c-1.26,0-1.56-.41-1.63-.97,.94,.76,2.83,.57,4.54,.57h18.19c4.23,0,4.27-.9,4.5-2.42,.07,.61,.03,1.24-.03,1.81-.08,.74-.62,.96-1.68,1.01h0Z"/>
      <path class="cls-100" d="M330.34,114.56c-.05-.92-.1-1.82,1.58-1.82h23.33c1.12,1,.76,2.63-2.17,2.75-1.73,.07-7.26,.02-9.69,.02h-9.95c-1.81,0-3.05-.16-3.1-.95h0Z"/>
      <path class="cls-104" d="M335.41,113.28c-1.55,.03-2.34,.07-2.25,.76,.07,.62,.77,.64,2.21,.71h12.39c1.46,0,3.5,.12,3.41-.75-.08-.87-2.22-.79-3.75-.77-2.96,.03-9.26,0-12.02,.06h0Z"/>
    </g>
    <g>
      <path class="cls-112" d="M356.43,112.74h-24.93c-1.93,0-1.69-1.5-1.74-3.11-.05-1.69-.27-3.5,1.63-3.5h25.61c.88,.1,1.07,.39,1.17,1.36,.13,1.18,.08,2.42,0,3.52-.08,1.26-.65,1.62-1.75,1.72h0Z"/>
      <path class="cls-97" d="M356.43,112.74h-24.93c-1.32,0-1.62-.7-1.7-1.65,.98,1.29,2.95,.96,4.74,.96h18.98c4.42,0,4.46-1.53,4.7-4.11,.07,1.04,.03,2.11-.03,3.07-.08,1.26-.65,1.62-1.75,1.72h0Z"/>
      <path class="cls-42" d="M329.75,109.22c-.05-1.56-.11-3.09,1.64-3.09h24.34c1.17,1.7,.79,4.48-2.26,4.67-1.81,.11-7.58,.04-10.11,.04h-10.38c-1.88,.02-3.19-.28-3.23-1.61h0Z"/>
      <path class="cls-66" d="M335.04,107.05c-1.62,.06-2.44,.11-2.35,1.29,.08,1.06,.81,1.09,2.31,1.2h12.93c1.52,0,3.65,.2,3.56-1.27-.09-1.48-2.32-1.34-3.91-1.32-3.09,.05-9.67,0-12.55,.09h0Z"/>
    </g>
    <g>
      <path class="cls-87" d="M355.07,106.13h-21.92c-1.7,0-1.49-.94-1.53-1.95-.04-1.06-.24-2.2,1.43-2.2h22.51c.77,.06,.94,.24,1.03,.85,.11,.74,.07,1.52,0,2.21-.07,.79-.57,1.02-1.54,1.08h0Z"/>
      <path class="cls-23" d="M355.07,106.13h-21.92c-1.16,0-1.43-.44-1.5-1.04,.86,.81,2.59,.61,4.17,.61h16.68c3.88,0,3.92-.96,4.13-2.58,.06,.65,.03,1.33-.03,1.93-.07,.79-.57,1.02-1.54,1.08h0Z"/>
      <path class="cls-22" d="M331.62,103.92c-.05-.98-.09-1.94,1.45-1.94h21.4c1.03,1.06,.7,2.81-1.99,2.93-1.59,.07-6.66,.02-8.89,.02h-9.13c-1.66,.01-2.8-.17-2.84-1.01h0Z"/>
      <path class="cls-110" d="M336.27,102.56c-1.42,.04-2.14,.07-2.07,.81,.07,.67,.71,.68,2.03,.75h11.37c1.34,0,3.21,.13,3.13-.8-.08-.93-2.04-.84-3.44-.83-2.71,.03-8.5,0-11.03,.06h0Z"/>
    </g>
    <g>
      <path class="cls-112" d="M368.35,126.32l-5.5-29.73c-.4-2.14-1.81-1.61-3.38-1.37-1.66,.25-3.46,.33-3.07,2.44l5.49,29.67c.15,.29,.31,.38,.74,.3,1.66-.3,3.33-.6,4.99-.91,.49-.09,.63-.15,.73-.4h0Z"/>
      <path class="cls-97" d="M368.35,126.32l-5.5-29.73c-.17-.94-.55-1.37-1.04-1.53,1.55,8.28,3.38,16.94,4.58,25.2,.45,3.1,.69,4.65-1.94,5.18-.96,.2-1.87,.43-2.97-.33l.41,2.21c.15,.29,.31,.38,.74,.3,1.66-.3,3.33-.6,4.99-.91,.49-.09,.63-.15,.73-.4h0Z"/>
      <path class="cls-42" d="M359.07,95.28c-1.53,.22-3.04,.44-2.68,2.38l4.33,23.37c1.89,.99,3.96,.18,3.52-3.25-.26-2.02-.85-4.79-1.37-7.6l-2.13-11.51c-.37-2.09-.36-3.59-1.67-3.4h0Z"/>
      <path class="cls-66" d="M357.76,101.16c-.28-1.8-.39-2.72,.78-2.84,1.05-.1,1.22,.7,1.64,2.35,.89,4.78,1.77,9.56,2.66,14.34,.31,1.69,.95,4.01-.51,4.18-1.46,.17-1.79-2.33-2.08-4.1-.58-3.44-1.99-10.72-2.48-13.93h0Z"/>
    </g>
    <g>
      <path class="cls-79" d="M383.84,124.54l-14.23-26.67c-1.03-1.92-2.21-.99-3.64-.28-1.5,.74-3.2,1.36-2.19,3.25l14.2,26.62c.23,.23,.41,.27,.8,.06,1.49-.79,2.99-1.58,4.48-2.37,.44-.23,.56-.33,.58-.61h0Z"/>
      <path class="cls-34" d="M383.84,124.54l-14.23-26.67c-.45-.85-.93-1.14-1.46-1.14,3.98,7.42,8.35,15.12,11.98,22.64,1.37,2.82,2.06,4.22-.29,5.53-.85,.47-1.65,.97-2.93,.58l1.06,1.99c.23,.23,.41,.27,.8,.06,1.49-.79,2.99-1.58,4.48-2.37,.44-.23,.56-.33,.58-.61h0Z"/>
      <path class="cls-70" d="M365.61,97.76c-1.4,.68-2.76,1.33-1.83,3.08l11.19,20.97c2.1,.37,3.83-1.03,2.37-4.16-.86-1.85-2.26-4.3-3.6-6.83l-5.51-10.33c-.98-1.88-1.43-3.31-2.62-2.73h0Z"/>
      <path class="cls-76" d="M366.14,103.76c-.81-1.64-1.2-2.48-.12-2.94,.97-.42,1.38,.3,2.28,1.74,2.29,4.29,4.58,8.58,6.87,12.87,.81,1.51,2.11,3.54,.78,4.14-1.34,.6-2.41-1.68-3.22-3.28-1.59-3.1-5.14-9.62-6.58-12.53h0Z"/>
    </g>
    <g>
      <path class="cls-109" d="M322.66,78.66h94.68c2.81,0,2.75,6-.12,6h-94.44c-2.87,0-2.93-6-.12-6h0Z"/>
      <path class="cls-96" d="M417,78.66h.34c2.81,0,2.75,6-.12,6h-94.44c-.58,0-1.05-.25-1.4-.65,27.89-.02,55.59-.36,83.48-.78,3.48-.05,6.83-.05,9.42-.5,1.98-.35,3.61-.93,2.72-4.07h0Z"/>
      <path class="cls-57" d="M332.35,79.85c3.96-.1,7.88-.26,11.94-.27,19.16-.07,38.47-.11,57.62,.12,7.49,.09,7.7,2.38,0,2.42-19.49,.11-39.04-.05-58.5,.14-3.66,.03-7.4,.19-10.94,.1-8.69-.21-9.05-2.29-.13-2.51h0Z"/>
    </g>
    <g>
      <path class="cls-109" d="M322.66,127.66h94.68c2.81,0,2.75,6-.12,6h-94.44c-2.87,0-2.93-6-.12-6h0Z"/>
      <path class="cls-96" d="M417,127.66h.34c2.81,0,2.75,6-.12,6h-94.44c-.58,0-1.05-.25-1.4-.65,27.89-.02,55.59-.36,83.48-.78,3.48-.05,6.83-.05,9.42-.5,1.98-.35,3.61-.93,2.72-4.07h0Z"/>
      <path class="cls-57" d="M332.35,128.85c3.96-.1,7.88-.26,11.94-.27,19.16-.07,38.47-.11,57.62,.12,7.49,.09,7.7,2.38,0,2.42-19.49,.11-39.04-.05-58.5,.14-3.66,.04-7.4,.19-10.94,.1-8.69-.21-9.05-2.29-.13-2.51h0Z"/>
    </g>
  </g>
  <g id="nightstands">
    <path class="cls-12" d="M195.21,218.66h112.92c1.57,0,2.85,1.28,2.85,2.85v54.46c0,1.57-1.28,2.85-2.85,2.85h-112.92c-1.57,0-2.85-1.28-2.85-2.85v-54.46c0-1.57,1.28-2.85,2.85-2.85h0Z"/>
    <g>
      <path class="cls-114" d="M195.21,215.45h112.92c1.57,0,2.85,1.28,2.85,2.85v54.46c0,1.57-1.28,2.85-2.85,2.85h-112.92c-1.57,0-2.85-1.28-2.85-2.85v-54.46c0-1.57,1.28-2.85,2.85-2.85h0Z"/>
      <path class="cls-35" d="M310.98,218.3v54.46c0,1.57-1.28,2.85-2.85,2.85h-112.92c-1.57,0-2.85-1.28-2.85-2.85v-.73c.4,3.03,8.83,2.15,12.49,2.15h93.88c8.27,0,10.67-.07,10.67-8.92v-48.79c1.29,.19,1.59,.16,1.59,1.82h0Z"/>
      <path class="cls-41" d="M201.3,225.13h101.54c1.69,0,3.07,1.38,3.07,3.07v15.8c0,1.69-1.38,3.07-3.07,3.07h-101.54c-1.69,0-3.07-1.38-3.07-3.07v-15.8c0-1.69,1.38-3.07,3.07-3.07h0Z"/>
      <path class="cls-41" d="M201.3,249.79h101.54c1.69,0,3.07,1.38,3.07,3.07v15.8c0,1.69-1.38,3.07-3.07,3.07h-101.54c-1.69,0-3.07-1.38-3.07-3.07v-15.8c0-1.69,1.38-3.07,3.07-3.07h0Z"/>
    </g>
    <g>
      <path class="cls-65" d="M190.88,219.58c-2.69,0-2.69-6.13,0-6.13h121.57c2.69,0,2.69,6.13,0,6.13h-121.57Z"/>
      <path class="cls-132" d="M194.93,218.01c-2.1,0-2.1-2.99,0-2.99h102.16c2.1,0,2.1,2.99,0,2.99h-102.16Z"/>
      <polygon class="cls-131" points="190.88 213.45 207.02 208.04 296.32 208.04 312.45 213.45 190.88 213.45 190.88 213.45"/>
    </g>
    <path class="cls-40" d="M287.32,209.08c5.16,0,9.33,.54,9.33,1.19s-4.18,1.19-9.33,1.19-9.33-.53-9.33-1.19,4.18-1.19,9.33-1.19h0Z"/>
    <path class="cls-40" d="M218.6,208.05c2.83,0,5.12,.56,5.12,1.26s-2.29,1.26-5.12,1.26-5.12-.56-5.12-1.26,2.29-1.26,5.12-1.26h0Z"/>
    <g>
      <path class="cls-86" d="M219.94,169.32c1.28-1.09,2.22-.84,1.33,.83-1.81,3.4-3.54,3.32-4.82,8.3-.28-3.15,.98-6.99,3.49-9.13h0Z"/>
      <path class="cls-13" d="M221.4,169.88c-.04,.08-.08,.17-.13,.27-1.81,3.4-3.54,3.32-4.82,8.3-.05-.53-.05-1.08-.01-1.64,1.23-2.93,2.43-4.46,4.96-6.93h0Z"/>
    </g>
    <g>
      <path class="cls-86" d="M215.48,179.98c-.44-4.81-.1-9.78,.81-15.31,.25,.04,.5,.08,.75,.13-.81,6.21-1.43,8.17-.06,15.31-.5-.04-1-.08-1.5-.13h0Z"/>
      <path class="cls-13" d="M216.95,165.43c-.77,5.72-1.3,7.78,.02,14.67l-1.21-.1c-.17-5.85-.04-9.81,1.19-14.57h0Z"/>
    </g>
    <g>
      <path class="cls-68" d="M213.76,159.63c.12-1.98,.84-3.97,2.01-5.26,.39-.43,.43-.55,.86-.06,.19,.21,.3,.44,.37,.68,.19,.63,.09,.81,.54,0,.43-.78,1.14-1.37,2.15-1.84,1.34-.62,1.46-.42,1.96,1.11,.27,.84,.25,1.58,.17,2.2-.15,1.02-.31,.86,.45,.55,.73-.3,.7,0,.77,.63,.21,1.82-.38,3.66-1.41,5.17-3.39,5-8.22,2.62-7.87-3.18h0Z"/>
      <path class="cls-44" d="M222.9,156.9c.5,2.05-.11,4.2-1.28,5.91-2.61,3.84-6.07,3.32-7.37,.23,3.31,2.48,5.53-.57,5.97-3.63,.37-2.62,.37-1.59,.84-.44,.56,1.38,1.86-.55,1.83-2.07h0Z"/>
      <path class="cls-2" d="M214.86,160.25c.51,1.64,2.24,2.37,3.6,.45,.65-.92,1.04-2.36,1.36-3.69,.52-2.19-.1-1.67-1.58-.54-1.18,.9-1.64,.77-1.93,.26-.31-.55-.74-1.28-1.17-.03-.4,1.14-.6,2.52-.28,3.55h0Z"/>
    </g>
    <g>
      <path class="cls-86" d="M216.13,180.8c-1.31-3.28-3.9-8.14-7.81-8.83-3.02-.54-2.03,.6-.29,1.88,4.67,3.43,3.67,2.31,8.1,6.95h0Z"/>
      <path class="cls-13" d="M216.13,180.8c-1.3-3.27-5.31-5.59-8.33-7.12,2.9,2.08,4.49,3.1,8.33,7.12h0Z"/>
    </g>
    <g>
      <path class="cls-67" d="M214.44,179.82c-.83,0-2.41,.13-1.23,1.33,1.65,1.67,1.97,2.85,1.97,5.35,0,1.92-.02,1.77-.08,3.01-.23,4.17-1.05,5.32-3.87,9.19-2.79,3.83-1.98,8.24,1.89,10.43,2.64,1.5,4.62,1.38,7.16-.33,3.4-2.29,4.01-6.46,1.36-10.1-2.79-3.83-3.62-4.99-3.86-9.05-.07-1.27-.09-1.16-.09-3.16,0-2.49,.33-3.67,1.97-5.35,1.18-1.2-.4-1.33-1.23-1.33h-3.98Z"/>
      <path class="cls-10" d="M215.57,181.44c-1.55,.01-1.6-1.1-.07-1.07,1.73,.03,1.59,1.06,.07,1.07h0Z"/>
      <path class="cls-10" d="M214.14,200.38c1.12-.53,1.72,.11,1.15,1.54-1.04,2.61-4.47,.04-1.15-1.54h0Z"/>
      <path class="cls-10" d="M212.9,198.6c.99-.4,1.81,.72,.23,1.1-.67,.16-1.25-.69-.23-1.1h0Z"/>
      <path class="cls-102" d="M209.89,205.38c.5,1.51,1.59,2.83,3.22,3.76,2.64,1.5,4.62,1.38,7.16-.33,3.41-2.29,4.01-6.46,1.36-10.1-2.32-3.18-3.28-4.52-3.68-7.22-.11,1.14,1.65,5.98,2.08,7.4,.74,2.45,.86,4.96-1.39,7.17-2.08,2.05-5.62,2.09-8.75-.68h0Z"/>
      <path class="cls-85" d="M213.02,209.08l.1,.06c2.64,1.5,4.62,1.38,7.16-.33,3.4-2.29,4.01-6.46,1.36-10.1l-.33-.46c1.62,3.08,2.6,9.63-4.35,11.22-1.32,.3-2.61,.08-3.93-.38h0Z"/>
    </g>
    <g>
      <path class="cls-57" d="M200.5,223.9h101.19c1.69,0,3.07,1.38,3.07,3.07v15.8c0,1.69-1.38,3.07-3.07,3.07h-101.19c-1.69,0-3.07-1.38-3.07-3.07v-15.8c0-1.69,1.38-3.07,3.07-3.07h0Z"/>
      <path class="cls-95" d="M301.86,223.9c1.61,.09,2.9,1.43,2.9,3.06v15.8c0,1.69-1.38,3.07-3.07,3.07h-101.19c-1.62,0-3.18-1.28-3.07-3.32,1.42,2.34,7.06,1.89,10.68,1.93,10.15,.09,69.08-.04,79.23-.08,16.7-.15,16.11,1.49,16.11-11.4,0-3.38,.36-7.93-1.6-9.06h0Z"/>
      <path class="cls-52" d="M250.17,225.97c18.63-.04,37.4,.09,42.48,.75,7.31,.95,8.42,4.08,5.75,6.28-12.95,10.69-83.57,10.65-96.46,0-2.67-2.2-1.56-5.34,5.75-6.28,5.08-.66,23.85-.78,42.48-.75h0Z"/>
      <g>
        <path class="cls-95" d="M250.52,231.62c1.98,0,3.58,1.6,3.58,3.58s-1.6,3.58-3.58,3.58-3.58-1.6-3.58-3.58,1.6-3.58,3.58-3.58h0Z"/>
        <path class="cls-109" d="M250.17,231.45c1.89,0,3.41,1.53,3.41,3.41s-1.53,3.41-3.41,3.41-3.41-1.53-3.41-3.41,1.53-3.41,3.41-3.41h0Z"/>
        <path class="cls-113" d="M246.76,234.66c.1-1.72,1.48-3.09,3.2-3.2,1.57,.1,2.82,1.41,2.82,3.01s-1.35,3.01-3.01,3.01-2.91-1.25-3-2.82h0Z"/>
        <path class="cls-52" d="M249.56,232.45c.95,0,1.73,.77,1.73,1.73s-.77,1.73-1.73,1.73-1.73-.77-1.73-1.73,.77-1.73,1.73-1.73h0Z"/>
      </g>
    </g>
    <g>
      <path class="cls-57" d="M200.5,248.56h101.19c1.69,0,3.07,1.38,3.07,3.07v15.8c0,1.69-1.38,3.07-3.07,3.07h-101.19c-1.69,0-3.07-1.38-3.07-3.07v-15.8c0-1.69,1.38-3.07,3.07-3.07h0Z"/>
      <path class="cls-95" d="M301.86,248.57c1.61,.09,2.9,1.43,2.9,3.06v15.8c0,1.69-1.38,3.07-3.07,3.07h-101.19c-1.62,0-3.18-1.28-3.07-3.32,1.42,2.34,7.06,1.89,10.68,1.93,10.15,.09,69.08-.04,79.23-.08,16.7-.15,16.11,1.49,16.11-11.4,0-3.38,.36-7.93-1.6-9.06h0Z"/>
      <path class="cls-52" d="M250.17,250.63c18.63-.04,37.4,.09,42.48,.75,7.31,.95,8.42,4.08,5.75,6.28-12.95,10.69-83.57,10.65-96.46,0-2.67-2.2-1.56-5.34,5.75-6.28,5.08-.66,23.85-.78,42.48-.75h0Z"/>
      <g>
        <path class="cls-95" d="M250.52,256.29c1.98,0,3.58,1.6,3.58,3.58s-1.6,3.58-3.58,3.58-3.58-1.6-3.58-3.58,1.6-3.58,3.58-3.58h0Z"/>
        <path class="cls-109" d="M250.17,256.12c1.89,0,3.41,1.53,3.41,3.41s-1.53,3.41-3.41,3.41-3.41-1.53-3.41-3.41,1.53-3.41,3.41-3.41h0Z"/>
        <path class="cls-113" d="M246.76,259.32c.1-1.72,1.48-3.09,3.2-3.2,1.57,.1,2.82,1.41,2.82,3.01s-1.35,3.01-3.01,3.01-2.91-1.24-3-2.82h0Z"/>
        <path class="cls-52" d="M249.56,257.11c.95,0,1.73,.77,1.73,1.73s-.77,1.73-1.73,1.73-1.73-.77-1.73-1.73,.77-1.73,1.73-1.73h0Z"/>
      </g>
    </g>
    <g>
      <path class="cls-99" d="M273.43,210.66v-23.82c0-1.7-1.12-1.49-2.31-1.53-1.26-.04-2.61-.24-2.61,1.43v23.91h4.92Z"/>
      <path class="cls-21" d="M273.43,210.66v-23.82c0-.75-.22-1.13-.56-1.32,.01,6.57,.18,13.48-.06,19.98-.09,2.45-.13,3.66-2.15,3.7-.73,.01-1.44,.06-2.15-.67v2.12h4.92Z"/>
      <path class="cls-81" d="M270.81,185.3c-1.16-.05-2.3-.1-2.3,1.45v18.54c1.26,1.03,2.91,.7,3.05-1.99,.08-1.59,.03-3.79,.03-6.02v-9.14c.01-1.66,.22-2.8-.77-2.84h0Z"/>
      <path class="cls-56" d="M269.04,189.62c.04-1.42,.08-2.15,.96-2.07,.79,.07,.81,.71,.89,2.03v11.38c0,1.34,.15,3.21-.95,3.13-1.1-.08-1-2.04-.98-3.44,.04-2.72,0-8.51,.07-11.04h0Z"/>
    </g>
    <g>
      <path class="cls-33" d="M260.99,210.5l7.4-21.86c.53-1.57-.61-1.74-1.75-2.17-1.2-.45-2.43-1.07-2.96,.48l-7.38,21.81c0,.25,.06,.37,.39,.47,1.22,.42,2.44,.84,3.66,1.25,.36,.12,.48,.13,.64,0h0Z"/>
      <path class="cls-30" d="M260.99,210.5l7.4-21.86c.23-.69,.14-1.11-.13-1.4-2.05,6.09-4.05,12.55-6.33,18.5-.86,2.23-1.27,3.35-3.22,2.73-.71-.23-1.41-.41-1.85-1.32l-.55,1.63c0,.25,.06,.37,.39,.47,1.22,.42,2.44,.84,3.66,1.25,.36,.12,.48,.13,.64,0h0Z"/>
      <path class="cls-75" d="M266.36,186.36c-1.1-.42-2.19-.84-2.67,.59l-5.82,17.18c.89,1.36,2.57,1.59,3.55-.85,.58-1.45,1.22-3.5,1.91-5.57l2.87-8.47c.53-1.53,1.09-2.52,.15-2.88h0Z"/>
      <path class="cls-62" d="M263.3,189.79c.49-1.3,.75-1.96,1.58-1.6,.74,.32,.55,.92,.22,2.18-1.19,3.51-2.38,7.03-3.57,10.54-.42,1.24-.86,3.02-1.9,2.6-1.04-.43-.32-2.22,.14-3.51,.89-2.5,2.66-7.88,3.53-10.21h0Z"/>
    </g>
    <path class="cls-12" d="M463.96,225.72h58.75c1.37,0,2.5,1.12,2.5,2.5v47.75c0,1.38-1.12,2.5-2.5,2.5h-58.75c-1.37,0-2.5-1.12-2.5-2.5v-47.75c0-1.38,1.12-2.5,2.5-2.5h0Z"/>
    <g>
      <path class="cls-114" d="M463.96,222.91h58.75c1.37,0,2.5,1.12,2.5,2.5v47.75c0,1.37-1.12,2.5-2.5,2.5h-58.75c-1.37,0-2.5-1.12-2.5-2.5v-47.75c0-1.38,1.12-2.5,2.5-2.5h0Z"/>
      <path class="cls-35" d="M525.21,225.41v47.75c0,1.37-1.12,2.5-2.5,2.5h-58.75c-1.37,0-2.5-1.12-2.5-2.5v-.87c.53,1.73,1.61,1.83,3.67,1.83h53.59c4.73,0,4.91-.12,4.91-5.05v-45.7c.68,.01,1.58,1.44,1.58,2.05h0Z"/>
      <path class="cls-38" d="M472.92,232.04h42.7c1.38,0,2.5,1.12,2.5,2.5v12.88c0,1.37-1.12,2.5-2.5,2.5h-42.7c-1.37,0-2.5-1.12-2.5-2.5v-12.88c0-1.37,1.12-2.5,2.5-2.5h0Z"/>
      <path class="cls-38" d="M472.92,254.5h42.7c1.38,0,2.5,1.12,2.5,2.5v12.88c0,1.37-1.12,2.5-2.5,2.5h-42.7c-1.37,0-2.5-1.12-2.5-2.5v-12.88c0-1.37,1.12-2.5,2.5-2.5h0Z"/>
    </g>
    <g>
      <path class="cls-65" d="M459.92,226.54c-2.36,0-2.36-5.37,0-5.37h66.84c2.36,0,2.36,5.37,0,5.37h-66.84Z"/>
      <path class="cls-132" d="M461.21,225.16c-1.84,0-1.84-2.62,0-2.62h52.19c1.84,0,1.84,2.62,0,2.62h-52.19Z"/>
      <polygon class="cls-131" points="459.92 221.16 474.06 216.41 512.61 216.41 526.75 221.16 459.92 221.16 459.92 221.16"/>
    </g>
    <path class="cls-40" d="M486.16,216.56c5.04,0,9.12,.77,9.12,1.71s-4.08,1.71-9.12,1.71-9.12-.77-9.12-1.71,4.08-1.71,9.12-1.71h0Z"/>
    <path class="cls-40" d="M507.74,216.97c3.95,0,7.14,.6,7.14,1.34s-3.2,1.34-7.14,1.34-7.14-.6-7.14-1.34,3.2-1.34,7.14-1.34h0Z"/>
    <g>
      <path class="cls-57" d="M471.98,231.04h42.7c1.38,0,2.5,1.12,2.5,2.5v12.87c0,1.38-1.12,2.5-2.5,2.5h-42.7c-1.38,0-2.5-1.12-2.5-2.5v-12.87c0-1.37,1.12-2.5,2.5-2.5h0Z"/>
      <path class="cls-95" d="M514.82,231.04c1.31,.07,2.36,1.17,2.36,2.5v12.87c0,1.38-1.12,2.5-2.5,2.5h-42.7c-1.32,0-2.59-1.04-2.5-2.7,1.16,1.91,5.75,1.54,8.71,1.57,8.27,.08,16.54-.04,24.81-.06,13.6-.12,13.12,1.22,13.12-9.29,0-2.75,.3-6.46-1.3-7.38h0Z"/>
      <path class="cls-52" d="M478.44,232.9c8.8,0,20.75-.62,28.89,.43,9.78,1.27,5.13,6.51-1.23,8.57-8.76,2.84-17.55,3.32-26.71,3.8-7.08,.37-6.51-1.91-6.69-7.55-.06-4.05,1.08-5.25,5.75-5.25h0Z"/>
      <g>
        <path class="cls-95" d="M493.62,237.33c1.61,0,2.92,1.31,2.92,2.92s-1.3,2.92-2.92,2.92-2.92-1.31-2.92-2.92,1.31-2.92,2.92-2.92h0Z"/>
        <path class="cls-109" d="M493.33,237.19c1.54,0,2.78,1.25,2.78,2.78s-1.25,2.78-2.78,2.78-2.78-1.25-2.78-2.78,1.25-2.78,2.78-2.78h0Z"/>
        <path class="cls-113" d="M490.56,239.8c.08-1.4,1.21-2.52,2.61-2.61,1.28,.08,2.3,1.15,2.3,2.45s-1.1,2.45-2.45,2.45-2.37-1.01-2.45-2.3h0Z"/>
        <path class="cls-52" d="M492.83,238c.78,0,1.41,.63,1.41,1.41s-.63,1.41-1.41,1.41-1.41-.63-1.41-1.41,.63-1.41,1.41-1.41h0Z"/>
      </g>
    </g>
    <g>
      <path class="cls-57" d="M471.98,253.29h42.7c1.38,0,2.5,1.12,2.5,2.5v12.87c0,1.38-1.12,2.5-2.5,2.5h-42.7c-1.38,0-2.5-1.12-2.5-2.5v-12.87c0-1.37,1.12-2.5,2.5-2.5h0Z"/>
      <path class="cls-95" d="M514.82,253.29c1.31,.07,2.36,1.17,2.36,2.5v12.87c0,1.38-1.12,2.5-2.5,2.5h-42.7c-1.32,0-2.59-1.04-2.5-2.71,1.16,1.91,5.75,1.54,8.71,1.57,8.27,.08,16.54-.04,24.81-.06,13.6-.13,13.12,1.22,13.12-9.29,0-2.75,.3-6.46-1.3-7.38h0Z"/>
      <path class="cls-52" d="M478.44,255.15c8.8,0,20.75-.62,28.89,.43,9.78,1.27,5.13,6.51-1.23,8.57-8.76,2.84-17.55,3.32-26.71,3.8-7.08,.37-6.51-1.91-6.69-7.55-.06-4.05,1.08-5.25,5.75-5.25h0Z"/>
      <g>
        <path class="cls-95" d="M493.62,259.37c1.61,0,2.92,1.31,2.92,2.92s-1.3,2.92-2.92,2.92-2.92-1.31-2.92-2.92,1.31-2.92,2.92-2.92h0Z"/>
        <path class="cls-109" d="M493.33,259.24c1.54,0,2.78,1.25,2.78,2.78s-1.25,2.78-2.78,2.78-2.78-1.25-2.78-2.78,1.25-2.78,2.78-2.78h0Z"/>
        <path class="cls-113" d="M490.56,261.85c.08-1.4,1.21-2.52,2.61-2.61,1.28,.08,2.3,1.15,2.3,2.45s-1.1,2.45-2.45,2.45-2.37-1.01-2.45-2.3h0Z"/>
        <path class="cls-52" d="M492.83,260.05c.78,0,1.41,.63,1.41,1.41s-.63,1.41-1.41,1.41-1.41-.63-1.41-1.41,.63-1.41,1.41-1.41h0Z"/>
      </g>
    </g>
    <g>
      <path class="cls-29" d="M475.42,217.51c-4.06-3.97-3.96-10.19,.64-14.96,5.12-.04,10.21-.04,15.34,0,4.6,4.76,4.7,10.98,.64,14.96-3.19,3.12-13.43,3.12-16.62,0h0Z"/>
      <path class="cls-54" d="M474.54,216.53c-3.13-3.96-2.71-9.59,1.52-13.97,4.79-.04,9.55-.04,14.33,0,7.94,12.32-7.45,20.24-15.85,13.98h0Z"/>
      <path class="cls-64" d="M476.01,203.07c3.12-.03,6.22-.03,9.33,0,4.48,5.05,1.11,11.02-5.49,10.83-6.23-.18-8.4-6.1-3.84-10.82h0Z"/>
      <path class="cls-29" d="M474.29,204.79c.37-.72,1.25-1.7,1.77-2.24,5.12-.04,10.21-.04,15.34,0,.54,.56,1.38,1.54,1.79,2.26-6.04,2.42-14.13,1.94-18.89-.03h0Z"/>
      <path class="cls-118" d="M472.68,203.39c-3.65-1.1-2.14-2.17-.85-5.52,1.57-4.09,3.27-7.54,4.88-11.41,1.49-3.57,1.69-3.61,7.02-3.57,5.47-.1,5.43,.06,7.02,3.57,1.73,3.82,3.31,7.32,4.88,11.41,1.29,3.35,2.76,4.28-.85,5.52-6.01,2.06-15.95,1.85-22.11,0h0Z"/>
      <path class="cls-9" d="M472.62,195.88c1.32-3.21,2.76-6.24,4.09-9.42,1.45-3.47,1.68-3.61,6.6-3.57,4,2.35,4.82,11.24,1.2,15.29-3.39,3.79-11.83,3.51-11.89-2.29h0Z"/>
      <path class="cls-61" d="M472.68,203.39c-1.11-.33-1.75-.67-2.05-1.06,4.38,1.75,14.73,2.46,18.94-.25,1.86-1.2,2.64-3.4,1.57-7.42-.79-3-1.09-5.78-2.08-8.45-.49-1.32-.86-2.72-1.97-3.28,2.21,.19,2.5,.97,3.66,3.53,1.73,3.82,3.31,7.32,4.88,11.41,1.29,3.35,2.76,4.28-.85,5.52-6.01,2.06-15.95,1.85-22.11,0h0Z"/>
    </g>
    <g>
      <g>
        <path class="cls-37" d="M511.99,205.62v12.65c0,1.57-11.51,1.55-11.51,0v-12.65c0-.93,2.88-.94,5.76-.94,2.88,0,5.75,.08,5.75,.94h0Z"/>
        <path class="cls-84" d="M504.15,205.92c3.54-.2,4.7,.13,3.96,4.01-.2,1.05-.63,2-1.24,2.9-.86,1.3-1.6,1.75-2.66,1.77-1.56,.04-2.09-2.53-2.25-4.8-.2-2.85,.24-3.77,2.18-3.88h0Z"/>
        <path class="cls-32" d="M511.99,205.62v12.65c0,1.57-11.51,1.55-11.51,0v-.2c2.24,.71,3.36,.66,5.9,.34,2.96-.37,3.76-1.59,4.4-5.32,.47-2.7,.4-5.33,.46-8.07,.25,.07,.42,.15,.55,.25,.14,.1,.22,.22,.2,.35h0Z"/>
        <path class="cls-16" d="M511.99,205.62v12.65c0,1.45-9.87,1.55-11.33,.32,2.93,.44,6.07,.85,8.92-.2,1.72-.64,1.79-1.4,1.97-3.46,.29-3.26,.23-6.39,.24-9.66,.14,.1,.22,.23,.2,.35h0Z"/>
        <path class="cls-32" d="M511.99,207.72c4.7,.33,4.97,7.5,0,8.11v-1.79c2.69-.38,2.85-4.25,0-4.6v-1.72h0Z"/>
        <path class="cls-16" d="M514.69,209.07c1.79,2.19,1.01,6.3-2.71,6.76v-1.27c3.02,.09,3.94-2.99,2.71-5.49h0Z"/>
      </g>
      <g>
        <path class="cls-5" d="M511.99,206.46v2.12c-3.62,.06-7.57-.05-11.51,.03v-2.12c3.88-.1,7.76-.07,11.51-.03h0Z"/>
        <path class="cls-136" d="M507.77,206.42c.45,.41,.62,1.08,.54,2.17-2.08,0-4.23-.03-6.38,0,.01-1.05,.19-1.73,.63-2.13,1.75-.03,3.49-.03,5.22-.02h0Z"/>
        <path class="cls-135" d="M511.99,206.46v2.12c-.27,0-.54,0-.82,.01,.02-.71,.03-1.42,.04-2.13h.78Z"/>
        <path class="cls-55" d="M511.99,206.46v2.12h-.21c0-.7,0-1.41,0-2.12h.21Z"/>
      </g>
      <g>
        <polygon class="cls-5" points="511.99 210.72 511.99 212.85 500.48 212.85 500.48 210.72 511.99 210.72 511.99 210.72"/>
        <path class="cls-136" d="M507.91,210.73c-.23,.74-.59,1.43-1.04,2.11v.02h-4.39c-.21-.63-.35-1.37-.44-2.12h5.86Z"/>
        <path class="cls-135" d="M511.99,210.72v2.13h-1.17c.11-.71,.19-1.42,.25-2.13h.93Z"/>
        <path class="cls-55" d="M511.99,210.72v2.13h-.3c.03-.71,.06-1.42,.07-2.13h.23Z"/>
      </g>
      <g>
        <path class="cls-5" d="M511.99,214.64v2.12c-3.75,.38-7.63,.42-11.51,0v-2.11c3.94,.52,7.9,.41,11.51,0h0Z"/>
        <path class="cls-135" d="M511.99,214.64v2.12c-.83,.08-1.67,.15-2.51,.2,.41-.53,.7-1.23,.94-2.16,.53-.05,1.05-.1,1.57-.16h0Z"/>
        <path class="cls-55" d="M511.99,214.64v2.12c-.24,.02-.47,.05-.71,.07,.14-.48,.2-1.09,.27-1.9l.02-.24,.42-.05h0Z"/>
      </g>
    </g>
  </g>
  <g id="wardrobe">
    <polygon class="cls-12" points="90.85 257.86 175.77 257.86 175.77 265.39 175.91 265.39 177.33 273.52 167.18 265.39 99.63 265.39 89.49 273.52 90.9 265.39 90.85 265.39 90.85 257.86 90.85 257.86"/>
    <g>
      <polygon class="cls-93" points="135.65 39.66 175.15 39.66 175.15 66.18 135.65 66.18 135.65 39.66 135.65 39.66"/>
      <path class="cls-72" d="M135.65,39.66h39.5v26.52h-2.8c-1.22-21.46-17.02-21.03-36.7-22.21v-4.31h0Z"/>
      <polygon class="cls-72" points="172.25 39.66 175.15 39.66 175.15 66.18 172.25 66.18 172.25 39.66 172.25 39.66"/>
      <polygon class="cls-72" points="135.65 39.66 138.54 39.66 138.54 66.18 135.65 66.18 135.65 39.66 135.65 39.66"/>
      <polygon class="cls-77" points="135.02 41.87 175.77 41.87 175.77 35.2 135.02 35.2 135.02 41.87 135.02 41.87"/>
    </g>
    <g>
      <polygon class="cls-93" points="91.52 33.54 131.02 33.54 131.02 60.06 91.52 60.06 91.52 33.54 91.52 33.54"/>
      <path class="cls-72" d="M91.52,33.54h39.5v26.52h-2.8c-6.1-19.59-18.27-20.03-36.7-22.21v-4.31h0Z"/>
      <polygon class="cls-72" points="128.13 33.54 131.02 33.54 131.02 60.06 128.13 60.06 128.13 33.54 128.13 33.54"/>
      <polygon class="cls-72" points="91.52 33.54 94.41 33.54 94.41 60.06 91.52 60.06 91.52 33.54 91.52 33.54"/>
      <polygon class="cls-77" points="90.9 35.74 131.65 35.74 131.65 29.08 90.9 29.08 90.9 35.74 90.9 35.74"/>
    </g>
    <polygon class="cls-59" points="81.18 65.55 185.42 65.55 185.42 67.18 81.18 67.18 81.18 65.55 81.18 65.55"/>
    <g>
      <path class="cls-48" d="M81.25,57.62h104.17v210.09c0,6.57,.59,6.44-4.24,6.44s-3.59,.31-4.66-4.86c-1.95-9.49-5.09-10.41-15.77-10.41h-54.65c-9.89,0-14.07,1.09-15.84,10.5-.92,4.91,.1,4.78-4.15,4.78-5.19,0-4.87,.8-4.87-5.38V57.62h0Z"/>
      <path class="cls-59" d="M130.46,258.87c-8.43,0-16.86-.06-25.29,0-9.22,.07-13.19,1.39-14.9,10.5-.92,4.91,.1,4.78-4.15,4.78-3.38,0-4.42,.34-4.74-1.13,1.36,.42,3.11,.64,4.68,.21,2.7-.74,2.65-5.6,3.6-8.3,2.16-6.18,5.33-6.58,11.71-7.27,3.83-.41,7.64-.16,11.73-.11,13.53,.02,27.06,.02,40.59,0,4.09-.06,7.9-.31,11.73,.11,6.39,.69,9.55,1.09,11.71,7.27,.95,2.71,.89,7.57,3.6,8.3,1.56,.43,3.32,.21,4.68-.21-.31,1.48-1.35,1.13-4.74,1.13-4.25,0-3.22,.14-4.15-4.78-1.7-9.03-5.62-10.4-14.67-10.49-10.47-.11-20.93,0-31.4,0h0Z"/>
    </g>
    <g>
      <path class="cls-48" d="M79.17,65.33c.3,.24,.88,.22,2.01,.22h104.15c2.16,0,2.17,.17,2.17-2.13v-11.76c-.25-.26-.7-.33-1.51-.33h-4.52c-1.07,0-1.13-.04-1.72,.53-15.34,14.75-26.87-13.99-46.26,4.63-19.15-18.4-30.64,9.43-45.7-4.12-1.15-1.03-.8-1.04-2.66-1.04h-4.13c-1.8,0-1.83,.08-1.83,2.05v11.33c0,.23,0,.43,0,.62h0Z"/>
      <path class="cls-124" d="M179.68,63.57c4.65,0,5.78,.48,5.8-1.86,0-.75,0-1.5,0-2.25,0-2.42,.28-4.45-2.82-4.27-3.6,0-3.79,1.85-6.16,2.93-3.71,1.7-8.64,3.04-17.5-.95-7.29-3.29-14.32-5.91-23.34,1.2-1.43,1.13-2.92,1.13-4.35,0-9.02-7.11-16.05-4.49-23.34-1.2-8.85,3.99-13.78,2.65-17.5,.95-2.37-1.08-2.56-2.93-6.16-2.93-3.1-.18-2.82,1.85-2.82,4.27,0,.75,0,1.5,0,2.25,.02,2.34,1.14,1.86,5.8,1.86h92.39Z"/>
    </g>
    <g>
      <path class="cls-59" d="M89,70.08h41.75c1.38,0,2.5,1.12,2.5,2.5V246.08c0,1.37-1.13,2.5-2.5,2.5h-41.75c-1.37,0-2.5-1.12-2.5-2.5V72.58c0-1.37,1.12-2.5,2.5-2.5h0Z"/>
      <path class="cls-124" d="M89,70.08h39.5c1.38,0,2.5,1.12,2.5,2.5V244.08c0,1.37-1.12,2.5-2.5,2.5h-39.5c-1.38,0-2.5-1.12-2.5-2.5V72.58c0-1.37,1.12-2.5,2.5-2.5h0Z"/>
      <path class="cls-6" d="M100.83,77.33h15.83c4.58,0,8.33,3.75,8.33,8.33V231c0,4.58-3.75,8.33-8.33,8.33h-15.83c-4.58,0-8.33-3.75-8.33-8.33V85.67c0-4.58,3.75-8.33,8.33-8.33h0Z"/>
      <g>
        <path class="cls-117" d="M125.48,151.48h0c.69,0,1.25,.56,1.25,1.25v11.2c0,1.65-2.5,1.65-2.5,0v-11.2c0-.69,.56-1.25,1.25-1.25h0Z"/>
        <path class="cls-59" d="M126.1,151.65v.02s0,11.2,0,11.2c0,.98-1.07,1.55-1.87,1.08v-.02s0-11.2,0-11.2c0-.98,1.07-1.55,1.88-1.08h0Z"/>
        <path class="cls-7" d="M125.41,152.68v6.98c0,.45-.68,.45-.68,0v-6.98c0-.45,.68-.45,.68,0h0Z"/>
      </g>
    </g>
    <g>
      <path class="cls-59" d="M138.17,70.08h41.71c1.38,0,2.5,1.12,2.5,2.5V246.08c0,1.37-1.12,2.5-2.5,2.5h-41.71c-1.37,0-2.5-1.12-2.5-2.5V72.58c0-1.37,1.12-2.5,2.5-2.5h0Z"/>
      <path class="cls-124" d="M138.17,70.08h39.5c1.38,0,2.5,1.12,2.5,2.5V244.08c0,1.37-1.12,2.5-2.5,2.5h-39.5c-1.37,0-2.5-1.12-2.5-2.5V72.58c0-1.37,1.12-2.5,2.5-2.5h0Z"/>
      <path class="cls-6" d="M150,77.33h15.83c4.58,0,8.33,3.75,8.33,8.33V231c0,4.58-3.75,8.33-8.33,8.33h-15.83c-4.58,0-8.33-3.75-8.33-8.33V85.67c0-4.58,3.75-8.33,8.33-8.33h0Z"/>
      <g>
        <path class="cls-117" d="M141.6,151.48h0c.69,0,1.25,.56,1.25,1.25v11.2c0,1.65-2.5,1.65-2.5,0v-11.2c0-.69,.56-1.25,1.25-1.25h0Z"/>
        <path class="cls-59" d="M142.23,151.65v.02s0,11.2,0,11.2c0,.98-1.07,1.55-1.88,1.08v-.02s0-11.2,0-11.2c0-.98,1.07-1.55,1.87-1.08h0Z"/>
        <path class="cls-7" d="M141.54,152.68v6.98c0,.45-.68,.45-.68,0v-6.98c0-.45,.68-.45,.68,0h0Z"/>
      </g>
    </g>
  </g>
  <g id="bed">
    <polygon class="cls-12" points="311.47 304.06 455.21 304.06 455.21 311.59 455.34 311.59 456.76 319.72 446.62 311.59 320.25 311.59 310.11 319.72 311.53 311.59 311.47 311.59 311.47 304.06 311.47 304.06"/>
    <path class="cls-46" d="M341.9,189.81c-5.29,2.73-6.8,5.15-5.12,12.37,1.91,8.17,3.81,17.46,5.73,25.63h88.63c1.92-8.16,3.83-17.46,5.73-25.63,1.68-7.22,.17-9.65-5.12-12.37-26.12-13.48-63.74-13.48-89.87,0h0Z"/>
    <path class="cls-46" d="M342.68,224.4c-3.03,3-6.42,7.3-9.9,12.31,30.87-4.69,80.69-.83,112.24,1.01-4.95-4.37-10.32-10.35-13.28-13.35-35.7-2.55-53.36-2.52-89.07,.02h0Z"/>
    <path class="cls-12" d="M295.8,289.2c-2.41,7.83-4.82,15.66-7.23,23.48-1.11,3.61-1.52,3.31-4.27,3.31h-54.47c-4.3,0-5.46-1.24-3.71-3.15,.16-.18,1.44-1.46,1.64-1.66,8.4-8.4,17.17-14.84,25.57-23.24,.96-.96,1.5-1.26,3.56-1.26,12.2,0,24.71-1.37,36.91-1.37,2.83,0,2.68,1.68,2,3.89h0Z"/>
    <path class="cls-50" d="M295,287.02c-2.41,7.83-4.82,15.66-7.23,23.48-1.11,3.61-1.52,3.31-4.27,3.31h-54.47c-4.7,0-4.04-.21-1.7-2.56,8.4-8.4,17.02-16.59,25.42-24.99,.96-.96,1.16-1.07,3.22-1.07h36.59c2.83,0,3.12-.38,2.44,1.83h0Z"/>
    <g>
      <path class="cls-73" d="M252,287.01l.75-.75c.96-.96,1.16-1.07,3.22-1.07h36.59c2.83,0,3.12-.38,2.44,1.82h-43Z"/>
      <path class="cls-73" d="M293.46,292.01l-1.54,5h-50.09c1.71-1.66,3.41-3.33,5.11-5h46.51Z"/>
      <path class="cls-73" d="M290.38,302.01l-1.54,5h-57.23c1.7-1.67,3.4-3.34,5.1-5h53.67Z"/>
      <path class="cls-73" d="M287.26,312.01c-.8,2.01-1.47,1.8-3.75,1.8h-54.47c-4.13,0-4.12-.16-2.46-1.8h60.69Z"/>
    </g>
    <g>
      <path class="cls-133" d="M361.18,176.71c-8.34,1.68-29.7,7.66-28.54,17.87h101.4c1.15-10.21-20.21-16.19-28.54-17.87-13.43-2.71-30.88-2.71-44.31,0h0Z"/>
      <path class="cls-53" d="M338.4,187.31c-5.29,2.73-6.8,5.15-5.12,12.37,1.91,8.17,3.81,17.46,5.73,25.63h88.63c1.92-8.16,3.83-17.46,5.73-25.63,1.68-7.22,.17-9.65-5.12-12.37-26.12-13.48-63.74-13.48-89.87,0h0Z"/>
      <path class="cls-103" d="M339.11,225.32h88.54c1.92-8.17,3.83-17.46,5.73-25.63,1.68-7.22,.17-9.65-5.12-12.37-1-.52-2.03-1.01-3.06-1.49,5.3,4.16,3.99,10.22,2.76,16.12-.75,3.62-1.63,6.75-2.38,10.37-2.33,11.24-18.08,9.51-28.75,9.56-19.78,.1-40.38,.1-57.72,3.44h0Z"/>
      <path class="cls-127" d="M381.21,217.74c-10.61,.73-35.94,2.96-39.05-8.04-3.37-11.92-2.06-14.84,3.5-19.5,12.81-10.76,33.06-9.38,48.87-5.73,15.17,3.5,15.34,10.26,10.98,19.22-6.47,13.31-10.55,13.1-24.3,14.05h0Z"/>
    </g>
    <path class="cls-103" d="M411.04,223.3c1.51,.11,3.02,.21,4.54,.32,.96-5.96-3.15-15.35-4.81-22.69,.16,7.23,.12,15.14,.28,22.37h0Z"/>
    <path class="cls-121" d="M338.8,224.4c-3.03,3-6.42,7.3-9.9,12.31l16.07-2.44,43.28-.94,39.69,1.56,9.46,1.33c-3.32-4.74-6.57-8.85-9.53-11.85-35.7-2.55-53.36-2.52-89.06,.02h0Z"/>
    <g>
      <path class="cls-53" d="M306.67,319.96c-3.84,.09-4.61-.07-4.66-3.25-.22-13.92-.45-27.83-.67-41.75-.08-4.98-.08-6.87,5.33-6.75,5.41-.12,5.41,1.77,5.33,6.75-.22,13.92-.45,27.83-.67,41.75-.05,3.18-.81,3.34-4.66,3.25h0Z"/>
      <path class="cls-103" d="M306.67,319.96c-3.39,.08-4.38-.04-4.61-2.25,2.87,1.45,7.01,.24,7.42-4.56,.87-10,1.09-19.42,1.21-29.26,.08-6.73,.85-13.6-1.68-15.57,3.06,.5,3.05,2.51,2.98,6.63-.22,13.92-.45,27.83-.67,41.75-.05,3.18-.81,3.34-4.66,3.25h0Z"/>
      <path class="cls-119" d="M309.11,277.47c.54,5.37-.05,13.26-.52,19.36-.91,11.82-4.29,11.79-5.3,2.92-.66-5.82-.48-15.92-.59-21.98-.19-10.27,5.52-9.31,6.42-.31h0Z"/>
    </g>
    <g>
      <path class="cls-53" d="M460,319.96c-3.84,.09-4.61-.07-4.66-3.25-.22-13.92-.45-27.83-.67-41.75-.08-4.98-.08-6.87,5.33-6.75,5.41-.12,5.41,1.77,5.33,6.75-.22,13.92-.45,27.83-.67,41.75-.05,3.18-.81,3.34-4.66,3.25h0Z"/>
      <path class="cls-103" d="M460,319.96c-3.39,.08-4.38-.04-4.6-2.25,2.87,1.45,7,.24,7.42-4.56,.87-10,1.09-19.42,1.21-29.26,.08-6.73,.85-13.6-1.68-15.57,3.06,.5,3.05,2.51,2.98,6.63-.22,13.92-.45,27.83-.67,41.75-.05,3.18-.81,3.34-4.66,3.25h0Z"/>
      <path class="cls-119" d="M462.44,277.47c.54,5.37-.05,13.26-.52,19.36-.91,11.82-4.29,11.79-5.3,2.92-.66-5.82-.48-15.92-.59-21.98-.19-10.27,5.52-9.31,6.42-.31h0Z"/>
    </g>
    <g>
      <path class="cls-128" d="M324.94,243.46c-2.14,.3-1.36-1.04-.23-2.82,1.98-3.11,3.12-6.54,7.1-7.12,25.2-3.65,77.84-3.65,103.05,0,3.98,.58,5.12,4.01,7.1,7.12,1.13,1.78,1.91,3.11-.23,2.82-34.16-4.74-82.63-4.74-116.79,0h0Z"/>
      <path class="cls-125" d="M324.94,243.46c-1.15,.16-1.45-.15-1.32-.75,.27-.49,3.1-.36,4.69-.54,21.94-2.46,44.11-3.22,66.19-3.14,10.12,.04,19.87,.38,31.14,1.21,3.66,.27,7.13,.75,10.15,.49,3.38-.29,3.45-1.5,2.68-3.29-1.53-3.56-3.96-3.6-7.82-4.46,1.47,.17,2.88,.35,4.2,.54,3.98,.58,5.12,4.01,7.1,7.12,1.13,1.78,1.91,3.11-.23,2.82-34.16-4.74-82.63-4.74-116.79,0h0Z"/>
    </g>
    <path class="cls-78" d="M410.95,232.94c2.3-2.91,2.15-6.97,4.63-9.37-1.51-.09-3.03-.17-4.54-.26-.03,3.21-.06,6.42-.09,9.64h0Z"/>
    <path class="cls-78" d="M404.8,199.88c6.49-.84,6.51,1.66,6.25,5.07-.31,4.03,1.21,6.95,1.54,11.09,.22,2.83,.12,6.31-.79,10.47-1.88,7.16,2.17,9.11-5.74,7.44-5.18-1.09-27.12,2.59-42.13,.25-3.08-.48-2.97-.99-6.12-.33-2.35,.49-5.46,.71-4-3.34,.73-2.04,.32-4.06-.34-6.95-2.09-9.19,.43-11.3,.02-19.56-.26-5.22,5.34-2.6,12.37-3.75,3-.49,5.78-.94,8.34-1.29,7.49-1.04,11.96-.85,19.37,.24,4.31,.63,7.02,1.22,11.22,.68h0Z"/>
    <g>
      <path class="cls-4" d="M405.17,198.38c6.49-.84,6.51,1.66,6.25,5.07-.31,4.03,1.21,6.95,1.54,11.09,.22,2.83,.12,6.31-.79,10.47-1.88,7.16,2.16,9.11-5.74,7.44-5.18-1.09-28.43,2.59-43.44,.25-3.08-.48-2.98-.99-6.12-.33-2.35,.49-5.46,.71-4-3.34,.73-2.04,.32-4.06-.34-6.95-2.09-9.19,.43-11.3,.02-19.56-.26-5.22,5.34-2.6,12.37-3.75,2.99-.49,5.78-.94,8.34-1.29,7.49-1.04,11.96-.85,19.37,.24,4.31,.63,8.33,1.22,12.53,.68h0Z"/>
      <path class="cls-126" d="M409.05,198.37c2.61,.55,2.58,2.57,2.38,5.08-.31,4.03,1.21,6.95,1.54,11.09,.22,2.83,.12,6.31-.79,10.47-1.88,7.16,2.16,9.11-5.74,7.44-5.18-1.09-28.43,2.59-43.44,.25-3.03-.47-2.98-.97-5.98-.36,5.72-2.66,9.74-.91,16.82-.72,2.94,.08,6.75-.09,10.46-.74,6.95-1.21,13.34-.72,19.66-1.7,2.66-.41,3.2-.67,4.23-4.47,.87-3.18,1.67-6.87,1.31-9.61-.6-4.6-2.49-6.04-.26-11.11,.79-1.79,1.43-4.36-.19-5.62h0Z"/>
      <path class="cls-128" d="M365.3,201.86c4.58-.49,8.12-1.08,12.43-1.31,4.21-.23,8.45,.05,12.57,.88,6.08,1.22,8.77,6.25,9.51,11.73,1.21,8.9-10.89,12.27-17.84,11.45-6.12-.72-13.58,1.1-17.92-1.23-9.4-5.05-6.26-20.71,1.24-21.52h0Z"/>
    </g>
  </g>
</svg>