<?xml version="1.0" encoding="UTF-8"?>
<svg id="Layer_2" data-name="Layer 2" xmlns="http://www.w3.org/2000/svg" viewBox="0 0 20.13 20.78">
  <defs>
    <style>
      .cls-1, .cls-2 {
        fill: #6a5c5c;
      }

      .cls-3, .cls-4 {
        fill: #b43c3c;
      }

      .cls-5, .cls-6 {
        fill: #dd5d5d;
      }

      .cls-6, .cls-4, .cls-7, .cls-2, .cls-8, .cls-9 {
        fill-rule: evenodd;
      }

      .cls-7 {
        fill: #fea4a4;
      }

      .cls-8 {
        fill: #ede2c6;
      }

      .cls-9 {
        fill: #fcf7ea;
      }
    </style>
  </defs>
  <g id="Layer_17" data-name="Layer 17">
    <g>
      <path class="cls-4" d="M3.39,16.92c-1.71,4.62-1.52,5.03,1.9,1.6-.43-.41-1.47-1.19-1.9-1.6h0Z"/>
      <path class="cls-4" d="M16.73,16.92c1.71,4.62,1.52,5.03-1.9,1.6,.43-.41,1.47-1.19,1.9-1.6h0Z"/>
      <path class="cls-4" d="M10.06,2.71c4.96,0,8.99,4.02,8.99,8.99s-4.02,8.99-8.99,8.99S1.07,16.67,1.07,11.7,5.1,2.71,10.06,2.71h0Z"/>
      <path class="cls-6" d="M3.6,5.45c-.52-.07-.87-.04-1.49,.27C.61,6.46-.03,5.91,0,4.93,.11,1.25,2.9-.11,5.24,0c1.72,.09,2.45,.68,1.5,2.13-.44,.67-.99,.99-1.02,1.69,1.29-.71,2.77-1.12,4.34-1.12s3.06,.41,4.34,1.12c-.02-.7-.57-1.02-1.02-1.69C12.44,.69,13.17,.09,14.89,0c2.34-.12,5.12,1.25,5.23,4.92,.03,.98-.61,1.53-2.11,.79-.62-.3-.97-.34-1.49-.27,.35,.36,.66,.74,.94,1.15,2.4,4.42,.8,9.07-2.24,11.54-3.69,3-9.53,2.97-13.07-2.16-.69-1.27-1.09-2.73-1.09-4.29,0-2.43,.96-4.63,2.53-6.25h0Z"/>
      <path class="cls-4" d="M17.92,.75c1.22,.75,2.14,2.09,2.21,4.18,.03,.98-.61,1.53-2.11,.79-.62-.3-.97-.34-1.49-.27l-1.21-.82c3.38,.62,4.82-.86,2.61-3.88h0Z"/>
      <path class="cls-8" d="M10.06,18.29c-3.64,0-6.59-2.95-6.59-6.58s2.95-6.58,6.59-6.58,6.59,2.95,6.59,6.58-2.95,6.58-6.59,6.58h0Z"/>
      <path class="cls-9" d="M6.03,16.91c-1.55-1.21-2.56-3.09-2.56-5.21,0-3.64,2.95-6.58,6.59-6.58,1.06,0,2.07,.25,2.96,.7,1.55,1.21,2.56,3.09,2.56,5.21,0,3.64-2.95,6.58-6.58,6.58-1.07,0-2.07-.25-2.96-.7h0Z"/>
      <path class="cls-2" d="M10.06,11.24c.26,0,.46,.21,.46,.46s-.21,.46-.46,.46-.46-.21-.46-.46,.21-.46,.46-.46h0Z"/>
      <path class="cls-5" d="M9.23,3.18c0,.46,.37,.83,.83,.83s.83-.37,.83-.83V1.8c0-.46-.37-.83-.83-.83s-.83,.37-.83,.83v1.38h0Z"/>
      <path class="cls-3" d="M8.64,.26c-.46,0-.83,.37-.83,.83s.37,.83,.83,.83h2.84c.46,0,.83-.37,.83-.83s-.37-.83-.83-.83h-2.84Z"/>
      <path class="cls-7" d="M2.98,2.93c-1.77,2.24-2.41,.29-1.33-1.05,1.15-1.43,2.7-.7,1.33,1.05h0Z"/>
      <path class="cls-7" d="M15.13,2.58c-2.42-1.51-.55-2.37,.9-1.43,1.54,.99,.99,2.61-.9,1.43h0Z"/>
      <path class="cls-1" d="M9.44,12.68c.21-.18,.24-.49,.06-.7-.18-.21-.49-.24-.7-.06l-2.58,2.19c-.21,.18-.24,.49-.06,.7,.18,.21,.49,.24,.7,.06l2.58-2.19h0Z"/>
      <path class="cls-1" d="M12.53,16.95c.1,.18,.32,.25,.5,.16,.18-.1,.25-.32,.16-.5l-2.21-4.23c-.1-.18-.32-.25-.5-.16-.18,.1-.25,.32-.16,.5l2.21,4.23h0Z"/>
      <path class="cls-4" d="M5.61,.03c.82,2.72-2.87,5.26-4.18,5.95,.21-.06,.44-.14,.69-.27,.62-.3,.97-.34,1.49-.27,1.25-.96,3.88-2.33,6.39-2.74-1.55,.01-3.01,.42-4.27,1.12,.02-.7,.58-1.01,1.02-1.69C7.61,.8,7.06,.19,5.61,.03h0Z"/>
      <path class="cls-2" d="M10.06,5.97c.28,0,.52,.23,.52,.51s-.23,.52-.52,.52-.52-.23-.52-.52,.23-.51,.52-.51h0Z"/>
      <path class="cls-2" d="M15.29,11.19c.28,0,.52,.23,.52,.52s-.23,.52-.52,.52-.52-.23-.52-.52,.23-.52,.52-.52h0Z"/>
      <path class="cls-2" d="M10.06,16.42c.28,0,.52,.23,.52,.52s-.23,.52-.52,.52-.52-.23-.52-.52,.23-.52,.52-.52h0Z"/>
      <path class="cls-2" d="M4.84,11.19c.28,0,.52,.23,.52,.52s-.23,.52-.52,.52-.52-.23-.52-.52,.23-.52,.52-.52h0Z"/>
    </g>
  </g>
</svg>