<?xml version="1.0" encoding="UTF-8"?>
<svg id="Layer_2" data-name="Layer 2" xmlns="http://www.w3.org/2000/svg" viewBox="0 0 373.2 255.12">
  <defs>
    <style>
      .cls-1 {
        fill: #fff;
      }

      .cls-2 {
        fill: #984232;
      }

      .cls-3 {
        fill: #ba4f3e;
      }

      .cls-4 {
        fill: #c4c6cb;
      }

      .cls-5 {
        fill: #d8675b;
      }

      .cls-6 {
        fill: #b4564a;
      }

      .cls-7 {
        fill: #242b3b;
      }
    </style>
  </defs>
  <g id="Capa_1" data-name="Capa 1">
    <g>
      <path class="cls-2" d="M341.78,175.35c-9.8,0-17.75,7.95-17.75,17.75s7.95,17.75,17.75,17.75,17.75-7.95,17.75-17.75-7.95-17.75-17.75-17.75Zm0,30c-6.77,0-12.25-5.48-12.25-12.25s5.48-12.25,12.25-12.25,12.25,5.48,12.25,12.25-5.49,12.25-12.25,12.25Z"/>
      <path class="cls-2" d="M314.78,187.16c-9.8,0-17.75,7.95-17.75,17.75s7.95,17.75,17.75,17.75,17.75-7.95,17.75-17.75-7.95-17.75-17.75-17.75Zm0,30c-6.77,0-12.25-5.48-12.25-12.25s5.48-12.25,12.25-12.25,12.25,5.48,12.25,12.25-5.49,12.25-12.25,12.25Z"/>
      <path class="cls-2" d="M311.19,15.23c-9.8,0-17.75,7.95-17.75,17.75s7.95,17.75,17.75,17.75,17.75-7.95,17.75-17.75-7.95-17.75-17.75-17.75Zm0,30c-6.77,0-12.25-5.48-12.25-12.25s5.48-12.25,12.25-12.25,12.25,5.48,12.25,12.25-5.49,12.25-12.25,12.25Z"/>
      <path class="cls-2" d="M341.78,26.52c-9.8,0-17.75,7.95-17.75,17.75s7.95,17.75,17.75,17.75,17.75-7.95,17.75-17.75-7.95-17.75-17.75-17.75Zm0,30c-6.77,0-12.25-5.48-12.25-12.25s5.48-12.25,12.25-12.25,12.25,5.48,12.25,12.25-5.49,12.25-12.25,12.25Z"/>
      <path class="cls-3" d="M325.76,58.1c-4.3-6.24-20.32-26.53-20.32-26.53,0,0-13.98-12.22-25.56-15.69-114.64-34.38-217.48-2.72-229.14,.44-11.66,3.14-25.5,15.78-25.5,15.78,0,0-15.93,20.35-20.21,26.61-4.29,6.26-6.99,15.54-3.3,23.35,3.7,7.81,23.37,17.15,39.15,20.25,15.78,3.1,21.66-11.77,21.66-11.77l5.49-21.12c0-3.9,12.04-18,12.04-18l85.3-.16,85.3-.16s12.11,14.05,12.11,17.95l5.56,21.09s5.94,14.84,21.71,11.68c15.77-3.16,35.4-12.57,39.07-20.39,3.67-7.81,.93-17.08-3.38-23.33Z"/>
      <path class="cls-2" d="M309.77,75.28c-8.59,4.72-17.76,8.52-27.12,11.46-4.51,1.42-9.46,3.08-14.27,3.47,.42,1,6.49,14.66,21.68,11.62,15.77-3.16,35.4-12.57,39.07-20.39,2.96-6.31,1.75-13.56-1.1-19.41-5.42,5.12-11.55,9.56-18.27,13.25Z"/>
      <path class="cls-2" d="M49.36,87.13c-9.47-1.64-18.66-4.33-27.45-8.21-7.78-3.43-14-8.46-20.13-13.97-2.06,5.39-2.64,11.61-.04,17.11,3.7,7.81,23.37,17.15,39.15,20.25,15.78,3.1,21.66-11.77,21.66-11.77l.47-1.8c-4.65-.26-9.25-.85-13.66-1.61Z"/>
      <path class="cls-5" d="M262.29,109.93c-4.74-4.75-31.45-51.15-31.45-51.15l-2.33-25.79h-20.1v25.79H125.81v-25.79h-20.09l-2.33,25.79s-26.71,46.41-31.45,51.15c-23.62,23.62-55.87,96.61-48.3,121.24l10.47,23.96H300.11l10.48-23.96c7.57-24.63-24.68-97.62-48.3-121.24Z"/>
      <path class="cls-6" d="M23.04,228.72c.16,.86,.36,1.68,.59,2.45l10.47,23.96H300.11l10.48-23.96c.24-.77,.43-1.58,.6-2.45H23.04Z"/>
      <g>
        <path class="cls-4" d="M236.51,147.28c0,33.46-30.56,60.59-68.24,60.59s-68.24-27.12-68.24-60.59,30.55-60.59,68.24-60.59,68.24,27.12,68.24,60.59Z"/>
        <path class="cls-1" d="M236.51,138.03c0,33.46-30.56,60.59-68.24,60.59s-68.24-27.13-68.24-60.59,30.55-60.59,68.24-60.59,68.24,27.13,68.24,60.59Z"/>
        <path class="cls-4" d="M208.02,138.03c0,19.49-17.8,35.29-39.76,35.29s-39.75-15.8-39.75-35.29,17.8-35.3,39.75-35.3,39.76,15.8,39.76,35.3Z"/>
        <path class="cls-5" d="M182.58,187.16c-3,0-5.76-1.74-6.66-4.42-1.09-3.26,1.02-6.7,4.7-7.66,.37-.1,.74-.2,1.11-.3,3.65-1.05,7.57,.72,8.76,3.96,1.19,3.24-.81,6.72-4.46,7.77-.49,.14-.98,.27-1.47,.4-.65,.18-1.32,.25-1.97,.25Zm-29.89-.33c-.7,0-1.42-.11-2.14-.3-.49-.14-.98-.29-1.46-.44-3.62-1.14-5.51-4.67-4.23-7.88,1.28-3.21,5.25-4.89,8.87-3.76,.37,.12,.73,.22,1.1,.33,3.65,1.05,5.65,4.53,4.47,7.77-.95,2.61-3.68,4.28-6.61,4.28Zm55.58-15.34c-1.48,0-2.97-.42-4.24-1.28-3.04-2.08-3.61-5.95-1.27-8.65,.23-.27,.46-.55,.69-.82,2.25-2.76,6.6-3.37,9.71-1.37,3.1,2.01,3.79,5.87,1.54,8.62-.31,.37-.61,.73-.92,1.09-1.37,1.58-3.43,2.41-5.51,2.41Zm-80.8-.93c-2.15,0-4.26-.88-5.62-2.54-.3-.36-.59-.73-.89-1.1-2.18-2.81-1.38-6.65,1.77-8.58,3.16-1.94,7.49-1.23,9.67,1.58,.22,.28,.45,.56,.68,.84,2.26,2.75,1.58,6.61-1.52,8.62-1.24,.79-2.67,1.18-4.09,1.18Zm91.22-25.17h-.19c-3.84-.09-6.87-2.92-6.76-6.32,.01-.35,.02-.7,.02-1.04v-.09c0-3.41,3.11-6.17,6.95-6.17s6.95,2.76,6.95,6.17v.03c0,.51,0,.97-.02,1.42-.1,3.35-3.19,6-6.94,6Zm-100.89-1.17c-3.83,0-6.95-2.74-6.95-6.15v-.04c0-.44,0-.88,.01-1.31,.1-3.41,3.29-6.09,7.12-6.01,3.84,.09,6.87,2.92,6.77,6.32,0,.33-.01,.66-.01,1,0,3.41-3.11,6.19-6.95,6.19Zm92-25.44c-2.2,0-4.37-.93-5.72-2.66-.22-.29-.45-.57-.68-.84-2.27-2.75-1.58-6.61,1.51-8.62,3.1-2.01,7.45-1.4,9.71,1.34,.3,.37,.6,.74,.88,1.12,2.19,2.8,1.39,6.64-1.76,8.58-1.21,.74-2.58,1.09-3.95,1.09Zm-82.41-.87c-1.42,0-2.84-.38-4.08-1.18-3.11-2-3.8-5.86-1.54-8.62,.3-.37,.61-.73,.92-1.1,2.33-2.7,6.7-3.21,9.74-1.13,3.04,2.08,3.62,5.95,1.28,8.65-.24,.27-.47,.55-.69,.82-1.36,1.67-3.48,2.55-5.63,2.55Zm57.66-15.96c-.76,0-1.55-.12-2.31-.36-.37-.11-.73-.22-1.1-.32-3.65-1.06-5.66-4.53-4.48-7.77,1.18-3.24,5.1-5.02,8.75-3.97,.49,.14,.98,.28,1.47,.44,3.61,1.13,5.52,4.66,4.23,7.87-1.01,2.54-3.69,4.12-6.55,4.12Zm-32.46-.35c-2.93,0-5.65-1.65-6.6-4.26-1.19-3.24,.8-6.72,4.45-7.78,.49-.14,.97-.27,1.46-.4,3.68-.97,7.55,.89,8.64,4.16,1.09,3.26-1,6.7-4.68,7.67-.38,.1-.74,.2-1.11,.3-.72,.21-1.44,.31-2.16,.31Z"/>
        <path class="cls-7" d="M214.97,147.28s29.87,4.58,38.21,17.47c8.34,12.89-14.19,25.68-14.19,25.68,0,0-43.62-48.3-24.03-43.15Z"/>
      </g>
      <path class="cls-2" d="M348.6,56.48c-9.8,0-17.75,7.95-17.75,17.75s7.95,17.75,17.75,17.75,17.75-7.95,17.75-17.75-7.95-17.75-17.75-17.75Zm0,30c-6.77,0-12.25-5.48-12.25-12.25s5.48-12.25,12.25-12.25,12.25,5.48,12.25,12.25-5.49,12.25-12.25,12.25Z"/>
      <path class="cls-2" d="M355.45,86.69c-9.8,0-17.75,7.95-17.75,17.75s7.95,17.75,17.75,17.75,17.75-7.95,17.75-17.75-7.95-17.75-17.75-17.75Zm0,30c-6.77,0-12.25-5.48-12.25-12.25s5.48-12.25,12.25-12.25,12.25,5.48,12.25,12.25-5.49,12.25-12.25,12.25Z"/>
      <path class="cls-2" d="M355.45,116.91c-9.8,0-17.75,7.95-17.75,17.75s7.95,17.75,17.75,17.75,17.75-7.95,17.75-17.75-7.95-17.75-17.75-17.75Zm0,30c-6.77,0-12.25-5.48-12.25-12.25s5.48-12.25,12.25-12.25,12.25,5.48,12.25,12.25-5.49,12.25-12.25,12.25Z"/>
      <path class="cls-2" d="M353.1,147.28c-9.8,0-17.75,7.95-17.75,17.75s7.95,17.75,17.75,17.75,17.75-7.95,17.75-17.75-7.95-17.75-17.75-17.75Zm0,30c-6.77,0-12.25-5.48-12.25-12.25s5.48-12.25,12.25-12.25,12.25,5.48,12.25,12.25-5.49,12.25-12.25,12.25Z"/>
    </g>
  </g>
</svg>