<svg width="592" height="1051" viewBox="0 0 592 1051" fill="none" xmlns="http://www.w3.org/2000/svg">
<g filter="url(#filter0_d_509_5012)">
<g clip-path="url(#clip0_509_5012)">
<rect x="129" y="72" width="393.652" height="852.388" rx="53.5367" fill="#2C2B78"/>
<g clip-path="url(#clip1_509_5012)">
<rect width="390" height="844" transform="translate(129 72)" fill="white"/>
<path d="M177.2 156.2C178.427 156.2 179.467 156.093 180.32 155.88C181.173 155.667 181.907 155.373 182.52 155L183.64 159C183 159.373 182.093 159.707 180.92 160C179.747 160.293 178.32 160.44 176.64 160.44C174.747 160.44 173 160.147 171.4 159.56C169.8 158.947 168.413 158.08 167.24 156.96C166.093 155.813 165.2 154.44 164.56 152.84C163.92 151.213 163.6 149.387 163.6 147.36C163.6 145.387 163.907 143.6 164.52 142C165.16 140.4 166.04 139.04 167.16 137.92C168.307 136.773 169.693 135.893 171.32 135.28C172.947 134.667 174.76 134.36 176.76 134.36C178.467 134.36 179.867 134.52 180.96 134.84C182.08 135.16 182.987 135.507 183.68 135.88L182.44 139.92C181.747 139.547 180.973 139.24 180.12 139C179.293 138.733 178.36 138.6 177.32 138.6C176.227 138.6 175.2 138.76 174.24 139.08C173.28 139.4 172.44 139.92 171.72 140.64C171 141.333 170.427 142.24 170 143.36C169.6 144.453 169.4 145.787 169.4 147.36C169.4 148.88 169.6 150.2 170 151.32C170.4 152.413 170.947 153.32 171.64 154.04C172.36 154.76 173.187 155.307 174.12 155.68C175.08 156.027 176.107 156.2 177.2 156.2ZM187.142 142.6C188.289 141.933 189.502 141.427 190.782 141.08C192.062 140.707 193.422 140.52 194.862 140.52C196.009 140.52 197.049 140.653 197.982 140.92C198.942 141.187 199.755 141.613 200.422 142.2C201.115 142.76 201.635 143.493 201.982 144.4C202.355 145.28 202.542 146.347 202.542 147.6V160H198.422L197.942 158.04H197.782C197.169 158.787 196.382 159.373 195.422 159.8C194.489 160.227 193.395 160.44 192.142 160.44C191.102 160.44 190.182 160.293 189.382 160C188.582 159.68 187.902 159.267 187.342 158.76C186.782 158.227 186.355 157.6 186.062 156.88C185.795 156.16 185.662 155.387 185.662 154.56C185.662 153.467 185.889 152.533 186.342 151.76C186.822 150.96 187.475 150.307 188.302 149.8C189.129 149.293 190.089 148.92 191.182 148.68C192.302 148.44 193.502 148.32 194.782 148.32H197.182V147.16C197.182 146.28 196.902 145.64 196.342 145.24C195.809 144.813 195.049 144.6 194.062 144.6C193.289 144.6 192.489 144.72 191.662 144.96C190.862 145.2 189.969 145.587 188.982 146.12L187.142 142.6ZM197.222 151.64L195.502 151.68C193.875 151.733 192.742 152.013 192.102 152.52C191.462 153 191.142 153.587 191.142 154.28C191.142 155.187 191.409 155.813 191.942 156.16C192.502 156.48 193.129 156.64 193.822 156.64C194.515 156.64 195.169 156.44 195.782 156.04C196.422 155.64 196.902 155.173 197.222 154.64V151.64ZM207.607 160V131.44H212.847V160H207.607ZM234.798 151.84H222.118V152C222.118 153.52 222.652 154.653 223.718 155.4C224.785 156.147 226.158 156.52 227.838 156.52C228.905 156.52 229.838 156.413 230.638 156.2C231.465 155.987 232.212 155.733 232.878 155.44L233.838 159.16C233.118 159.507 232.212 159.8 231.118 160.04C230.025 160.307 228.732 160.44 227.238 160.44C225.798 160.44 224.438 160.253 223.158 159.88C221.905 159.48 220.798 158.88 219.838 158.08C218.905 157.28 218.158 156.267 217.598 155.04C217.038 153.813 216.758 152.347 216.758 150.64C216.758 149.12 216.985 147.747 217.438 146.52C217.892 145.267 218.532 144.2 219.358 143.32C220.212 142.44 221.225 141.76 222.398 141.28C223.572 140.773 224.878 140.52 226.318 140.52C228.905 140.52 230.958 141.307 232.478 142.88C234.025 144.453 234.798 146.653 234.798 149.48V151.84ZM229.358 148.2C229.358 147.693 229.292 147.2 229.158 146.72C229.052 146.24 228.865 145.827 228.598 145.48C228.332 145.107 227.998 144.813 227.598 144.6C227.198 144.387 226.705 144.28 226.118 144.28C225.052 144.28 224.172 144.64 223.478 145.36C222.785 146.08 222.372 147.053 222.238 148.28L229.358 148.2ZM243.861 160H238.541V140.92H242.701L243.341 143.36C244.221 142.453 245.181 141.76 246.221 141.28C247.287 140.773 248.461 140.52 249.741 140.52C251.847 140.52 253.461 141.093 254.581 142.24C255.701 143.387 256.261 145.053 256.261 147.24V160H250.941V147.8C250.941 146.813 250.701 146.04 250.221 145.48C249.741 144.893 249.034 144.6 248.101 144.6C247.407 144.6 246.674 144.8 245.901 145.2C245.154 145.573 244.474 146.093 243.861 146.76V160ZM273.439 131.44H278.759V160H274.959L274.399 157.92H274.199C273.719 158.587 273.025 159.173 272.119 159.68C271.239 160.187 270.079 160.44 268.639 160.44C267.439 160.44 266.319 160.213 265.279 159.76C264.239 159.307 263.332 158.653 262.559 157.8C261.785 156.947 261.172 155.907 260.719 154.68C260.292 153.453 260.079 152.053 260.079 150.48C260.079 148.96 260.279 147.587 260.679 146.36C261.079 145.133 261.652 144.093 262.399 143.24C263.145 142.36 264.065 141.693 265.159 141.24C266.252 140.76 267.505 140.52 268.919 140.52C269.825 140.52 270.679 140.653 271.479 140.92C272.305 141.187 272.959 141.533 273.439 141.96V131.44ZM273.439 145.92C273.092 145.493 272.639 145.133 272.079 144.84C271.519 144.547 270.905 144.4 270.239 144.4C269.599 144.4 268.985 144.507 268.399 144.72C267.839 144.933 267.332 145.28 266.879 145.76C266.452 146.213 266.105 146.827 265.839 147.6C265.572 148.347 265.439 149.267 265.439 150.36C265.439 151.427 265.559 152.347 265.799 153.12C266.039 153.893 266.359 154.533 266.759 155.04C267.159 155.547 267.625 155.92 268.159 156.16C268.719 156.4 269.305 156.52 269.919 156.52C270.772 156.52 271.492 156.32 272.079 155.92C272.692 155.493 273.145 155 273.439 154.44V145.92ZM283.978 142.6C285.124 141.933 286.338 141.427 287.618 141.08C288.898 140.707 290.258 140.52 291.698 140.52C292.844 140.52 293.884 140.653 294.818 140.92C295.778 141.187 296.591 141.613 297.258 142.2C297.951 142.76 298.471 143.493 298.818 144.4C299.191 145.28 299.378 146.347 299.378 147.6V160H295.258L294.778 158.04H294.618C294.004 158.787 293.218 159.373 292.258 159.8C291.324 160.227 290.231 160.44 288.978 160.44C287.938 160.44 287.018 160.293 286.218 160C285.418 159.68 284.738 159.267 284.178 158.76C283.618 158.227 283.191 157.6 282.898 156.88C282.631 156.16 282.498 155.387 282.498 154.56C282.498 153.467 282.724 152.533 283.178 151.76C283.658 150.96 284.311 150.307 285.138 149.8C285.964 149.293 286.924 148.92 288.018 148.68C289.138 148.44 290.338 148.32 291.618 148.32H294.018V147.16C294.018 146.28 293.738 145.64 293.178 145.24C292.644 144.813 291.884 144.6 290.898 144.6C290.124 144.6 289.324 144.72 288.498 144.96C287.698 145.2 286.804 145.587 285.818 146.12L283.978 142.6ZM294.058 151.64L292.338 151.68C290.711 151.733 289.578 152.013 288.938 152.52C288.298 153 287.978 153.587 287.978 154.28C287.978 155.187 288.244 155.813 288.778 156.16C289.338 156.48 289.964 156.64 290.658 156.64C291.351 156.64 292.004 156.44 292.618 156.04C293.258 155.64 293.738 155.173 294.058 154.64V151.64ZM303.892 160V140.92H308.012L308.612 144.36C309.066 143.347 309.786 142.453 310.772 141.68C311.759 140.907 312.999 140.52 314.492 140.52C315.106 140.52 315.652 140.587 316.132 140.72C316.612 140.853 317.012 141.013 317.332 141.2L316.452 145.4C316.159 145.24 315.786 145.107 315.332 145C314.879 144.867 314.346 144.8 313.732 144.8C312.426 144.8 311.332 145.24 310.452 146.12C309.599 146.973 309.172 148.387 309.172 150.36V160H303.892Z" fill="black"/>
<mask id="mask0_509_5012" style="mask-type:alpha" maskUnits="userSpaceOnUse" x="154" y="839" width="40" height="40">
<rect x="154" y="839" width="40" height="40" fill="#D9D9D9"/>
</mask>
<g mask="url(#mask0_509_5012)">
<path d="M160.667 874V854L174 844L187.333 854V874H177.333V862.333H170.667V874H160.667ZM164 870.667H167.333V859H180.667V870.667H184V855.667L174 848.167L164 855.667V870.667Z" fill="#1C1B1F"/>
</g>
<mask id="mask1_509_5012" style="mask-type:alpha" maskUnits="userSpaceOnUse" x="354" y="839" width="40" height="40">
<rect x="354" y="839" width="40" height="40" fill="#D9D9D9"/>
</mask>
<g mask="url(#mask1_509_5012)">
<path d="M369.417 875.667L368.75 870.333C368.389 870.194 368.049 870.028 367.73 869.833C367.41 869.639 367.097 869.431 366.792 869.208L361.833 871.292L357.25 863.375L361.542 860.125C361.514 859.931 361.5 859.743 361.5 859.562V858.437C361.5 858.257 361.514 858.069 361.542 857.875L357.25 854.625L361.833 846.708L366.792 848.792C367.097 848.569 367.417 848.361 367.75 848.167C368.083 847.972 368.417 847.806 368.75 847.667L369.417 842.333H378.583L379.25 847.667C379.611 847.806 379.952 847.972 380.272 848.167C380.591 848.361 380.903 848.569 381.208 848.792L386.167 846.708L390.75 854.625L386.458 857.875C386.486 858.069 386.5 858.257 386.5 858.437V859.562C386.5 859.743 386.472 859.931 386.417 860.125L390.708 863.375L386.125 871.292L381.208 869.208C380.903 869.431 380.583 869.639 380.25 869.833C379.917 870.028 379.583 870.194 379.25 870.333L378.583 875.667H369.417ZM374.083 864.833C375.694 864.833 377.069 864.264 378.208 863.125C379.347 861.986 379.917 860.611 379.917 859C379.917 857.389 379.347 856.014 378.208 854.875C377.069 853.736 375.694 853.167 374.083 853.167C372.444 853.167 371.062 853.736 369.937 854.875C368.812 856.014 368.25 857.389 368.25 859C368.25 860.611 368.812 861.986 369.937 863.125C371.062 864.264 372.444 864.833 374.083 864.833ZM374.083 861.5C373.389 861.5 372.799 861.257 372.313 860.77C371.827 860.284 371.583 859.694 371.583 859C371.583 858.306 371.827 857.716 372.313 857.23C372.799 856.743 373.389 856.5 374.083 856.5C374.778 856.5 375.368 856.743 375.855 857.23C376.341 857.716 376.583 858.306 376.583 859C376.583 859.694 376.341 860.284 375.855 860.77C375.368 861.257 374.778 861.5 374.083 861.5ZM372.333 872.333H375.625L376.208 867.917C377.069 867.694 377.868 867.368 378.605 866.937C379.341 866.507 380.014 865.986 380.625 865.375L384.75 867.083L386.375 864.25L382.792 861.542C382.931 861.153 383.028 860.743 383.083 860.312C383.139 859.882 383.167 859.444 383.167 859C383.167 858.556 383.139 858.118 383.083 857.687C383.028 857.257 382.931 856.847 382.792 856.458L386.375 853.75L384.75 850.917L380.625 852.667C380.014 852.028 379.341 851.493 378.605 851.062C377.868 850.632 377.069 850.306 376.208 850.083L375.667 845.667H372.375L371.792 850.083C370.931 850.306 370.132 850.632 369.397 851.062C368.66 851.493 367.986 852.014 367.375 852.625L363.25 850.917L361.625 853.75L365.208 856.417C365.069 856.833 364.972 857.25 364.917 857.667C364.861 858.083 364.833 858.528 364.833 859C364.833 859.444 364.861 859.875 364.917 860.292C364.972 860.708 365.069 861.125 365.208 861.542L361.625 864.25L363.25 867.083L367.375 865.333C367.986 865.972 368.66 866.507 369.397 866.937C370.132 867.368 370.931 867.694 371.792 867.917L372.333 872.333Z" fill="#1C1B1F"/>
</g>
<mask id="mask2_509_5012" style="mask-type:alpha" maskUnits="userSpaceOnUse" x="254" y="839" width="40" height="40">
<rect x="254" y="839" width="40" height="40" fill="#D9D9D9"/>
</mask>
<g mask="url(#mask2_509_5012)">
<path d="M278.167 869C277 869 276.014 868.597 275.208 867.792C274.403 866.986 274 866 274 864.833C274 863.667 274.403 862.681 275.208 861.875C276.014 861.069 277 860.667 278.167 860.667C279.333 860.667 280.319 861.069 281.125 861.875C281.931 862.681 282.333 863.667 282.333 864.833C282.333 866 281.931 866.986 281.125 867.792C280.319 868.597 279.333 869 278.167 869ZM262.333 875.667C261.417 875.667 260.632 875.341 259.978 874.688C259.326 874.035 259 873.25 259 872.333V849C259 848.083 259.326 847.299 259.978 846.647C260.632 845.993 261.417 845.667 262.333 845.667H264V842.333H267.333V845.667H280.667V842.333H284V845.667H285.667C286.583 845.667 287.368 845.993 288.022 846.647C288.674 847.299 289 848.083 289 849V872.333C289 873.25 288.674 874.035 288.022 874.688C287.368 875.341 286.583 875.667 285.667 875.667H262.333ZM262.333 872.333H285.667V855.667H262.333V872.333ZM262.333 852.333H285.667V849H262.333V852.333Z" fill="#1C1B1F"/>
</g>
<mask id="mask3_509_5012" style="mask-type:alpha" maskUnits="userSpaceOnUse" x="454" y="839" width="40" height="40">
<rect x="454" y="839" width="40" height="40" fill="#D9D9D9"/>
</mask>
<g mask="url(#mask3_509_5012)">
<path d="M463.75 867.5C465.167 866.417 466.75 865.562 468.5 864.937C470.25 864.312 472.083 864 474 864C475.917 864 477.75 864.312 479.5 864.937C481.25 865.562 482.833 866.417 484.25 867.5C485.222 866.361 485.979 865.069 486.522 863.625C487.063 862.181 487.333 860.639 487.333 859C487.333 855.306 486.035 852.159 483.438 849.562C480.841 846.965 477.694 845.667 474 845.667C470.306 845.667 467.16 846.965 464.563 849.562C461.966 852.159 460.667 855.306 460.667 859C460.667 860.639 460.938 862.181 461.48 863.625C462.021 865.069 462.778 866.361 463.75 867.5ZM474 860.667C472.361 860.667 470.979 860.104 469.853 858.98C468.729 857.854 468.167 856.472 468.167 854.833C468.167 853.194 468.729 851.812 469.853 850.687C470.979 849.562 472.361 849 474 849C475.639 849 477.021 849.562 478.147 850.687C479.271 851.812 479.833 853.194 479.833 854.833C479.833 856.472 479.271 857.854 478.147 858.98C477.021 860.104 475.639 860.667 474 860.667ZM474 875.667C471.694 875.667 469.528 875.229 467.5 874.353C465.472 873.479 463.708 872.292 462.208 870.792C460.708 869.292 459.521 867.528 458.647 865.5C457.771 863.472 457.333 861.306 457.333 859C457.333 856.694 457.771 854.528 458.647 852.5C459.521 850.472 460.708 848.708 462.208 847.208C463.708 845.708 465.472 844.521 467.5 843.645C469.528 842.771 471.694 842.333 474 842.333C476.306 842.333 478.472 842.771 480.5 843.645C482.528 844.521 484.292 845.708 485.792 847.208C487.292 848.708 488.479 850.472 489.353 852.5C490.229 854.528 490.667 856.694 490.667 859C490.667 861.306 490.229 863.472 489.353 865.5C488.479 867.528 487.292 869.292 485.792 870.792C484.292 872.292 482.528 873.479 480.5 874.353C478.472 875.229 476.306 875.667 474 875.667ZM474 872.333C475.472 872.333 476.861 872.118 478.167 871.688C479.472 871.257 480.667 870.639 481.75 869.833C480.667 869.028 479.472 868.409 478.167 867.978C476.861 867.548 475.472 867.333 474 867.333C472.528 867.333 471.139 867.548 469.833 867.978C468.528 868.409 467.333 869.028 466.25 869.833C467.333 870.639 468.528 871.257 469.833 871.688C471.139 872.118 472.528 872.333 474 872.333ZM474 857.333C474.722 857.333 475.319 857.097 475.792 856.625C476.264 856.153 476.5 855.556 476.5 854.833C476.5 854.111 476.264 853.514 475.792 853.042C475.319 852.569 474.722 852.333 474 852.333C473.278 852.333 472.681 852.569 472.208 853.042C471.736 853.514 471.5 854.111 471.5 854.833C471.5 855.556 471.736 856.153 472.208 856.625C472.681 857.097 473.278 857.333 474 857.333Z" fill="#1C1B1F"/>
</g>
<path fill-rule="evenodd" clip-rule="evenodd" d="M274 908L281 920H267L274 908Z" fill="#B72424"/>
<rect x="446" y="281" width="40" height="72" rx="18" fill="#E9EDC9"/>
<path d="M459.418 304.994L458.379 304.365C457.727 303.969 457.262 303.579 456.984 303.196C456.711 302.809 456.574 302.365 456.574 301.863C456.574 301.111 456.834 300.501 457.354 300.031C457.878 299.562 458.557 299.327 459.391 299.327C460.188 299.327 460.92 299.55 461.585 299.997V301.549C460.897 300.888 460.156 300.558 459.363 300.558C458.917 300.558 458.55 300.662 458.263 300.872C457.976 301.077 457.832 301.341 457.832 301.665C457.832 301.952 457.937 302.221 458.146 302.472C458.356 302.722 458.696 302.984 459.165 303.258L460.211 303.873C461.378 304.566 461.961 305.45 461.961 306.525C461.961 307.291 461.703 307.913 461.188 308.392C460.678 308.87 460.013 309.109 459.192 309.109C458.249 309.109 457.39 308.82 456.615 308.241V306.505C457.354 307.439 458.208 307.906 459.179 307.906C459.607 307.906 459.963 307.788 460.245 307.551C460.532 307.309 460.676 307.008 460.676 306.648C460.676 306.065 460.257 305.514 459.418 304.994ZM467.3 309V308.2C467.035 308.487 466.732 308.711 466.391 308.87C466.053 309.03 465.716 309.109 465.379 309.109C464.982 309.109 464.616 309.011 464.278 308.815C463.946 308.615 463.693 308.346 463.52 308.009C463.351 307.667 463.267 307.102 463.267 306.313V302.711H464.511V306.3C464.511 306.961 464.604 307.423 464.791 307.688C464.982 307.947 465.315 308.077 465.789 308.077C466.382 308.077 466.885 307.788 467.3 307.209V302.711H468.544V309H467.3ZM471.538 302.711V303.511C472.094 302.896 472.725 302.588 473.432 302.588C473.824 302.588 474.188 302.69 474.525 302.896C474.863 303.096 475.118 303.374 475.291 303.729C475.469 304.08 475.558 304.639 475.558 305.404V309H474.313V305.418C474.313 304.775 474.215 304.317 474.02 304.044C473.824 303.766 473.495 303.627 473.035 303.627C472.447 303.627 471.948 303.921 471.538 304.509V309H470.267V302.711H471.538Z" fill="white"/>
<path d="M463.555 322.327C464.43 322.327 465.152 322.787 465.722 323.708C466.296 324.624 466.583 325.788 466.583 327.201C466.583 328.65 466.296 329.828 465.722 330.735C465.152 331.642 464.411 332.096 463.5 332.096C462.575 332.096 461.832 331.651 461.271 330.763C460.711 329.874 460.431 328.696 460.431 327.229C460.431 325.779 460.72 324.601 461.299 323.694C461.878 322.783 462.63 322.327 463.555 322.327ZM463.568 323.626H463.5C462.976 323.626 462.559 323.95 462.249 324.597C461.944 325.239 461.791 326.112 461.791 327.215C461.791 328.345 461.941 329.231 462.242 329.874C462.543 330.517 462.958 330.838 463.486 330.838C464.015 330.838 464.432 330.517 464.737 329.874C465.043 329.231 465.195 328.359 465.195 327.256C465.195 326.148 465.047 325.267 464.751 324.61C464.459 323.954 464.065 323.626 463.568 323.626ZM468.415 322.45H472.653V323.667H469.659V326.08C469.755 326.071 469.853 326.066 469.953 326.066C470.878 326.066 471.639 326.349 472.236 326.914C472.833 327.475 473.132 328.19 473.132 329.061C473.132 329.958 472.836 330.69 472.243 331.255C471.655 331.815 470.892 332.096 469.953 332.096C469.178 332.096 468.426 331.909 467.697 331.535V330.127C468.385 330.574 469.058 330.797 469.714 330.797C470.288 330.797 470.769 330.631 471.156 330.298C471.548 329.961 471.744 329.548 471.744 329.061C471.744 328.555 471.532 328.133 471.108 327.796C470.685 327.454 470.156 327.283 469.522 327.283C468.98 327.283 468.611 327.329 468.415 327.42V322.45Z" fill="white"/>
<rect x="396" y="282" width="40" height="72" rx="18" fill="#E9EDC9"/>
<rect x="156" y="281" width="40" height="72" rx="18" fill="#E9EDC9"/>
<rect x="204" y="281" width="40" height="72" rx="18" fill="#E9EDC9"/>
<rect x="252" y="281" width="40" height="72" rx="18" fill="#E9EDC9"/>
<path d="M411.418 304.994L410.379 304.365C409.727 303.969 409.262 303.579 408.984 303.196C408.711 302.809 408.574 302.365 408.574 301.863C408.574 301.111 408.834 300.501 409.354 300.031C409.878 299.562 410.557 299.327 411.391 299.327C412.188 299.327 412.92 299.55 413.585 299.997V301.549C412.897 300.888 412.156 300.558 411.363 300.558C410.917 300.558 410.55 300.662 410.263 300.872C409.976 301.077 409.832 301.341 409.832 301.665C409.832 301.952 409.937 302.221 410.146 302.472C410.356 302.722 410.696 302.984 411.165 303.258L412.211 303.873C413.378 304.566 413.961 305.45 413.961 306.525C413.961 307.291 413.703 307.913 413.188 308.392C412.678 308.87 412.013 309.109 411.192 309.109C410.249 309.109 409.39 308.82 408.615 308.241V306.505C409.354 307.439 410.208 307.906 411.179 307.906C411.607 307.906 411.963 307.788 412.245 307.551C412.532 307.309 412.676 307.008 412.676 306.648C412.676 306.065 412.257 305.514 411.418 304.994ZM419.245 305.22V307.893C419.245 308.107 419.318 308.214 419.464 308.214C419.614 308.214 419.849 308.102 420.168 307.879V308.638C419.885 308.82 419.658 308.943 419.484 309.007C419.316 309.075 419.138 309.109 418.951 309.109C418.418 309.109 418.104 308.9 418.008 308.48C417.479 308.891 416.916 309.096 416.319 309.096C415.882 309.096 415.517 308.952 415.226 308.665C414.934 308.373 414.788 308.009 414.788 307.571C414.788 307.175 414.929 306.822 415.212 306.512C415.499 306.197 415.905 305.949 416.429 305.767L418.021 305.22V304.885C418.021 304.128 417.643 303.75 416.887 303.75C416.208 303.75 415.547 304.101 414.904 304.803V303.442C415.387 302.873 416.082 302.588 416.989 302.588C417.668 302.588 418.213 302.766 418.623 303.121C418.76 303.235 418.883 303.388 418.992 303.579C419.102 303.766 419.17 303.955 419.197 304.146C419.229 304.333 419.245 304.691 419.245 305.22ZM418.021 307.756V305.89L417.188 306.211C416.764 306.38 416.463 306.55 416.285 306.724C416.112 306.892 416.025 307.104 416.025 307.359C416.025 307.619 416.107 307.831 416.271 307.995C416.44 308.159 416.657 308.241 416.921 308.241C417.317 308.241 417.684 308.079 418.021 307.756ZM420.387 303.709L422.725 301.412V302.711H424.714V303.832H422.725V306.915C422.725 307.635 423.023 307.995 423.62 307.995C424.067 307.995 424.538 307.845 425.035 307.544V308.706C424.557 308.975 424.035 309.109 423.47 309.109C422.9 309.109 422.426 308.943 422.048 308.61C421.929 308.51 421.831 308.398 421.754 308.275C421.676 308.148 421.61 307.984 421.556 307.783C421.506 307.578 421.48 307.191 421.48 306.621V303.832H420.387V303.709Z" fill="white"/>
<path d="M212.239 299.437H220.217V300.653H216.888V309H215.514V300.653H212.239V299.437ZM225.351 309V308.2C225.086 308.487 224.783 308.711 224.441 308.87C224.104 309.03 223.767 309.109 223.43 309.109C223.033 309.109 222.666 309.011 222.329 308.815C221.996 308.615 221.743 308.346 221.57 308.009C221.402 307.667 221.317 307.102 221.317 306.313V302.711H222.562V306.3C222.562 306.961 222.655 307.423 222.842 307.688C223.033 307.947 223.366 308.077 223.84 308.077C224.432 308.077 224.936 307.788 225.351 307.209V302.711H226.595V309H225.351ZM233.704 305.965H229.281C229.313 306.566 229.514 307.045 229.883 307.4C230.257 307.756 230.737 307.934 231.325 307.934C232.146 307.934 232.902 307.678 233.595 307.168V308.385C233.212 308.64 232.831 308.822 232.453 308.932C232.079 309.041 231.64 309.096 231.134 309.096C230.441 309.096 229.881 308.952 229.452 308.665C229.024 308.378 228.68 307.993 228.42 307.51C228.165 307.022 228.037 306.459 228.037 305.821C228.037 304.864 228.308 304.087 228.851 303.49C229.393 302.889 230.097 302.588 230.963 302.588C231.797 302.588 232.462 302.88 232.959 303.463C233.456 304.046 233.704 304.828 233.704 305.808V305.965ZM229.309 305.22H232.474C232.442 304.723 232.294 304.34 232.029 304.071C231.765 303.802 231.41 303.668 230.963 303.668C230.516 303.668 230.149 303.802 229.862 304.071C229.58 304.34 229.395 304.723 229.309 305.22Z" fill="white"/>
<path d="M172.654 299.45H173.926V309H172.552V301.569L169.612 305.261H169.359L166.393 301.569V309H165.025V299.45H166.311L169.489 303.374L172.654 299.45ZM178.827 302.697C179.784 302.697 180.579 303.007 181.213 303.627C181.846 304.242 182.163 305.017 182.163 305.951C182.163 306.858 181.842 307.612 181.199 308.214C180.557 308.811 179.748 309.109 178.772 309.109C177.829 309.109 177.041 308.806 176.407 308.2C175.774 307.59 175.457 306.828 175.457 305.917C175.457 304.996 175.776 304.231 176.414 303.62C177.057 303.005 177.861 302.697 178.827 302.697ZM178.759 303.818C178.162 303.818 177.672 304.014 177.289 304.406C176.906 304.798 176.715 305.297 176.715 305.903C176.715 306.505 176.911 306.997 177.303 307.38C177.695 307.758 178.198 307.947 178.813 307.947C179.424 307.947 179.923 307.756 180.311 307.373C180.702 306.986 180.898 306.491 180.898 305.89C180.898 305.293 180.696 304.798 180.29 304.406C179.884 304.014 179.374 303.818 178.759 303.818ZM184.788 302.711V303.511C185.344 302.896 185.975 302.588 186.682 302.588C187.074 302.588 187.438 302.69 187.775 302.896C188.113 303.096 188.368 303.374 188.541 303.729C188.719 304.08 188.808 304.639 188.808 305.404V309H187.563V305.418C187.563 304.775 187.465 304.317 187.27 304.044C187.074 303.766 186.745 303.627 186.285 303.627C185.697 303.627 185.198 303.921 184.788 304.509V309H183.517V302.711H184.788Z" fill="white"/>
<path d="M270.214 299.45H271.574L267.712 309.041H267.418L264.294 301.275L261.143 309.041H260.849L257 299.45H258.374L261.006 306.033L263.651 299.45H264.95L267.609 306.033L270.214 299.45ZM277.829 305.965H273.406C273.438 306.566 273.639 307.045 274.008 307.4C274.382 307.756 274.862 307.934 275.45 307.934C276.271 307.934 277.027 307.678 277.72 307.168V308.385C277.337 308.64 276.956 308.822 276.578 308.932C276.204 309.041 275.765 309.096 275.259 309.096C274.566 309.096 274.006 308.952 273.577 308.665C273.149 308.378 272.805 307.993 272.545 307.51C272.29 307.022 272.162 306.459 272.162 305.821C272.162 304.864 272.433 304.087 272.976 303.49C273.518 302.889 274.222 302.588 275.088 302.588C275.922 302.588 276.587 302.88 277.084 303.463C277.581 304.046 277.829 304.828 277.829 305.808V305.965ZM273.434 305.22H276.599C276.567 304.723 276.419 304.34 276.154 304.071C275.89 303.802 275.535 303.668 275.088 303.668C274.641 303.668 274.274 303.802 273.987 304.071C273.705 304.34 273.52 304.723 273.434 305.22ZM283.38 299.45H284.631V309H281.972C281.042 309 280.299 308.706 279.743 308.118C279.192 307.53 278.916 306.742 278.916 305.753C278.916 304.828 279.205 304.067 279.784 303.47C280.368 302.873 281.11 302.574 282.013 302.574C282.432 302.574 282.888 302.663 283.38 302.841V299.45ZM283.38 307.934V303.948C282.993 303.752 282.601 303.654 282.204 303.654C281.584 303.654 281.09 303.857 280.721 304.263C280.356 304.668 280.174 305.215 280.174 305.903C280.174 306.55 280.333 307.049 280.652 307.4C280.844 307.61 281.047 307.751 281.261 307.824C281.475 307.897 281.86 307.934 282.416 307.934H283.38Z" fill="white"/>
<path d="M413.555 322.327C414.43 322.327 415.152 322.787 415.722 323.708C416.296 324.624 416.583 325.788 416.583 327.201C416.583 328.65 416.296 329.828 415.722 330.735C415.152 331.642 414.411 332.096 413.5 332.096C412.575 332.096 411.832 331.651 411.271 330.763C410.711 329.874 410.431 328.696 410.431 327.229C410.431 325.779 410.72 324.601 411.299 323.694C411.878 322.783 412.63 322.327 413.555 322.327ZM413.568 323.626H413.5C412.976 323.626 412.559 323.95 412.249 324.597C411.944 325.239 411.791 326.112 411.791 327.215C411.791 328.345 411.941 329.231 412.242 329.874C412.543 330.517 412.958 330.838 413.486 330.838C414.015 330.838 414.432 330.517 414.737 329.874C415.043 329.231 415.195 328.359 415.195 327.256C415.195 326.148 415.047 325.267 414.751 324.61C414.459 323.954 414.065 323.626 413.568 323.626ZM421.97 322.327H422.53V327.687H423.597V328.849H422.53V332H421.197V328.849H417.157V328.261L421.97 322.327ZM421.197 327.687V324.918L418.989 327.687H421.197Z" fill="white"/>
<path d="M219.522 326.442H219.604C220.201 326.442 220.655 326.319 220.965 326.073C221.279 325.827 221.437 325.469 221.437 325C221.437 324.576 221.284 324.232 220.979 323.968C220.678 323.703 220.281 323.571 219.789 323.571C219.292 323.571 218.741 323.726 218.135 324.036V322.73C218.691 322.452 219.297 322.313 219.953 322.313C220.833 322.313 221.525 322.544 222.031 323.004C222.542 323.464 222.797 324.093 222.797 324.891C222.797 325.374 222.699 325.782 222.503 326.114C222.307 326.442 221.995 326.725 221.566 326.962C221.94 327.108 222.214 327.288 222.387 327.502C222.56 327.712 222.694 327.967 222.79 328.268C222.886 328.568 222.934 328.887 222.934 329.225C222.934 330.059 222.656 330.749 222.1 331.296C221.544 331.838 220.842 332.109 219.994 332.109C219.27 332.109 218.57 331.934 217.896 331.583V330.093C218.616 330.544 219.315 330.77 219.994 330.77C220.454 330.77 220.824 330.633 221.102 330.359C221.384 330.086 221.525 329.724 221.525 329.272C221.525 328.894 221.409 328.564 221.177 328.281C221.04 328.122 220.887 328.006 220.719 327.933C220.555 327.855 220.197 327.782 219.646 327.714L219.522 327.7V326.442ZM226.83 322.45H228.197V332H226.83V322.45Z" fill="white"/>
<path d="M170.522 326.442H170.604C171.201 326.442 171.655 326.319 171.965 326.073C172.279 325.827 172.437 325.469 172.437 325C172.437 324.576 172.284 324.232 171.979 323.968C171.678 323.703 171.281 323.571 170.789 323.571C170.292 323.571 169.741 323.726 169.135 324.036V322.73C169.691 322.452 170.297 322.313 170.953 322.313C171.833 322.313 172.525 322.544 173.031 323.004C173.542 323.464 173.797 324.093 173.797 324.891C173.797 325.374 173.699 325.782 173.503 326.114C173.307 326.442 172.995 326.725 172.566 326.962C172.94 327.108 173.214 327.288 173.387 327.502C173.56 327.712 173.694 327.967 173.79 328.268C173.886 328.568 173.934 328.887 173.934 329.225C173.934 330.059 173.656 330.749 173.1 331.296C172.544 331.838 171.842 332.109 170.994 332.109C170.27 332.109 169.57 331.934 168.896 331.583V330.093C169.616 330.544 170.315 330.77 170.994 330.77C171.454 330.77 171.824 330.633 172.102 330.359C172.384 330.086 172.525 329.724 172.525 329.272C172.525 328.894 172.409 328.564 172.177 328.281C172.04 328.122 171.887 328.006 171.719 327.933C171.555 327.855 171.197 327.782 170.646 327.714L170.522 327.7V326.442ZM178.555 322.327C179.43 322.327 180.152 322.787 180.722 323.708C181.296 324.624 181.583 325.788 181.583 327.201C181.583 328.65 181.296 329.828 180.722 330.735C180.152 331.642 179.411 332.096 178.5 332.096C177.575 332.096 176.832 331.651 176.271 330.763C175.711 329.874 175.431 328.696 175.431 327.229C175.431 325.779 175.72 324.601 176.299 323.694C176.878 322.783 177.63 322.327 178.555 322.327ZM178.568 323.626H178.5C177.976 323.626 177.559 323.95 177.249 324.597C176.944 325.239 176.791 326.112 176.791 327.215C176.791 328.345 176.941 329.231 177.242 329.874C177.543 330.517 177.958 330.838 178.486 330.838C179.015 330.838 179.432 330.517 179.737 329.874C180.043 329.231 180.195 328.359 180.195 327.256C180.195 326.148 180.047 325.267 179.751 324.61C179.459 323.954 179.065 323.626 178.568 323.626Z" fill="white"/>
<path d="M268.555 322.327C269.43 322.327 270.152 322.787 270.722 323.708C271.296 324.624 271.583 325.788 271.583 327.201C271.583 328.65 271.296 329.828 270.722 330.735C270.152 331.642 269.411 332.096 268.5 332.096C267.575 332.096 266.832 331.651 266.271 330.763C265.711 329.874 265.431 328.696 265.431 327.229C265.431 325.779 265.72 324.601 266.299 323.694C266.878 322.783 267.63 322.327 268.555 322.327ZM268.568 323.626H268.5C267.976 323.626 267.559 323.95 267.249 324.597C266.944 325.239 266.791 326.112 266.791 327.215C266.791 328.345 266.941 329.231 267.242 329.874C267.543 330.517 267.958 330.838 268.486 330.838C269.015 330.838 269.432 330.517 269.737 329.874C270.043 329.231 270.195 328.359 270.195 327.256C270.195 326.148 270.047 325.267 269.751 324.61C269.459 323.954 269.065 323.626 268.568 323.626ZM274.83 322.45H276.197V332H274.83V322.45Z" fill="white"/>
<path d="M156.273 218.07H165.391V219.461H161.586V229H160.016V219.461H156.273V218.07ZM170.117 221.797C171.211 221.797 172.12 222.151 172.844 222.859C173.568 223.562 173.93 224.448 173.93 225.516C173.93 226.552 173.562 227.414 172.828 228.102C172.094 228.784 171.169 229.125 170.055 229.125C168.977 229.125 168.076 228.779 167.352 228.086C166.628 227.388 166.266 226.518 166.266 225.477C166.266 224.424 166.63 223.549 167.359 222.852C168.094 222.148 169.013 221.797 170.117 221.797ZM170.039 223.078C169.357 223.078 168.797 223.302 168.359 223.75C167.922 224.198 167.703 224.768 167.703 225.461C167.703 226.148 167.927 226.711 168.375 227.148C168.823 227.581 169.398 227.797 170.102 227.797C170.799 227.797 171.37 227.578 171.812 227.141C172.26 226.698 172.484 226.133 172.484 225.445C172.484 224.763 172.253 224.198 171.789 223.75C171.326 223.302 170.742 223.078 170.039 223.078ZM180.305 218.086H181.734V229H178.695C177.633 229 176.784 228.664 176.148 227.992C175.518 227.32 175.203 226.419 175.203 225.289C175.203 224.232 175.534 223.362 176.195 222.68C176.862 221.997 177.711 221.656 178.742 221.656C179.221 221.656 179.742 221.758 180.305 221.961V218.086ZM180.305 227.781V223.227C179.862 223.003 179.414 222.891 178.961 222.891C178.253 222.891 177.688 223.122 177.266 223.586C176.849 224.049 176.641 224.674 176.641 225.461C176.641 226.201 176.823 226.771 177.188 227.172C177.406 227.411 177.638 227.573 177.883 227.656C178.128 227.74 178.568 227.781 179.203 227.781H180.305ZM188.18 224.68V227.734C188.18 227.979 188.263 228.102 188.43 228.102C188.602 228.102 188.87 227.974 189.234 227.719V228.586C188.911 228.794 188.651 228.935 188.453 229.008C188.26 229.086 188.057 229.125 187.844 229.125C187.234 229.125 186.875 228.885 186.766 228.406C186.161 228.875 185.518 229.109 184.836 229.109C184.336 229.109 183.919 228.945 183.586 228.617C183.253 228.284 183.086 227.867 183.086 227.367C183.086 226.914 183.247 226.51 183.57 226.156C183.898 225.797 184.362 225.513 184.961 225.305L186.781 224.68V224.297C186.781 223.432 186.349 223 185.484 223C184.708 223 183.953 223.401 183.219 224.203V222.648C183.771 221.997 184.565 221.672 185.602 221.672C186.378 221.672 187 221.875 187.469 222.281C187.625 222.411 187.766 222.586 187.891 222.805C188.016 223.018 188.094 223.234 188.125 223.453C188.161 223.667 188.18 224.076 188.18 224.68ZM186.781 227.578V225.445L185.828 225.812C185.344 226.005 185 226.201 184.797 226.398C184.599 226.591 184.5 226.833 184.5 227.125C184.5 227.422 184.594 227.664 184.781 227.852C184.974 228.039 185.221 228.133 185.523 228.133C185.977 228.133 186.396 227.948 186.781 227.578ZM194.891 221.812H196.492L191.406 232.664H189.82L192.266 227.461L189.484 221.812H191.102L193.039 225.867L194.891 221.812Z" fill="#525050"/>
<path d="M156.342 245.338H167.738V247.076H162.982V259H161.02V247.076H156.342V245.338ZM169.311 245.357H171.088V251.197C171.83 250.292 172.751 249.84 173.852 249.84C174.451 249.84 174.988 249.99 175.463 250.289C175.938 250.589 176.29 251.002 176.518 251.529C176.752 252.057 176.869 252.841 176.869 253.883V259H175.092V253.443C175.092 252.786 174.929 252.258 174.604 251.861C174.285 251.458 173.861 251.256 173.334 251.256C172.943 251.256 172.576 251.357 172.23 251.559C171.885 251.76 171.505 252.096 171.088 252.564V259H169.311V245.357ZM185.072 259V257.857C184.695 258.268 184.262 258.587 183.773 258.814C183.292 259.042 182.81 259.156 182.328 259.156C181.762 259.156 181.238 259.016 180.756 258.736C180.281 258.45 179.919 258.066 179.672 257.584C179.431 257.096 179.311 256.288 179.311 255.162V250.016H181.088V255.143C181.088 256.087 181.221 256.747 181.488 257.125C181.762 257.496 182.237 257.682 182.914 257.682C183.76 257.682 184.48 257.268 185.072 256.441V250.016H186.85V259H185.072ZM191.254 250.016V252.076L191.352 251.92C192.211 250.533 193.07 249.84 193.93 249.84C194.6 249.84 195.3 250.178 196.029 250.855L195.092 252.418C194.473 251.832 193.9 251.539 193.373 251.539C192.8 251.539 192.302 251.812 191.879 252.359C191.462 252.906 191.254 253.554 191.254 254.303V259H189.467V250.016H191.254ZM196.84 258.355V256.441C197.341 256.793 197.852 257.079 198.373 257.301C198.9 257.516 199.343 257.623 199.701 257.623C200.072 257.623 200.391 257.532 200.658 257.35C200.925 257.167 201.059 256.949 201.059 256.695C201.059 256.435 200.971 256.22 200.795 256.051C200.626 255.875 200.255 255.624 199.682 255.299C198.536 254.661 197.784 254.117 197.426 253.668C197.074 253.212 196.898 252.717 196.898 252.184C196.898 251.493 197.165 250.93 197.699 250.494C198.24 250.058 198.933 249.84 199.779 249.84C200.658 249.84 201.56 250.087 202.484 250.582V252.34C201.43 251.702 200.567 251.383 199.896 251.383C199.551 251.383 199.271 251.458 199.057 251.607C198.848 251.751 198.744 251.943 198.744 252.184C198.744 252.392 198.839 252.59 199.027 252.779C199.223 252.968 199.561 253.196 200.043 253.463L200.678 253.824C202.175 254.671 202.924 255.608 202.924 256.637C202.924 257.372 202.634 257.978 202.055 258.453C201.482 258.922 200.743 259.156 199.838 259.156C199.304 259.156 198.829 259.101 198.412 258.99C197.995 258.873 197.471 258.661 196.84 258.355ZM210.971 245.357H212.758V259H208.959C207.631 259 206.57 258.58 205.775 257.74C204.988 256.9 204.594 255.774 204.594 254.361C204.594 253.04 205.007 251.952 205.834 251.1C206.667 250.247 207.729 249.82 209.018 249.82C209.617 249.82 210.268 249.947 210.971 250.201V245.357ZM210.971 257.477V251.783C210.417 251.503 209.857 251.363 209.291 251.363C208.406 251.363 207.699 251.653 207.172 252.232C206.651 252.812 206.391 253.593 206.391 254.576C206.391 255.501 206.618 256.214 207.074 256.715C207.348 257.014 207.637 257.216 207.943 257.32C208.249 257.424 208.799 257.477 209.594 257.477H210.971ZM220.814 253.6V257.418C220.814 257.724 220.919 257.877 221.127 257.877C221.342 257.877 221.677 257.717 222.133 257.398V258.482C221.729 258.743 221.404 258.919 221.156 259.01C220.915 259.107 220.661 259.156 220.395 259.156C219.633 259.156 219.184 258.857 219.047 258.258C218.292 258.844 217.488 259.137 216.635 259.137C216.01 259.137 215.489 258.932 215.072 258.521C214.656 258.105 214.447 257.584 214.447 256.959C214.447 256.393 214.649 255.888 215.053 255.445C215.463 254.996 216.042 254.641 216.791 254.381L219.066 253.6V253.121C219.066 252.04 218.526 251.5 217.445 251.5C216.475 251.5 215.531 252.001 214.613 253.004V251.061C215.303 250.247 216.296 249.84 217.592 249.84C218.562 249.84 219.34 250.094 219.926 250.602C220.121 250.764 220.297 250.982 220.453 251.256C220.609 251.523 220.707 251.793 220.746 252.066C220.792 252.333 220.814 252.844 220.814 253.6ZM219.066 257.223V254.557L217.875 255.016C217.27 255.257 216.84 255.501 216.586 255.748C216.339 255.989 216.215 256.292 216.215 256.656C216.215 257.027 216.332 257.33 216.566 257.564C216.807 257.799 217.117 257.916 217.494 257.916C218.061 257.916 218.585 257.685 219.066 257.223ZM229.203 250.016H231.205L224.848 263.58H222.865L225.922 257.076L222.445 250.016H224.467L226.889 255.084L229.203 250.016ZM232.191 261.363V261.002C232.484 260.722 232.689 260.439 232.807 260.152C232.924 259.872 232.992 259.488 233.012 259C232.322 258.798 231.977 258.372 231.977 257.721C231.977 257.369 232.094 257.066 232.328 256.812C232.569 256.552 232.852 256.422 233.178 256.422C233.575 256.422 233.9 256.598 234.154 256.949C234.408 257.301 234.535 257.75 234.535 258.297C234.535 259.02 234.327 259.654 233.91 260.201C233.493 260.748 232.921 261.135 232.191 261.363ZM245.297 257.115H250.492V259H241.859V258.863L242.68 257.896C243.962 256.308 244.981 254.96 245.736 253.854C246.498 252.747 246.993 251.91 247.221 251.344C247.455 250.777 247.572 250.217 247.572 249.664C247.572 248.896 247.354 248.281 246.918 247.818C246.482 247.35 245.902 247.115 245.18 247.115C244.633 247.115 244.092 247.278 243.559 247.604C243.031 247.923 242.556 248.375 242.133 248.961V246.48C243.194 245.615 244.288 245.182 245.414 245.182C246.605 245.182 247.585 245.579 248.354 246.373C249.128 247.167 249.516 248.176 249.516 249.4C249.516 249.947 249.418 250.533 249.223 251.158C249.034 251.777 248.695 252.493 248.207 253.307C247.719 254.114 246.889 255.217 245.717 256.617L245.297 257.115ZM269.105 245.357H270.922V259H268.959V248.385L264.76 253.658H264.398L260.16 248.385V259H258.207V245.357H260.043L264.584 250.963L269.105 245.357ZM279.271 253.6V257.418C279.271 257.724 279.376 257.877 279.584 257.877C279.799 257.877 280.134 257.717 280.59 257.398V258.482C280.186 258.743 279.861 258.919 279.613 259.01C279.372 259.107 279.118 259.156 278.852 259.156C278.09 259.156 277.641 258.857 277.504 258.258C276.749 258.844 275.945 259.137 275.092 259.137C274.467 259.137 273.946 258.932 273.529 258.521C273.113 258.105 272.904 257.584 272.904 256.959C272.904 256.393 273.106 255.888 273.51 255.445C273.92 254.996 274.499 254.641 275.248 254.381L277.523 253.6V253.121C277.523 252.04 276.983 251.5 275.902 251.5C274.932 251.5 273.988 252.001 273.07 253.004V251.061C273.76 250.247 274.753 249.84 276.049 249.84C277.019 249.84 277.797 250.094 278.383 250.602C278.578 250.764 278.754 250.982 278.91 251.256C279.066 251.523 279.164 251.793 279.203 252.066C279.249 252.333 279.271 252.844 279.271 253.6ZM277.523 257.223V254.557L276.332 255.016C275.727 255.257 275.297 255.501 275.043 255.748C274.796 255.989 274.672 256.292 274.672 256.656C274.672 257.027 274.789 257.33 275.023 257.564C275.264 257.799 275.574 257.916 275.951 257.916C276.518 257.916 277.042 257.685 277.523 257.223ZM287.66 250.016H289.662L283.305 263.58H281.322L284.379 257.076L280.902 250.016H282.924L285.346 255.084L287.66 250.016ZM299.359 257.115H304.555V259H295.922V258.863L296.742 257.896C298.025 256.308 299.044 254.96 299.799 253.854C300.561 252.747 301.055 251.91 301.283 251.344C301.518 250.777 301.635 250.217 301.635 249.664C301.635 248.896 301.417 248.281 300.98 247.818C300.544 247.35 299.965 247.115 299.242 247.115C298.695 247.115 298.155 247.278 297.621 247.604C297.094 247.923 296.618 248.375 296.195 248.961V246.48C297.257 245.615 298.35 245.182 299.477 245.182C300.668 245.182 301.648 245.579 302.416 246.373C303.191 247.167 303.578 248.176 303.578 249.4C303.578 249.947 303.48 250.533 303.285 251.158C303.096 251.777 302.758 252.493 302.27 253.307C301.781 254.114 300.951 255.217 299.779 256.617L299.359 257.115ZM310.316 245.182C311.566 245.182 312.598 245.839 313.412 247.154C314.232 248.463 314.643 250.126 314.643 252.145C314.643 254.215 314.232 255.898 313.412 257.193C312.598 258.489 311.54 259.137 310.238 259.137C308.917 259.137 307.855 258.502 307.055 257.232C306.254 255.963 305.854 254.28 305.854 252.184C305.854 250.113 306.267 248.43 307.094 247.135C307.921 245.833 308.995 245.182 310.316 245.182ZM310.336 247.037H310.238C309.49 247.037 308.894 247.499 308.451 248.424C308.015 249.342 307.797 250.589 307.797 252.164C307.797 253.779 308.012 255.045 308.441 255.963C308.871 256.881 309.464 257.34 310.219 257.34C310.974 257.34 311.57 256.881 312.006 255.963C312.442 255.045 312.66 253.798 312.66 252.223C312.66 250.641 312.449 249.381 312.025 248.443C311.609 247.506 311.046 247.037 310.336 247.037ZM319.359 257.115H324.555V259H315.922V258.863L316.742 257.896C318.025 256.308 319.044 254.96 319.799 253.854C320.561 252.747 321.055 251.91 321.283 251.344C321.518 250.777 321.635 250.217 321.635 249.664C321.635 248.896 321.417 248.281 320.98 247.818C320.544 247.35 319.965 247.115 319.242 247.115C318.695 247.115 318.155 247.278 317.621 247.604C317.094 247.923 316.618 248.375 316.195 248.961V246.48C317.257 245.615 318.35 245.182 319.477 245.182C320.668 245.182 321.648 245.579 322.416 246.373C323.191 247.167 323.578 248.176 323.578 249.4C323.578 249.947 323.48 250.533 323.285 251.158C323.096 251.777 322.758 252.493 322.27 253.307C321.781 254.114 320.951 255.217 319.779 256.617L319.359 257.115ZM329.359 257.115H334.555V259H325.922V258.863L326.742 257.896C328.025 256.308 329.044 254.96 329.799 253.854C330.561 252.747 331.055 251.91 331.283 251.344C331.518 250.777 331.635 250.217 331.635 249.664C331.635 248.896 331.417 248.281 330.98 247.818C330.544 247.35 329.965 247.115 329.242 247.115C328.695 247.115 328.155 247.278 327.621 247.604C327.094 247.923 326.618 248.375 326.195 248.961V246.48C327.257 245.615 328.35 245.182 329.477 245.182C330.668 245.182 331.648 245.579 332.416 246.373C333.191 247.167 333.578 248.176 333.578 249.4C333.578 249.947 333.48 250.533 333.285 251.158C333.096 251.777 332.758 252.493 332.27 253.307C331.781 254.114 330.951 255.217 329.779 256.617L329.359 257.115Z" fill="#151313"/>
<path d="M175.555 398.327C176.43 398.327 177.152 398.787 177.722 399.708C178.296 400.624 178.583 401.788 178.583 403.201C178.583 404.65 178.296 405.828 177.722 406.735C177.152 407.642 176.411 408.096 175.5 408.096C174.575 408.096 173.832 407.651 173.271 406.763C172.711 405.874 172.431 404.696 172.431 403.229C172.431 401.779 172.72 400.601 173.299 399.694C173.878 398.783 174.63 398.327 175.555 398.327ZM175.568 399.626H175.5C174.976 399.626 174.559 399.95 174.249 400.597C173.944 401.239 173.791 402.112 173.791 403.215C173.791 404.345 173.941 405.231 174.242 405.874C174.543 406.517 174.958 406.838 175.486 406.838C176.015 406.838 176.432 406.517 176.737 405.874C177.043 405.231 177.195 404.359 177.195 403.256C177.195 402.148 177.047 401.267 176.751 400.61C176.459 399.954 176.065 399.626 175.568 399.626ZM181.618 408.109L180.777 407.118C181.484 406.672 182.101 406.132 182.63 405.498C183.159 404.86 183.512 404.206 183.689 403.536C183.257 403.805 182.748 403.939 182.165 403.939C181.436 403.939 180.809 403.668 180.285 403.126C179.766 402.584 179.506 401.932 179.506 401.171C179.506 400.378 179.784 399.706 180.34 399.154C180.896 398.603 181.575 398.327 182.377 398.327C183.279 398.327 184.018 398.653 184.592 399.305C185.166 399.956 185.453 400.793 185.453 401.813C185.453 402.971 185.093 404.142 184.373 405.327C183.653 406.507 182.735 407.435 181.618 408.109ZM183.956 402.176C184.011 401.811 184.038 401.574 184.038 401.465C184.038 400.913 183.883 400.462 183.573 400.111C183.268 399.76 182.874 399.585 182.391 399.585C181.949 399.585 181.582 399.735 181.29 400.036C181.003 400.332 180.859 400.706 180.859 401.157C180.859 401.572 181.017 401.93 181.331 402.23C181.646 402.531 182.021 402.682 182.459 402.682C182.969 402.682 183.468 402.513 183.956 402.176ZM187.47 406.448C187.702 406.448 187.9 406.53 188.064 406.694C188.229 406.858 188.311 407.057 188.311 407.289C188.311 407.517 188.229 407.711 188.064 407.87C187.9 408.03 187.702 408.109 187.47 408.109C187.246 408.109 187.053 408.03 186.889 407.87C186.725 407.711 186.643 407.517 186.643 407.289C186.643 407.057 186.722 406.858 186.882 406.694C187.041 406.53 187.237 406.448 187.47 406.448ZM187.579 401.588C187.812 401.588 188.01 401.67 188.174 401.834C188.338 401.998 188.42 402.196 188.42 402.429C188.42 402.657 188.338 402.853 188.174 403.017C188.01 403.176 187.812 403.256 187.579 403.256C187.356 403.256 187.162 403.176 186.998 403.017C186.839 402.853 186.759 402.657 186.759 402.429C186.759 402.196 186.839 401.998 186.998 401.834C187.158 401.67 187.351 401.588 187.579 401.588ZM194.046 398.327H194.606V403.687H195.673V404.849H194.606V408H193.273V404.849H189.233V404.261L194.046 398.327ZM193.273 403.687V400.918L191.065 403.687H193.273ZM197.491 398.45H201.729V399.667H198.735V402.08C198.831 402.071 198.929 402.066 199.029 402.066C199.954 402.066 200.715 402.349 201.312 402.914C201.91 403.475 202.208 404.19 202.208 405.061C202.208 405.958 201.912 406.69 201.319 407.255C200.731 407.815 199.968 408.096 199.029 408.096C198.255 408.096 197.503 407.909 196.773 407.535V406.127C197.462 406.574 198.134 406.797 198.79 406.797C199.364 406.797 199.845 406.631 200.232 406.298C200.624 405.961 200.82 405.548 200.82 405.061C200.82 404.555 200.608 404.133 200.185 403.796C199.761 403.454 199.232 403.283 198.599 403.283C198.056 403.283 197.687 403.329 197.491 403.42V398.45ZM211.806 404.22V406.893C211.806 407.107 211.879 407.214 212.024 407.214C212.175 407.214 212.41 407.102 212.729 406.879V407.638C212.446 407.82 212.218 407.943 212.045 408.007C211.876 408.075 211.699 408.109 211.512 408.109C210.979 408.109 210.664 407.9 210.568 407.48C210.04 407.891 209.477 408.096 208.88 408.096C208.442 408.096 208.078 407.952 207.786 407.665C207.494 407.373 207.349 407.009 207.349 406.571C207.349 406.175 207.49 405.822 207.772 405.512C208.06 405.197 208.465 404.949 208.989 404.767L210.582 404.22V403.885C210.582 403.128 210.204 402.75 209.447 402.75C208.768 402.75 208.107 403.101 207.465 403.803V402.442C207.948 401.873 208.643 401.588 209.55 401.588C210.229 401.588 210.773 401.766 211.184 402.121C211.32 402.235 211.443 402.388 211.553 402.579C211.662 402.766 211.73 402.955 211.758 403.146C211.79 403.333 211.806 403.691 211.806 404.22ZM210.582 406.756V404.89L209.748 405.211C209.324 405.38 209.023 405.55 208.846 405.724C208.673 405.892 208.586 406.104 208.586 406.359C208.586 406.619 208.668 406.831 208.832 406.995C209.001 407.159 209.217 407.241 209.481 407.241C209.878 407.241 210.245 407.079 210.582 406.756ZM218.983 403.434V408H217.732V404.5C217.732 403.803 217.639 403.317 217.452 403.044C217.265 402.766 216.939 402.627 216.475 402.627C216.215 402.627 215.976 402.686 215.757 402.805C215.543 402.923 215.297 403.133 215.019 403.434V408H213.774V401.711H215.019V402.538C215.652 401.905 216.272 401.588 216.878 401.588C217.675 401.588 218.293 401.966 218.73 402.723C219.396 401.957 220.091 401.574 220.815 401.574C221.426 401.574 221.927 401.798 222.319 402.244C222.716 402.691 222.914 403.372 222.914 404.288V408H221.67V404.274C221.67 403.75 221.563 403.349 221.349 403.071C221.134 402.793 220.827 402.654 220.426 402.654C219.911 402.654 219.43 402.914 218.983 403.434Z" fill="#454545"/>
<path d="M174.83 476.45H176.197V486H174.83V476.45ZM182.555 476.327C183.43 476.327 184.152 476.787 184.722 477.708C185.296 478.624 185.583 479.788 185.583 481.201C185.583 482.65 185.296 483.828 184.722 484.735C184.152 485.642 183.411 486.096 182.5 486.096C181.575 486.096 180.832 485.651 180.271 484.763C179.711 483.874 179.431 482.696 179.431 481.229C179.431 479.779 179.72 478.601 180.299 477.694C180.878 476.783 181.63 476.327 182.555 476.327ZM182.568 477.626H182.5C181.976 477.626 181.559 477.95 181.249 478.597C180.944 479.239 180.791 480.112 180.791 481.215C180.791 482.345 180.941 483.231 181.242 483.874C181.543 484.517 181.958 484.838 182.486 484.838C183.015 484.838 183.432 484.517 183.737 483.874C184.043 483.231 184.195 482.359 184.195 481.256C184.195 480.148 184.047 479.267 183.751 478.61C183.459 477.954 183.065 477.626 182.568 477.626ZM187.47 484.448C187.702 484.448 187.9 484.53 188.064 484.694C188.229 484.858 188.311 485.057 188.311 485.289C188.311 485.517 188.229 485.711 188.064 485.87C187.9 486.03 187.702 486.109 187.47 486.109C187.246 486.109 187.053 486.03 186.889 485.87C186.725 485.711 186.643 485.517 186.643 485.289C186.643 485.057 186.722 484.858 186.882 484.694C187.041 484.53 187.237 484.448 187.47 484.448ZM187.579 479.588C187.812 479.588 188.01 479.67 188.174 479.834C188.338 479.998 188.42 480.196 188.42 480.429C188.42 480.657 188.338 480.853 188.174 481.017C188.01 481.176 187.812 481.256 187.579 481.256C187.356 481.256 187.162 481.176 186.998 481.017C186.839 480.853 186.759 480.657 186.759 480.429C186.759 480.196 186.839 479.998 186.998 479.834C187.158 479.67 187.351 479.588 187.579 479.588ZM190.491 476.45H194.729V477.667H191.735V480.08C191.831 480.071 191.929 480.066 192.029 480.066C192.954 480.066 193.715 480.349 194.312 480.914C194.91 481.475 195.208 482.19 195.208 483.061C195.208 483.958 194.912 484.69 194.319 485.255C193.731 485.815 192.968 486.096 192.029 486.096C191.255 486.096 190.503 485.909 189.773 485.535V484.127C190.462 484.574 191.134 484.797 191.79 484.797C192.364 484.797 192.845 484.631 193.232 484.298C193.624 483.961 193.82 483.548 193.82 483.061C193.82 482.555 193.608 482.133 193.185 481.796C192.761 481.454 192.232 481.283 191.599 481.283C191.056 481.283 190.687 481.329 190.491 481.42V476.45ZM199.631 476.327C200.506 476.327 201.228 476.787 201.798 477.708C202.372 478.624 202.659 479.788 202.659 481.201C202.659 482.65 202.372 483.828 201.798 484.735C201.228 485.642 200.488 486.096 199.576 486.096C198.651 486.096 197.908 485.651 197.348 484.763C196.787 483.874 196.507 482.696 196.507 481.229C196.507 479.779 196.796 478.601 197.375 477.694C197.954 476.783 198.706 476.327 199.631 476.327ZM199.645 477.626H199.576C199.052 477.626 198.635 477.95 198.325 478.597C198.02 479.239 197.867 480.112 197.867 481.215C197.867 482.345 198.018 483.231 198.318 483.874C198.619 484.517 199.034 484.838 199.562 484.838C200.091 484.838 200.508 484.517 200.813 483.874C201.119 483.231 201.271 482.359 201.271 481.256C201.271 480.148 201.123 479.267 200.827 478.61C200.535 477.954 200.141 477.626 199.645 477.626ZM211.806 482.22V484.893C211.806 485.107 211.879 485.214 212.024 485.214C212.175 485.214 212.41 485.102 212.729 484.879V485.638C212.446 485.82 212.218 485.943 212.045 486.007C211.876 486.075 211.699 486.109 211.512 486.109C210.979 486.109 210.664 485.9 210.568 485.48C210.04 485.891 209.477 486.096 208.88 486.096C208.442 486.096 208.078 485.952 207.786 485.665C207.494 485.373 207.349 485.009 207.349 484.571C207.349 484.175 207.49 483.822 207.772 483.512C208.06 483.197 208.465 482.949 208.989 482.767L210.582 482.22V481.885C210.582 481.128 210.204 480.75 209.447 480.75C208.768 480.75 208.107 481.101 207.465 481.803V480.442C207.948 479.873 208.643 479.588 209.55 479.588C210.229 479.588 210.773 479.766 211.184 480.121C211.32 480.235 211.443 480.388 211.553 480.579C211.662 480.766 211.73 480.955 211.758 481.146C211.79 481.333 211.806 481.691 211.806 482.22ZM210.582 484.756V482.89L209.748 483.211C209.324 483.38 209.023 483.55 208.846 483.724C208.673 483.892 208.586 484.104 208.586 484.359C208.586 484.619 208.668 484.831 208.832 484.995C209.001 485.159 209.217 485.241 209.481 485.241C209.878 485.241 210.245 485.079 210.582 484.756ZM218.983 481.434V486H217.732V482.5C217.732 481.803 217.639 481.317 217.452 481.044C217.265 480.766 216.939 480.627 216.475 480.627C216.215 480.627 215.976 480.686 215.757 480.805C215.543 480.923 215.297 481.133 215.019 481.434V486H213.774V479.711H215.019V480.538C215.652 479.905 216.272 479.588 216.878 479.588C217.675 479.588 218.293 479.966 218.73 480.723C219.396 479.957 220.091 479.574 220.815 479.574C221.426 479.574 221.927 479.798 222.319 480.244C222.716 480.691 222.914 481.372 222.914 482.288V486H221.67V482.274C221.67 481.75 221.563 481.349 221.349 481.071C221.134 480.793 220.827 480.654 220.426 480.654C219.911 480.654 219.43 480.914 218.983 481.434Z" fill="#454545"/>
<rect x="244" y="395" width="239" height="48" rx="4" fill="#FAEDCD" fill-opacity="0.4"/>
<path d="M244 398.855C244 396.726 245.726 395 247.855 395V395V443V443C245.726 443 244 441.274 244 439.145V398.855Z" fill="#D4A373"/>
<rect x="244" y="473" width="239" height="48" rx="4" fill="#FAEDCD" fill-opacity="0.4"/>
<path d="M244 476.855C244 474.726 245.726 473 247.855 473V473V521V521C245.726 521 244 519.274 244 517.145V476.855Z" fill="#D4A373"/>
<path d="M263.105 414.768V419.075H268.416V414.768H270.393V425H268.416V420.679H263.105V425H261.128V414.768H263.105ZM273.33 414.768L275.879 421.082L278.56 414.768H280.23L282.925 421.104L285.467 414.768H287.488L283.277 425.132H282.61L279.387 417.544L276.15 425.132H275.506L271.287 414.768H273.33ZM296.014 414.768V425H294.139V414.768H296.014Z" fill="#1E1D1D"/>
<path d="M263.105 492.768V497.075H268.416V492.768H270.393V503H268.416V498.679H263.105V503H261.128V492.768H263.105ZM273.33 492.768L275.879 499.082L278.56 492.768H280.23L282.925 499.104L285.467 492.768H287.488L283.277 503.132H282.61L279.387 495.544L276.15 503.132H275.506L271.287 492.768H273.33ZM294.571 492.636C295.543 492.636 296.314 492.915 296.886 493.471C297.462 494.023 297.75 494.76 297.75 495.683C297.75 496.386 297.535 497.148 297.105 497.968C296.681 498.789 295.931 499.875 294.857 501.228H298.365V503H291.737V502.788C292.508 501.835 293.17 500.981 293.722 500.224C294.278 499.462 294.708 498.833 295.011 498.334C295.313 497.832 295.528 497.404 295.655 497.053C295.782 496.701 295.846 496.337 295.846 495.961C295.846 495.493 295.694 495.1 295.392 494.782C295.094 494.46 294.73 494.299 294.3 494.299C293.529 494.299 292.728 494.738 291.898 495.617V493.61C292.772 492.961 293.663 492.636 294.571 492.636Z" fill="#1E1D1D"/>
<rect x="197" y="418" width="3" height="42" rx="1.5" fill="#F8AB80" fill-opacity="0.4"/>
<rect x="197" y="501" width="3" height="42" rx="1.5" fill="#F8AB80" fill-opacity="0.4"/>
<g filter="url(#filter1_d_509_5012)">
<rect x="300" y="281" width="40" height="72" rx="18" fill="#CCD5AE"/>
</g>
<path d="M308.239 299.437H316.217V300.653H312.888V309H311.514V300.653H308.239V299.437ZM317.317 299.45H318.562V303.538C319.081 302.905 319.726 302.588 320.496 302.588C320.915 302.588 321.291 302.693 321.624 302.902C321.957 303.112 322.203 303.401 322.362 303.771C322.526 304.14 322.608 304.689 322.608 305.418V309H321.364V305.11C321.364 304.65 321.25 304.281 321.022 304.003C320.799 303.72 320.503 303.579 320.134 303.579C319.86 303.579 319.603 303.65 319.361 303.791C319.12 303.932 318.853 304.167 318.562 304.495V309H317.317V299.45ZM328.351 309V308.2C328.086 308.487 327.783 308.711 327.441 308.87C327.104 309.03 326.767 309.109 326.43 309.109C326.033 309.109 325.666 309.011 325.329 308.815C324.996 308.615 324.743 308.346 324.57 308.009C324.402 307.667 324.317 307.102 324.317 306.313V302.711H325.562V306.3C325.562 306.961 325.655 307.423 325.842 307.688C326.033 307.947 326.366 308.077 326.84 308.077C327.432 308.077 327.936 307.788 328.351 307.209V302.711H329.595V309H328.351Z" fill="white"/>
<path d="M315.555 322.327C316.43 322.327 317.152 322.787 317.722 323.708C318.296 324.624 318.583 325.788 318.583 327.201C318.583 328.65 318.296 329.828 317.722 330.735C317.152 331.642 316.411 332.096 315.5 332.096C314.575 332.096 313.832 331.651 313.271 330.763C312.711 329.874 312.431 328.696 312.431 327.229C312.431 325.779 312.72 324.601 313.299 323.694C313.878 322.783 314.63 322.327 315.555 322.327ZM315.568 323.626H315.5C314.976 323.626 314.559 323.95 314.249 324.597C313.944 325.239 313.791 326.112 313.791 327.215C313.791 328.345 313.941 329.231 314.242 329.874C314.543 330.517 314.958 330.838 315.486 330.838C316.015 330.838 316.432 330.517 316.737 329.874C317.043 329.231 317.195 328.359 317.195 327.256C317.195 326.148 317.047 325.267 316.751 324.61C316.459 323.954 316.065 323.626 315.568 323.626ZM321.885 330.681H325.521V332H319.479V331.904L320.053 331.228C320.951 330.116 321.664 329.172 322.192 328.397C322.726 327.623 323.072 327.037 323.231 326.641C323.396 326.244 323.478 325.852 323.478 325.465C323.478 324.927 323.325 324.496 323.02 324.173C322.714 323.845 322.309 323.681 321.803 323.681C321.42 323.681 321.042 323.795 320.668 324.022C320.299 324.246 319.966 324.562 319.67 324.973V323.236C320.413 322.63 321.178 322.327 321.967 322.327C322.801 322.327 323.487 322.605 324.024 323.161C324.567 323.717 324.838 324.424 324.838 325.28C324.838 325.663 324.77 326.073 324.633 326.511C324.501 326.944 324.264 327.445 323.922 328.015C323.58 328.58 322.999 329.352 322.179 330.332L321.885 330.681Z" fill="white"/>
<circle cx="320" cy="345" r="3" fill="#D4A373"/>
<rect x="348" y="281" width="40" height="72" rx="18" fill="#E9EDC9"/>
<path d="M361.066 299.45H366.159V300.667H362.434V303.333H366.159V304.55H362.434V309H361.066V299.45ZM368.791 302.711V304.153L368.859 304.044C369.461 303.073 370.062 302.588 370.664 302.588C371.133 302.588 371.623 302.825 372.134 303.299L371.478 304.393C371.045 303.982 370.644 303.777 370.274 303.777C369.873 303.777 369.525 303.969 369.229 304.352C368.937 304.734 368.791 305.188 368.791 305.712V309H367.54V302.711H368.791ZM373.651 300.065C373.856 300.065 374.032 300.136 374.178 300.277C374.324 300.419 374.396 300.592 374.396 300.797C374.396 300.997 374.324 301.171 374.178 301.316C374.032 301.462 373.856 301.535 373.651 301.535C373.46 301.535 373.291 301.462 373.146 301.316C373 301.166 372.927 300.993 372.927 300.797C372.927 300.605 373 300.437 373.146 300.291C373.291 300.141 373.46 300.065 373.651 300.065ZM373.036 302.711H374.28V309H373.036V302.711Z" fill="white"/>
<path d="M363.555 322.327C364.43 322.327 365.152 322.787 365.722 323.708C366.296 324.624 366.583 325.788 366.583 327.201C366.583 328.65 366.296 329.828 365.722 330.735C365.152 331.642 364.411 332.096 363.5 332.096C362.575 332.096 361.832 331.651 361.271 330.763C360.711 329.874 360.431 328.696 360.431 327.229C360.431 325.779 360.72 324.601 361.299 323.694C361.878 322.783 362.63 322.327 363.555 322.327ZM363.568 323.626H363.5C362.976 323.626 362.559 323.95 362.249 324.597C361.944 325.239 361.791 326.112 361.791 327.215C361.791 328.345 361.941 329.231 362.242 329.874C362.543 330.517 362.958 330.838 363.486 330.838C364.015 330.838 364.432 330.517 364.737 329.874C365.043 329.231 365.195 328.359 365.195 327.256C365.195 326.148 365.047 325.267 364.751 324.61C364.459 323.954 364.065 323.626 363.568 323.626ZM369.522 326.442H369.604C370.201 326.442 370.655 326.319 370.965 326.073C371.279 325.827 371.437 325.469 371.437 325C371.437 324.576 371.284 324.232 370.979 323.968C370.678 323.703 370.281 323.571 369.789 323.571C369.292 323.571 368.741 323.726 368.135 324.036V322.73C368.691 322.452 369.297 322.313 369.953 322.313C370.833 322.313 371.525 322.544 372.031 323.004C372.542 323.464 372.797 324.093 372.797 324.891C372.797 325.374 372.699 325.782 372.503 326.114C372.307 326.442 371.995 326.725 371.566 326.962C371.94 327.108 372.214 327.288 372.387 327.502C372.56 327.712 372.694 327.967 372.79 328.268C372.886 328.568 372.934 328.887 372.934 329.225C372.934 330.059 372.656 330.749 372.1 331.296C371.544 331.838 370.842 332.109 369.994 332.109C369.27 332.109 368.57 331.934 367.896 331.583V330.093C368.616 330.544 369.315 330.77 369.994 330.77C370.454 330.77 370.824 330.633 371.102 330.359C371.384 330.086 371.525 329.724 371.525 329.272C371.525 328.894 371.409 328.564 371.177 328.281C371.04 328.122 370.887 328.006 370.719 327.933C370.555 327.855 370.197 327.782 369.646 327.714L369.522 327.7V326.442Z" fill="white"/>
<circle cx="368" cy="345" r="3" fill="#FEFAE0"/>
</g>
<rect x="247.62" y="57.3037" width="157.461" height="47.2382" rx="23.6191" fill="#EEEEEE"/>
<rect x="273.864" y="903.393" width="103.924" height="4.19895" rx="2.09948" fill="#EEEEEE"/>
</g>
<rect x="129" y="72" width="393.652" height="852.388" rx="53.5367" stroke="#EEEEEE" stroke-width="16.7958"/>
</g>
<defs>
<filter id="filter0_d_509_5012" x="0.93189" y="0.617756" width="591.003" height="1049.74" filterUnits="userSpaceOnUse" color-interpolation-filters="sRGB">
<feFlood flood-opacity="0" result="BackgroundImageFix"/>
<feColorMatrix in="SourceAlpha" type="matrix" values="0 0 0 0 0 0 0 0 0 0 0 0 0 0 0 0 0 0 127 0" result="hardAlpha"/>
<feOffset dx="-29.3927" dy="27.2932"/>
<feGaussianBlur stdDeviation="45.1387"/>
<feComposite in2="hardAlpha" operator="out"/>
<feColorMatrix type="matrix" values="0 0 0 0 0 0 0 0 0 0 0 0 0 0 0 0 0 0 0.13 0"/>
<feBlend mode="normal" in2="BackgroundImageFix" result="effect1_dropShadow_509_5012"/>
<feBlend mode="normal" in="SourceGraphic" in2="effect1_dropShadow_509_5012" result="shape"/>
</filter>
<filter id="filter1_d_509_5012" x="290" y="275" width="60" height="92" filterUnits="userSpaceOnUse" color-interpolation-filters="sRGB">
<feFlood flood-opacity="0" result="BackgroundImageFix"/>
<feColorMatrix in="SourceAlpha" type="matrix" values="0 0 0 0 0 0 0 0 0 0 0 0 0 0 0 0 0 0 127 0" result="hardAlpha"/>
<feOffset dy="4"/>
<feGaussianBlur stdDeviation="5"/>
<feComposite in2="hardAlpha" operator="out"/>
<feColorMatrix type="matrix" values="0 0 0 0 0 0 0 0 0 0.45098 0 0 0 0 0.8 0 0 0 0.26 0"/>
<feBlend mode="normal" in2="BackgroundImageFix" result="effect1_dropShadow_509_5012"/>
<feBlend mode="normal" in="SourceGraphic" in2="effect1_dropShadow_509_5012" result="shape"/>
</filter>
<clipPath id="clip0_509_5012">
<rect x="129" y="72" width="393.652" height="852.388" rx="53.5367" fill="white"/>
</clipPath>
<clipPath id="clip1_509_5012">
<rect width="390" height="844" fill="white" transform="translate(129 72)"/>
</clipPath>
</defs>
</svg>
