<svg width="592" height="1051" viewBox="0 0 592 1051" fill="none" xmlns="http://www.w3.org/2000/svg">
<g filter="url(#filter0_d_509_5016)">
<g clip-path="url(#clip0_509_5016)">
<rect x="129" y="72" width="393.652" height="852.388" rx="53.5367" fill="#2C2B78"/>
<rect width="390" height="844" transform="translate(129 72)" fill="white"/>
<g filter="url(#filter1_d_509_5016)">
<path d="M213.208 159.84H217.592V176.544H225.72V180H213.208V159.84ZM228.241 180V164.736H232.497V180H228.241ZM230.385 161.472C229.659 161.472 229.094 161.269 228.689 160.864C228.283 160.437 228.081 159.915 228.081 159.296C228.081 158.677 228.283 158.165 228.689 157.76C229.094 157.333 229.659 157.12 230.385 157.12C231.089 157.12 231.643 157.333 232.049 157.76C232.475 158.165 232.689 158.677 232.689 159.296C232.689 159.915 232.486 160.437 232.081 160.864C231.675 161.269 231.11 161.472 230.385 161.472ZM240.989 180H236.733V164.736H240.061L240.573 166.688C241.277 165.963 242.045 165.408 242.877 165.024C243.73 164.619 244.669 164.416 245.693 164.416C247.378 164.416 248.669 164.875 249.565 165.792C250.461 166.709 250.909 168.043 250.909 169.792V180H246.653V170.24C246.653 169.451 246.461 168.832 246.077 168.384C245.693 167.915 245.127 167.68 244.381 167.68C243.826 167.68 243.239 167.84 242.621 168.16C242.023 168.459 241.479 168.875 240.989 169.408V180ZM268.395 173.472H258.251V173.6C258.251 174.816 258.678 175.723 259.531 176.32C260.384 176.917 261.483 177.216 262.827 177.216C263.68 177.216 264.427 177.131 265.067 176.96C265.728 176.789 266.326 176.587 266.859 176.352L267.627 179.328C267.051 179.605 266.326 179.84 265.451 180.032C264.576 180.245 263.542 180.352 262.347 180.352C261.195 180.352 260.107 180.203 259.083 179.904C258.08 179.584 257.195 179.104 256.427 178.464C255.68 177.824 255.083 177.013 254.635 176.032C254.187 175.051 253.963 173.877 253.963 172.512C253.963 171.296 254.144 170.197 254.507 169.216C254.87 168.213 255.382 167.36 256.043 166.656C256.726 165.952 257.536 165.408 258.475 165.024C259.414 164.619 260.459 164.416 261.611 164.416C263.68 164.416 265.323 165.045 266.539 166.304C267.776 167.563 268.395 169.323 268.395 171.584V173.472ZM264.043 170.56C264.043 170.155 263.99 169.76 263.883 169.376C263.798 168.992 263.648 168.661 263.435 168.384C263.222 168.085 262.955 167.851 262.635 167.68C262.315 167.509 261.92 167.424 261.451 167.424C260.598 167.424 259.894 167.712 259.339 168.288C258.784 168.864 258.454 169.643 258.347 170.624L264.043 170.56ZM271.645 166.08C272.562 165.547 273.533 165.141 274.557 164.864C275.581 164.565 276.669 164.416 277.821 164.416C278.738 164.416 279.57 164.523 280.317 164.736C281.085 164.949 281.735 165.291 282.269 165.76C282.823 166.208 283.239 166.795 283.517 167.52C283.815 168.224 283.965 169.077 283.965 170.08V180H280.669L280.285 178.432H280.157C279.666 179.029 279.037 179.499 278.269 179.84C277.522 180.181 276.647 180.352 275.645 180.352C274.813 180.352 274.077 180.235 273.437 180C272.797 179.744 272.253 179.413 271.805 179.008C271.357 178.581 271.015 178.08 270.781 177.504C270.567 176.928 270.461 176.309 270.461 175.648C270.461 174.773 270.642 174.027 271.005 173.408C271.389 172.768 271.911 172.245 272.573 171.84C273.234 171.435 274.002 171.136 274.877 170.944C275.773 170.752 276.733 170.656 277.757 170.656H279.677V169.728C279.677 169.024 279.453 168.512 279.005 168.192C278.578 167.851 277.97 167.68 277.181 167.68C276.562 167.68 275.922 167.776 275.261 167.968C274.621 168.16 273.906 168.469 273.117 168.896L271.645 166.08ZM279.709 173.312L278.333 173.344C277.031 173.387 276.125 173.611 275.613 174.016C275.101 174.4 274.845 174.869 274.845 175.424C274.845 176.149 275.058 176.651 275.485 176.928C275.933 177.184 276.434 177.312 276.989 177.312C277.543 177.312 278.066 177.152 278.557 176.832C279.069 176.512 279.453 176.139 279.709 175.712V173.312ZM287.576 180V164.736H290.872L291.352 167.488C291.715 166.677 292.291 165.963 293.08 165.344C293.87 164.725 294.862 164.416 296.056 164.416C296.547 164.416 296.984 164.469 297.368 164.576C297.752 164.683 298.072 164.811 298.328 164.96L297.624 168.32C297.39 168.192 297.091 168.085 296.728 168C296.366 167.893 295.939 167.84 295.448 167.84C294.403 167.84 293.528 168.192 292.824 168.896C292.142 169.579 291.8 170.709 291.8 172.288V180H287.576ZM313.02 172.128H318.14L317.212 169.44C316.913 168.608 316.636 167.776 316.38 166.944C316.124 166.091 315.879 165.237 315.644 164.384H315.58C315.345 165.195 315.089 166.027 314.812 166.88C314.535 167.712 314.247 168.565 313.948 169.44L313.02 172.128ZM313.404 159.84H317.948L325.404 180H320.764L319.196 175.36H312.028L310.46 180H305.884L313.404 159.84ZM327.798 180V157.152H331.99V180H327.798ZM335.791 169.92C335.791 169.088 335.951 168.331 336.271 167.648C336.613 166.965 337.071 166.389 337.647 165.92C338.245 165.429 338.938 165.056 339.727 164.8C340.538 164.544 341.423 164.416 342.383 164.416C342.746 164.416 343.141 164.448 343.567 164.512C343.994 164.555 344.389 164.629 344.751 164.736H351.279V167.424H349.903L347.919 167.136C348.197 167.477 348.421 167.904 348.591 168.416C348.783 168.928 348.879 169.44 348.879 169.952C348.879 171.573 348.293 172.885 347.119 173.888C345.967 174.869 344.378 175.36 342.351 175.36C341.818 175.36 341.349 175.317 340.943 175.232C340.41 175.445 340.143 175.797 340.143 176.288C340.143 176.629 340.261 176.885 340.495 177.056C340.73 177.227 341.146 177.312 341.743 177.312H345.167C346.853 177.312 348.197 177.685 349.199 178.432C350.223 179.157 350.735 180.331 350.735 181.952C350.735 182.784 350.533 183.541 350.127 184.224C349.743 184.928 349.189 185.525 348.463 186.016C347.738 186.528 346.863 186.923 345.839 187.2C344.815 187.477 343.674 187.616 342.415 187.616C340.09 187.616 338.245 187.2 336.879 186.368C335.535 185.557 334.863 184.384 334.863 182.848C334.863 182.144 335.098 181.525 335.567 180.992C336.037 180.48 336.687 180.075 337.519 179.776C337.221 179.563 336.922 179.264 336.623 178.88C336.325 178.475 336.175 177.973 336.175 177.376C336.175 176.672 336.389 176.064 336.815 175.552C337.242 175.04 337.786 174.635 338.447 174.336C338.127 174.165 337.807 173.952 337.487 173.696C337.189 173.419 336.911 173.099 336.655 172.736C336.399 172.373 336.186 171.957 336.015 171.488C335.866 171.019 335.791 170.496 335.791 169.92ZM339.887 180.512C339.567 180.683 339.301 180.907 339.087 181.184C338.874 181.461 338.767 181.813 338.767 182.24C338.767 182.859 339.045 183.371 339.599 183.776C340.175 184.203 341.157 184.416 342.543 184.416C343.93 184.416 344.943 184.181 345.583 183.712C346.223 183.243 346.543 182.709 346.543 182.112C346.543 181.515 346.341 181.099 345.935 180.864C345.53 180.629 344.901 180.512 344.047 180.512H339.887ZM344.719 169.888C344.719 169.056 344.495 168.427 344.047 168C343.599 167.573 343.034 167.36 342.351 167.36C341.647 167.36 341.071 167.573 340.623 168C340.197 168.427 339.983 169.045 339.983 169.856C339.983 170.709 340.207 171.349 340.655 171.776C341.103 172.203 341.669 172.416 342.351 172.416C343.055 172.416 343.621 172.203 344.047 171.776C344.495 171.349 344.719 170.72 344.719 169.888ZM367.395 173.472H357.251V173.6C357.251 174.816 357.678 175.723 358.531 176.32C359.384 176.917 360.483 177.216 361.827 177.216C362.68 177.216 363.427 177.131 364.067 176.96C364.728 176.789 365.326 176.587 365.859 176.352L366.627 179.328C366.051 179.605 365.326 179.84 364.451 180.032C363.576 180.245 362.542 180.352 361.347 180.352C360.195 180.352 359.107 180.203 358.083 179.904C357.08 179.584 356.195 179.104 355.427 178.464C354.68 177.824 354.083 177.013 353.635 176.032C353.187 175.051 352.963 173.877 352.963 172.512C352.963 171.296 353.144 170.197 353.507 169.216C353.87 168.213 354.382 167.36 355.043 166.656C355.726 165.952 356.536 165.408 357.475 165.024C358.414 164.619 359.459 164.416 360.611 164.416C362.68 164.416 364.323 165.045 365.539 166.304C366.776 167.563 367.395 169.323 367.395 171.584V173.472ZM363.043 170.56C363.043 170.155 362.99 169.76 362.883 169.376C362.798 168.992 362.648 168.661 362.435 168.384C362.222 168.085 361.955 167.851 361.635 167.68C361.315 167.509 360.92 167.424 360.451 167.424C359.598 167.424 358.894 167.712 358.339 168.288C357.784 168.864 357.454 169.643 357.347 170.624L363.043 170.56ZM385.525 172.416C385.525 173.632 385.343 174.731 384.981 175.712C384.618 176.693 384.117 177.536 383.477 178.24C382.837 178.923 382.079 179.445 381.205 179.808C380.33 180.171 379.381 180.352 378.357 180.352C377.354 180.352 376.501 180.203 375.797 179.904C375.093 179.584 374.474 179.147 373.941 178.592H373.813L373.525 180H370.453V157.152H374.677V165.984C375.21 165.493 375.829 165.109 376.533 164.832C377.258 164.555 378.026 164.416 378.837 164.416C380.927 164.416 382.559 165.12 383.733 166.528C384.927 167.936 385.525 169.899 385.525 172.416ZM381.141 172.512C381.141 170.933 380.831 169.739 380.213 168.928C379.594 168.096 378.719 167.68 377.589 167.68C376.991 167.68 376.437 167.829 375.925 168.128C375.413 168.405 375.007 168.725 374.709 169.088V176.096C374.986 176.416 375.338 176.683 375.765 176.896C376.213 177.109 376.682 177.216 377.173 177.216C377.685 177.216 378.175 177.12 378.645 176.928C379.135 176.736 379.562 176.448 379.925 176.064C380.309 175.68 380.607 175.2 380.821 174.624C381.034 174.027 381.141 173.323 381.141 172.512ZM388.576 180V164.736H391.872L392.352 167.488C392.715 166.677 393.291 165.963 394.08 165.344C394.87 164.725 395.862 164.416 397.056 164.416C397.547 164.416 397.984 164.469 398.368 164.576C398.752 164.683 399.072 164.811 399.328 164.96L398.624 168.32C398.39 168.192 398.091 168.085 397.728 168C397.366 167.893 396.939 167.84 396.448 167.84C395.403 167.84 394.528 168.192 393.824 168.896C393.142 169.579 392.8 170.709 392.8 172.288V180H388.576ZM400.832 166.08C401.75 165.547 402.72 165.141 403.744 164.864C404.768 164.565 405.856 164.416 407.008 164.416C407.926 164.416 408.758 164.523 409.504 164.736C410.272 164.949 410.923 165.291 411.456 165.76C412.011 166.208 412.427 166.795 412.704 167.52C413.003 168.224 413.152 169.077 413.152 170.08V180H409.856L409.472 178.432H409.344C408.854 179.029 408.224 179.499 407.456 179.84C406.71 180.181 405.835 180.352 404.832 180.352C404 180.352 403.264 180.235 402.624 180C401.984 179.744 401.44 179.413 400.992 179.008C400.544 178.581 400.203 178.08 399.968 177.504C399.755 176.928 399.648 176.309 399.648 175.648C399.648 174.773 399.83 174.027 400.192 173.408C400.576 172.768 401.099 172.245 401.76 171.84C402.422 171.435 403.19 171.136 404.064 170.944C404.96 170.752 405.92 170.656 406.944 170.656H408.864V169.728C408.864 169.024 408.64 168.512 408.192 168.192C407.766 167.851 407.158 167.68 406.368 167.68C405.75 167.68 405.11 167.776 404.448 167.968C403.808 168.16 403.094 168.469 402.304 168.896L400.832 166.08ZM408.896 173.312L407.52 173.344C406.219 173.387 405.312 173.611 404.8 174.016C404.288 174.4 404.032 174.869 404.032 175.424C404.032 176.149 404.246 176.651 404.672 176.928C405.12 177.184 405.622 177.312 406.176 177.312C406.731 177.312 407.254 177.152 407.744 176.832C408.256 176.512 408.64 176.139 408.896 175.712V173.312Z" fill="black"/>
</g>
<path d="M187.167 169.042H169.419L177.571 160.89L175.5 158.833L163.833 170.5L175.5 182.167L177.556 180.11L169.419 171.958H187.167V169.042Z" fill="#D4A373"/>
<rect x="435" y="167.513" width="20" height="2.97297" rx="1.48649" fill="#D4A373"/>
<rect x="443.513" y="179" width="20" height="2.97297" rx="1.48649" transform="rotate(-90 443.513 179)" fill="#D4A373"/>
<rect x="465" y="161" width="19" height="19" fill="white"/>
<rect x="464" y="168" width="20" height="2.97" rx="1.485" fill="#D4A373"/>
<path d="M154 402C154 390.954 162.954 382 174 382H474C485.046 382 494 390.954 494 402V510C494 521.046 485.046 530 474 530H174C162.954 530 154 521.046 154 510V402Z" fill="#FBF4F4"/>
<rect x="177" y="402" width="26" height="26" rx="5" fill="white"/>
<path d="M219.762 407.311V413.915H227.904V407.311H230.936V423H227.904V416.374H219.762V423H216.729V407.311H219.762ZM235.9 407.311L239.808 416.992L243.918 407.311H246.479L250.612 417.025L254.509 407.311H257.608L251.151 423.202H250.129L245.188 411.567L240.224 423.202H239.235L232.767 407.311H235.9ZM262.988 407.109C264.478 407.109 265.661 407.536 266.537 408.389C267.42 409.235 267.862 410.366 267.862 411.781C267.862 412.859 267.532 414.027 266.874 415.285C266.222 416.542 265.073 418.208 263.426 420.282H268.805V423H258.642V422.674C259.825 421.214 260.839 419.904 261.685 418.744C262.539 417.576 263.197 416.61 263.662 415.846C264.126 415.075 264.455 414.42 264.65 413.881C264.845 413.342 264.942 412.784 264.942 412.208C264.942 411.489 264.71 410.886 264.246 410.399C263.789 409.905 263.231 409.658 262.572 409.658C261.389 409.658 260.161 410.332 258.889 411.68V408.603C260.229 407.607 261.595 407.109 262.988 407.109Z" fill="black"/>
<path d="M379.218 407.311H381.307V423H379.049V410.792L374.22 416.857H373.805L368.931 410.792V423H366.685V407.311H368.796L374.018 413.757L379.218 407.311ZM389.359 412.646C390.931 412.646 392.238 413.155 393.278 414.173C394.319 415.184 394.839 416.456 394.839 417.991C394.839 419.481 394.312 420.72 393.256 421.708C392.2 422.689 390.871 423.18 389.269 423.18C387.719 423.18 386.424 422.682 385.383 421.686C384.343 420.683 383.822 419.432 383.822 417.935C383.822 416.423 384.346 415.165 385.395 414.162C386.45 413.151 387.772 412.646 389.359 412.646ZM389.247 414.487C388.266 414.487 387.461 414.809 386.832 415.453C386.203 416.097 385.889 416.917 385.889 417.913C385.889 418.901 386.211 419.709 386.854 420.338C387.498 420.96 388.326 421.271 389.336 421.271C390.34 421.271 391.16 420.956 391.796 420.327C392.44 419.691 392.762 418.878 392.762 417.89C392.762 416.909 392.429 416.097 391.762 415.453C391.096 414.809 390.257 414.487 389.247 414.487ZM404.003 407.311H406.059V423H401.69C400.163 423 398.942 422.517 398.029 421.551C397.123 420.585 396.67 419.29 396.67 417.666C396.67 416.146 397.145 414.895 398.096 413.915C399.055 412.934 400.275 412.443 401.757 412.443C402.446 412.443 403.195 412.589 404.003 412.881V407.311ZM404.003 421.248V414.701C403.367 414.379 402.723 414.218 402.072 414.218C401.054 414.218 400.241 414.551 399.635 415.217C399.036 415.884 398.736 416.782 398.736 417.913C398.736 418.976 398.998 419.796 399.522 420.372C399.837 420.716 400.17 420.949 400.522 421.068C400.874 421.188 401.507 421.248 402.42 421.248H404.003ZM417.637 418.014H410.371C410.424 419.002 410.753 419.788 411.359 420.372C411.973 420.956 412.763 421.248 413.729 421.248C415.077 421.248 416.319 420.829 417.458 419.99V421.989C416.829 422.409 416.203 422.708 415.582 422.888C414.968 423.067 414.246 423.157 413.415 423.157C412.277 423.157 411.356 422.921 410.652 422.45C409.948 421.978 409.383 421.345 408.956 420.552C408.537 419.751 408.327 418.826 408.327 417.778C408.327 416.206 408.773 414.929 409.664 413.948C410.555 412.96 411.711 412.466 413.134 412.466C414.504 412.466 415.597 412.945 416.413 413.903C417.229 414.862 417.637 416.146 417.637 417.755V418.014ZM410.416 416.79H415.616C415.563 415.973 415.32 415.345 414.886 414.903C414.451 414.461 413.868 414.24 413.134 414.24C412.4 414.24 411.797 414.461 411.326 414.903C410.861 415.345 410.558 415.973 410.416 416.79ZM422.051 412.668V415.038L422.163 414.858C423.151 413.263 424.14 412.466 425.128 412.466C425.899 412.466 426.704 412.855 427.542 413.634L426.464 415.431C425.753 414.757 425.094 414.42 424.488 414.42C423.829 414.42 423.256 414.734 422.77 415.363C422.29 415.992 422.051 416.737 422.051 417.598V423H419.996V412.668H422.051ZM435.471 416.79V421.181C435.471 421.533 435.591 421.708 435.831 421.708C436.078 421.708 436.463 421.525 436.987 421.158V422.405C436.523 422.704 436.149 422.906 435.864 423.011C435.587 423.124 435.295 423.18 434.988 423.18C434.112 423.18 433.596 422.835 433.438 422.146C432.57 422.82 431.645 423.157 430.665 423.157C429.946 423.157 429.347 422.921 428.868 422.45C428.389 421.971 428.149 421.372 428.149 420.653C428.149 420.001 428.381 419.421 428.845 418.912C429.317 418.396 429.983 417.987 430.844 417.688L433.461 416.79V416.239C433.461 414.996 432.84 414.375 431.597 414.375C430.481 414.375 429.396 414.951 428.34 416.104V413.87C429.133 412.934 430.275 412.466 431.765 412.466C432.881 412.466 433.775 412.758 434.449 413.342C434.674 413.529 434.876 413.78 435.056 414.094C435.235 414.401 435.348 414.712 435.393 415.026C435.445 415.333 435.471 415.921 435.471 416.79ZM433.461 420.956V417.89L432.091 418.418C431.395 418.695 430.9 418.976 430.608 419.26C430.324 419.537 430.182 419.885 430.182 420.305C430.182 420.731 430.316 421.08 430.586 421.349C430.863 421.619 431.219 421.753 431.653 421.753C432.304 421.753 432.907 421.488 433.461 420.956ZM437.347 414.308L441.188 410.534V412.668H444.456V414.51H441.188V419.575C441.188 420.758 441.678 421.349 442.659 421.349C443.392 421.349 444.167 421.102 444.983 420.608V422.517C444.197 422.959 443.34 423.18 442.412 423.18C441.476 423.18 440.697 422.906 440.076 422.36C439.881 422.195 439.72 422.012 439.593 421.81C439.465 421.6 439.357 421.33 439.267 421.001C439.185 420.664 439.144 420.028 439.144 419.092V414.51H437.347V414.308ZM455.259 418.014H447.993C448.046 419.002 448.375 419.788 448.981 420.372C449.595 420.956 450.385 421.248 451.351 421.248C452.699 421.248 453.942 420.829 455.08 419.99V421.989C454.451 422.409 453.826 422.708 453.204 422.888C452.59 423.067 451.868 423.157 451.037 423.157C449.899 423.157 448.978 422.921 448.274 422.45C447.57 421.978 447.005 421.345 446.578 420.552C446.159 419.751 445.949 418.826 445.949 417.778C445.949 416.206 446.395 414.929 447.286 413.948C448.177 412.96 449.333 412.466 450.756 412.466C452.126 412.466 453.219 412.945 454.035 413.903C454.851 414.862 455.259 416.146 455.259 417.755V418.014ZM448.038 416.79H453.238C453.185 415.973 452.942 415.345 452.508 414.903C452.074 414.461 451.49 414.24 450.756 414.24C450.022 414.24 449.419 414.461 448.948 414.903C448.484 415.345 448.18 415.973 448.038 416.79Z" fill="black"/>
<path fill-rule="evenodd" clip-rule="evenodd" d="M352 419.5C354.485 419.5 356.5 417.485 356.5 415C356.5 412.515 354.485 410.5 352 410.5C349.515 410.5 347.5 412.515 347.5 415C347.5 417.485 349.515 419.5 352 419.5Z" fill="#1F1F1F"/>
<g filter="url(#filter2_d_509_5016)">
<rect x="176" y="445" width="308" height="19" rx="9.5" fill="#D9D9D9"/>
</g>
<rect x="176" y="445" width="100" height="19" rx="9.5" fill="white"/>
<path d="M183.53 486.722H185.139V499H181.72C180.524 499 179.569 498.622 178.854 497.866C178.146 497.11 177.791 496.097 177.791 494.825C177.791 493.636 178.163 492.657 178.907 491.89C179.657 491.122 180.612 490.738 181.772 490.738C182.312 490.738 182.897 490.853 183.53 491.081V486.722ZM183.53 497.629V492.505C183.032 492.253 182.528 492.127 182.019 492.127C181.222 492.127 180.586 492.388 180.111 492.909C179.643 493.431 179.408 494.134 179.408 495.019C179.408 495.851 179.613 496.492 180.023 496.943C180.27 497.213 180.53 497.395 180.806 497.488C181.081 497.582 181.576 497.629 182.291 497.629H183.53ZM192.46 499V497.972C192.12 498.341 191.73 498.628 191.291 498.833C190.857 499.038 190.424 499.141 189.99 499.141C189.48 499.141 189.009 499.015 188.575 498.763C188.147 498.505 187.822 498.159 187.6 497.726C187.383 497.286 187.274 496.56 187.274 495.546V490.914H188.874V495.528C188.874 496.378 188.994 496.973 189.234 497.312C189.48 497.646 189.908 497.813 190.518 497.813C191.279 497.813 191.927 497.441 192.46 496.697V490.914H194.06V499H192.46ZM203.2 495.098H197.514C197.555 495.871 197.812 496.486 198.287 496.943C198.768 497.4 199.386 497.629 200.142 497.629C201.196 497.629 202.169 497.301 203.06 496.645V498.209C202.567 498.537 202.078 498.771 201.592 498.912C201.111 499.053 200.546 499.123 199.896 499.123C199.005 499.123 198.284 498.938 197.733 498.569C197.183 498.2 196.74 497.705 196.406 497.084C196.078 496.457 195.914 495.733 195.914 494.913C195.914 493.683 196.263 492.684 196.96 491.916C197.657 491.143 198.562 490.756 199.676 490.756C200.748 490.756 201.604 491.131 202.242 491.881C202.881 492.631 203.2 493.636 203.2 494.896V495.098ZM197.549 494.14H201.618C201.577 493.501 201.387 493.009 201.047 492.663C200.707 492.317 200.25 492.145 199.676 492.145C199.102 492.145 198.63 492.317 198.261 492.663C197.897 493.009 197.66 493.501 197.549 494.14ZM209.124 486.704H219.381V488.269H215.101V499H213.334V488.269H209.124V486.704ZM224.698 490.896C225.929 490.896 226.951 491.295 227.766 492.092C228.58 492.883 228.987 493.879 228.987 495.08C228.987 496.246 228.574 497.216 227.748 497.989C226.922 498.757 225.882 499.141 224.628 499.141C223.415 499.141 222.401 498.751 221.587 497.972C220.772 497.187 220.365 496.208 220.365 495.036C220.365 493.853 220.775 492.868 221.596 492.083C222.422 491.292 223.456 490.896 224.698 490.896ZM224.61 492.338C223.843 492.338 223.213 492.59 222.721 493.094C222.229 493.598 221.982 494.239 221.982 495.019C221.982 495.792 222.234 496.425 222.738 496.917C223.242 497.403 223.89 497.646 224.681 497.646C225.466 497.646 226.107 497.4 226.605 496.908C227.109 496.41 227.361 495.774 227.361 495.001C227.361 494.233 227.101 493.598 226.579 493.094C226.058 492.59 225.401 492.338 224.61 492.338ZM236.159 486.722H237.768V499H234.349C233.153 499 232.198 498.622 231.483 497.866C230.774 497.11 230.42 496.097 230.42 494.825C230.42 493.636 230.792 492.657 231.536 491.89C232.286 491.122 233.241 490.738 234.401 490.738C234.94 490.738 235.526 490.853 236.159 491.081V486.722ZM236.159 497.629V492.505C235.661 492.253 235.157 492.127 234.647 492.127C233.851 492.127 233.215 492.388 232.74 492.909C232.271 493.431 232.037 494.134 232.037 495.019C232.037 495.851 232.242 496.492 232.652 496.943C232.898 497.213 233.159 497.395 233.435 497.488C233.71 497.582 234.205 497.629 234.92 497.629H236.159ZM245.019 494.14V497.576C245.019 497.852 245.112 497.989 245.3 497.989C245.493 497.989 245.795 497.846 246.205 497.559V498.534C245.842 498.769 245.549 498.927 245.326 499.009C245.109 499.097 244.881 499.141 244.641 499.141C243.955 499.141 243.551 498.871 243.428 498.332C242.748 498.859 242.024 499.123 241.257 499.123C240.694 499.123 240.226 498.938 239.851 498.569C239.476 498.194 239.288 497.726 239.288 497.163C239.288 496.653 239.47 496.199 239.833 495.801C240.202 495.396 240.724 495.077 241.397 494.843L243.445 494.14V493.709C243.445 492.736 242.959 492.25 241.986 492.25C241.113 492.25 240.264 492.701 239.438 493.604V491.854C240.059 491.122 240.952 490.756 242.118 490.756C242.991 490.756 243.691 490.984 244.219 491.441C244.395 491.588 244.553 491.784 244.693 492.03C244.834 492.271 244.922 492.514 244.957 492.76C244.998 493 245.019 493.46 245.019 494.14ZM243.445 497.4V495.001L242.373 495.414C241.828 495.631 241.441 495.851 241.213 496.073C240.99 496.29 240.879 496.562 240.879 496.891C240.879 497.225 240.984 497.497 241.195 497.708C241.412 497.919 241.69 498.024 242.03 498.024C242.54 498.024 243.012 497.816 243.445 497.4ZM252.568 490.914H254.37L248.648 503.122H246.864L249.615 497.269L246.486 490.914H248.306L250.485 495.476L252.568 490.914ZM263.027 486.722H264.785V499H263.027V486.722ZM272.959 486.563C274.084 486.563 275.013 487.155 275.745 488.339C276.483 489.517 276.853 491.014 276.853 492.83C276.853 494.693 276.483 496.208 275.745 497.374C275.013 498.54 274.061 499.123 272.889 499.123C271.699 499.123 270.744 498.552 270.023 497.409C269.303 496.267 268.942 494.752 268.942 492.865C268.942 491.002 269.314 489.487 270.059 488.321C270.803 487.149 271.77 486.563 272.959 486.563ZM272.977 488.233H272.889C272.215 488.233 271.679 488.649 271.28 489.481C270.888 490.308 270.691 491.43 270.691 492.848C270.691 494.301 270.885 495.44 271.271 496.267C271.658 497.093 272.191 497.506 272.871 497.506C273.551 497.506 274.087 497.093 274.479 496.267C274.872 495.44 275.068 494.318 275.068 492.9C275.068 491.477 274.878 490.343 274.497 489.499C274.122 488.655 273.615 488.233 272.977 488.233ZM279.278 497.005C279.577 497.005 279.832 497.11 280.043 497.321C280.254 497.532 280.359 497.787 280.359 498.086C280.359 498.379 280.254 498.628 280.043 498.833C279.832 499.038 279.577 499.141 279.278 499.141C278.991 499.141 278.742 499.038 278.531 498.833C278.32 498.628 278.215 498.379 278.215 498.086C278.215 497.787 278.317 497.532 278.522 497.321C278.728 497.11 278.979 497.005 279.278 497.005ZM279.419 490.756C279.718 490.756 279.973 490.861 280.184 491.072C280.395 491.283 280.5 491.538 280.5 491.837C280.5 492.13 280.395 492.382 280.184 492.593C279.973 492.798 279.718 492.9 279.419 492.9C279.132 492.9 278.883 492.798 278.672 492.593C278.467 492.382 278.364 492.13 278.364 491.837C278.364 491.538 278.467 491.283 278.672 491.072C278.877 490.861 279.126 490.756 279.419 490.756ZM283.163 486.722H288.612V488.286H284.763V491.389C284.886 491.377 285.012 491.371 285.141 491.371C286.33 491.371 287.309 491.734 288.076 492.461C288.844 493.182 289.228 494.102 289.228 495.221C289.228 496.375 288.847 497.315 288.085 498.042C287.329 498.763 286.348 499.123 285.141 499.123C284.145 499.123 283.178 498.883 282.24 498.402V496.592C283.125 497.166 283.989 497.453 284.833 497.453C285.571 497.453 286.189 497.239 286.688 496.812C287.191 496.378 287.443 495.848 287.443 495.221C287.443 494.57 287.171 494.028 286.626 493.595C286.081 493.155 285.401 492.936 284.587 492.936C283.89 492.936 283.415 492.994 283.163 493.111V486.722ZM294.914 486.563C296.039 486.563 296.968 487.155 297.7 488.339C298.438 489.517 298.808 491.014 298.808 492.83C298.808 494.693 298.438 496.208 297.7 497.374C296.968 498.54 296.016 499.123 294.844 499.123C293.654 499.123 292.699 498.552 291.979 497.409C291.258 496.267 290.897 494.752 290.897 492.865C290.897 491.002 291.27 489.487 292.014 488.321C292.758 487.149 293.725 486.563 294.914 486.563ZM294.932 488.233H294.844C294.17 488.233 293.634 488.649 293.235 489.481C292.843 490.308 292.646 491.43 292.646 492.848C292.646 494.301 292.84 495.44 293.227 496.267C293.613 497.093 294.146 497.506 294.826 497.506C295.506 497.506 296.042 497.093 296.435 496.267C296.827 495.44 297.023 494.318 297.023 492.9C297.023 491.477 296.833 490.343 296.452 489.499C296.077 488.655 295.57 488.233 294.932 488.233ZM309.627 486.651H310.866L316.359 499H314.558L312.923 495.361H307.702L306.155 499H304.354L309.627 486.651ZM312.202 493.797L310.225 489.35L308.388 493.797H312.202ZM327.486 486.722H329.121V499H327.354V489.446L323.575 494.192H323.25L319.436 489.446V499H317.678V486.722H319.33L323.417 491.767L327.486 486.722Z" fill="black"/>
<path d="M360.639 486.722H362.396V499H360.639V486.722ZM372.108 486.722H373.708V491.978C374.376 491.163 375.205 490.756 376.195 490.756C376.734 490.756 377.218 490.891 377.646 491.16C378.073 491.43 378.39 491.802 378.595 492.276C378.806 492.751 378.911 493.457 378.911 494.395V499H377.312V493.999C377.312 493.407 377.165 492.933 376.872 492.575C376.585 492.212 376.204 492.03 375.729 492.03C375.378 492.03 375.047 492.121 374.736 492.303C374.426 492.484 374.083 492.786 373.708 493.208V499H372.108V486.722ZM388.263 491.854H388.368C389.136 491.854 389.719 491.696 390.117 491.38C390.521 491.063 390.724 490.604 390.724 490C390.724 489.455 390.527 489.013 390.135 488.673C389.748 488.333 389.238 488.163 388.605 488.163C387.967 488.163 387.258 488.362 386.479 488.761V487.082C387.193 486.725 387.973 486.546 388.816 486.546C389.947 486.546 390.838 486.842 391.488 487.434C392.145 488.025 392.473 488.834 392.473 489.859C392.473 490.48 392.347 491.005 392.095 491.433C391.843 491.854 391.441 492.218 390.891 492.522C391.371 492.71 391.723 492.941 391.945 493.217C392.168 493.486 392.341 493.814 392.464 494.201C392.587 494.588 392.648 494.998 392.648 495.432C392.648 496.504 392.291 497.392 391.576 498.095C390.861 498.792 389.959 499.141 388.869 499.141C387.938 499.141 387.038 498.915 386.171 498.464V496.548C387.097 497.128 387.996 497.418 388.869 497.418C389.461 497.418 389.936 497.242 390.293 496.891C390.656 496.539 390.838 496.073 390.838 495.493C390.838 495.007 390.688 494.582 390.39 494.219C390.214 494.014 390.018 493.864 389.801 493.771C389.59 493.671 389.13 493.577 388.421 493.489L388.263 493.472V491.854ZM395.839 486.722H401.288V488.286H397.438V491.389C397.562 491.377 397.688 491.371 397.816 491.371C399.006 491.371 399.984 491.734 400.752 492.461C401.52 493.182 401.903 494.102 401.903 495.221C401.903 496.375 401.522 497.315 400.761 498.042C400.005 498.763 399.023 499.123 397.816 499.123C396.82 499.123 395.854 498.883 394.916 498.402V496.592C395.801 497.166 396.665 497.453 397.509 497.453C398.247 497.453 398.865 497.239 399.363 496.812C399.867 496.378 400.119 495.848 400.119 495.221C400.119 494.57 399.847 494.028 399.302 493.595C398.757 493.155 398.077 492.936 397.263 492.936C396.565 492.936 396.091 492.994 395.839 493.111V486.722ZM415.79 493.129V499H414.182V494.5C414.182 493.604 414.062 492.979 413.821 492.628C413.581 492.271 413.162 492.092 412.564 492.092C412.23 492.092 411.923 492.168 411.642 492.32C411.366 492.473 411.05 492.742 410.692 493.129V499H409.093V490.914H410.692V491.978C411.507 491.163 412.304 490.756 413.083 490.756C414.108 490.756 414.902 491.242 415.465 492.215C416.32 491.23 417.214 490.738 418.146 490.738C418.931 490.738 419.575 491.025 420.079 491.6C420.589 492.174 420.844 493.05 420.844 494.228V499H419.244V494.21C419.244 493.536 419.106 493.021 418.831 492.663C418.556 492.306 418.16 492.127 417.645 492.127C416.982 492.127 416.364 492.461 415.79 493.129ZM423.876 487.513C424.14 487.513 424.365 487.604 424.553 487.785C424.74 487.967 424.834 488.189 424.834 488.453C424.834 488.711 424.74 488.934 424.553 489.121C424.365 489.309 424.14 489.402 423.876 489.402C423.63 489.402 423.413 489.309 423.226 489.121C423.038 488.928 422.944 488.705 422.944 488.453C422.944 488.207 423.038 487.99 423.226 487.803C423.413 487.609 423.63 487.513 423.876 487.513ZM423.085 490.914H424.685V499H423.085V490.914ZM428.604 490.914V491.942C429.319 491.151 430.131 490.756 431.039 490.756C431.543 490.756 432.012 490.888 432.445 491.151C432.879 491.409 433.207 491.767 433.43 492.224C433.658 492.675 433.772 493.393 433.772 494.377V499H432.173V494.395C432.173 493.568 432.047 492.979 431.795 492.628C431.543 492.271 431.121 492.092 430.529 492.092C429.773 492.092 429.132 492.47 428.604 493.226V499H426.97V490.914H428.604ZM435.609 498.42V496.697C436.061 497.014 436.521 497.271 436.989 497.471C437.464 497.664 437.862 497.761 438.185 497.761C438.519 497.761 438.806 497.679 439.046 497.515C439.286 497.351 439.406 497.154 439.406 496.926C439.406 496.691 439.327 496.498 439.169 496.346C439.017 496.188 438.683 495.962 438.167 495.669C437.136 495.095 436.459 494.605 436.137 494.201C435.82 493.791 435.662 493.346 435.662 492.865C435.662 492.244 435.902 491.737 436.383 491.345C436.869 490.952 437.493 490.756 438.255 490.756C439.046 490.756 439.857 490.979 440.689 491.424V493.006C439.74 492.432 438.964 492.145 438.36 492.145C438.05 492.145 437.798 492.212 437.604 492.347C437.417 492.476 437.323 492.648 437.323 492.865C437.323 493.053 437.408 493.231 437.578 493.401C437.754 493.571 438.059 493.776 438.492 494.017L439.063 494.342C440.411 495.104 441.085 495.947 441.085 496.873C441.085 497.535 440.824 498.08 440.303 498.508C439.787 498.93 439.122 499.141 438.308 499.141C437.827 499.141 437.399 499.091 437.024 498.991C436.649 498.886 436.178 498.695 435.609 498.42ZM447.976 486.722H449.575V499H447.976V486.722ZM458.786 495.098H453.1C453.141 495.871 453.398 496.486 453.873 496.943C454.354 497.4 454.972 497.629 455.728 497.629C456.782 497.629 457.755 497.301 458.646 496.645V498.209C458.153 498.537 457.664 498.771 457.178 498.912C456.697 499.053 456.132 499.123 455.481 499.123C454.591 499.123 453.87 498.938 453.319 498.569C452.769 498.2 452.326 497.705 451.992 497.084C451.664 496.457 451.5 495.733 451.5 494.913C451.5 493.683 451.849 492.684 452.546 491.916C453.243 491.143 454.148 490.756 455.262 490.756C456.334 490.756 457.189 491.131 457.828 491.881C458.467 492.631 458.786 493.636 458.786 494.896V495.098ZM453.135 494.14H457.204C457.163 493.501 456.973 493.009 456.633 492.663C456.293 492.317 455.836 492.145 455.262 492.145C454.688 492.145 454.216 492.317 453.847 492.663C453.483 493.009 453.246 493.501 453.135 494.14ZM460.711 490.914V490.431C460.711 489.13 460.986 488.16 461.537 487.521C462.094 486.883 462.759 486.563 463.532 486.563C463.866 486.563 464.262 486.616 464.719 486.722V488.286C464.461 488.192 464.215 488.146 463.98 488.146C463.354 488.146 462.917 488.312 462.671 488.646C462.431 488.98 462.311 489.575 462.311 490.431V490.914H463.752V492.355H462.311V499H460.711V492.355H459.551V490.914H460.711ZM463.893 492.197L466.898 489.244V490.914H469.456V492.355H466.898V496.319C466.898 497.245 467.282 497.708 468.05 497.708C468.624 497.708 469.23 497.515 469.869 497.128V498.622C469.254 498.968 468.583 499.141 467.856 499.141C467.124 499.141 466.515 498.927 466.028 498.499C465.876 498.37 465.75 498.227 465.65 498.068C465.551 497.904 465.466 497.693 465.396 497.436C465.331 497.172 465.299 496.674 465.299 495.941V492.355H463.893V492.197Z" fill="black"/>
<path d="M154 238C154 226.954 162.954 218 174 218H474C485.046 218 494 226.954 494 238V346C494 357.046 485.046 366 474 366H174C162.954 366 154 357.046 154 346V238Z" fill="#FBF4F4"/>
<rect x="177" y="238" width="26" height="26" rx="5" fill="white" fill-opacity="0.5"/>
<path d="M219.762 243.311V249.915H227.904V243.311H230.936V259H227.904V252.374H219.762V259H216.729V243.311H219.762ZM235.9 243.311L239.808 252.992L243.918 243.311H246.479L250.612 253.025L254.509 243.311H257.608L251.151 259.202H250.129L245.188 247.567L240.224 259.202H239.235L232.767 243.311H235.9ZM265.2 243.311V259H262.325V243.311H265.2Z" fill="black" fill-opacity="0.3"/>
<path d="M377.646 243.311H379.903V252.217C379.903 253.422 379.813 254.332 379.633 254.946C379.461 255.56 379.244 256.073 378.982 256.484C378.727 256.889 378.413 257.252 378.039 257.574C376.796 258.644 375.171 259.18 373.165 259.18C371.121 259.18 369.481 258.648 368.246 257.585C367.871 257.256 367.553 256.889 367.291 256.484C367.036 256.073 366.823 255.571 366.651 254.979C366.486 254.388 366.404 253.46 366.404 252.194V243.311H368.661V252.217C368.661 253.692 368.83 254.717 369.167 255.294C369.503 255.87 370.016 256.335 370.705 256.687C371.394 257.031 372.206 257.203 373.142 257.203C374.475 257.203 375.56 256.855 376.399 256.159C376.841 255.784 377.159 255.343 377.354 254.833C377.548 254.324 377.646 253.452 377.646 252.217V243.311ZM384.923 248.668V251.038L385.035 250.858C386.023 249.263 387.012 248.466 388 248.466C388.771 248.466 389.576 248.855 390.415 249.634L389.336 251.431C388.625 250.757 387.966 250.42 387.36 250.42C386.701 250.42 386.128 250.734 385.642 251.363C385.162 251.992 384.923 252.737 384.923 253.598V259H382.868V248.668H384.923ZM391.324 252.239C391.324 251.139 391.725 250.27 392.526 249.634C393.334 248.99 394.435 248.668 395.828 248.668H400.084V250.263H397.995C398.399 250.674 398.68 251.049 398.837 251.386C398.995 251.723 399.073 252.108 399.073 252.542C399.073 253.082 398.92 253.613 398.613 254.137C398.306 254.654 397.909 255.051 397.422 255.328C396.943 255.605 396.153 255.826 395.053 255.99C394.282 256.103 393.896 256.368 393.896 256.788C393.896 257.027 394.038 257.226 394.323 257.383C394.615 257.533 395.139 257.69 395.895 257.854C397.16 258.132 397.973 258.349 398.332 258.506C398.699 258.663 399.028 258.888 399.32 259.18C399.814 259.674 400.062 260.295 400.062 261.044C400.062 262.025 399.624 262.807 398.748 263.391C397.879 263.975 396.715 264.267 395.255 264.267C393.78 264.267 392.601 263.971 391.717 263.38C390.841 262.796 390.403 262.01 390.403 261.021C390.403 259.621 391.268 258.719 392.998 258.315C392.309 257.873 391.964 257.435 391.964 257.001C391.964 256.672 392.11 256.372 392.402 256.103C392.702 255.833 393.102 255.635 393.604 255.507C392.084 254.833 391.324 253.744 391.324 252.239ZM395.165 250.442C394.611 250.442 394.139 250.63 393.75 251.004C393.361 251.378 393.166 251.827 393.166 252.352C393.166 252.883 393.357 253.325 393.739 253.677C394.121 254.021 394.604 254.193 395.188 254.193C395.764 254.193 396.243 254.017 396.625 253.666C397.014 253.306 397.209 252.861 397.209 252.329C397.209 251.79 397.014 251.341 396.625 250.981C396.236 250.622 395.749 250.442 395.165 250.442ZM394.682 259.483C393.993 259.483 393.428 259.629 392.986 259.921C392.552 260.213 392.335 260.587 392.335 261.044C392.335 262.107 393.293 262.639 395.21 262.639C396.116 262.639 396.816 262.504 397.31 262.234C397.812 261.972 398.062 261.598 398.062 261.111C398.062 260.632 397.748 260.239 397.119 259.932C396.49 259.633 395.678 259.483 394.682 259.483ZM410.472 254.014H403.206C403.258 255.002 403.588 255.788 404.194 256.372C404.808 256.956 405.598 257.248 406.564 257.248C407.912 257.248 409.154 256.829 410.292 255.99V257.989C409.664 258.409 409.038 258.708 408.417 258.888C407.803 259.067 407.081 259.157 406.25 259.157C405.111 259.157 404.191 258.921 403.487 258.45C402.783 257.978 402.218 257.345 401.791 256.552C401.372 255.751 401.162 254.826 401.162 253.778C401.162 252.206 401.608 250.929 402.499 249.948C403.389 248.96 404.546 248.466 405.969 248.466C407.339 248.466 408.432 248.945 409.248 249.903C410.064 250.862 410.472 252.146 410.472 253.755V254.014ZM403.251 252.79H408.451C408.398 251.973 408.155 251.345 407.721 250.903C407.286 250.461 406.702 250.24 405.969 250.24C405.235 250.24 404.632 250.461 404.161 250.903C403.696 251.345 403.393 251.973 403.251 252.79ZM414.74 248.668V249.982C415.653 248.971 416.69 248.466 417.851 248.466C418.494 248.466 419.093 248.634 419.647 248.971C420.201 249.301 420.621 249.757 420.905 250.341C421.197 250.918 421.343 251.835 421.343 253.093V259H419.299V253.115C419.299 252.06 419.138 251.307 418.816 250.858C418.494 250.401 417.955 250.173 417.199 250.173C416.233 250.173 415.414 250.656 414.74 251.622V259H412.651V248.668H414.74ZM422.747 250.308L426.588 246.534V248.668H429.856V250.51H426.588V255.575C426.588 256.758 427.078 257.349 428.059 257.349C428.793 257.349 429.568 257.102 430.384 256.608V258.517C429.598 258.959 428.74 259.18 427.812 259.18C426.876 259.18 426.097 258.906 425.476 258.36C425.281 258.195 425.12 258.012 424.993 257.81C424.866 257.6 424.757 257.33 424.667 257.001C424.585 256.664 424.544 256.028 424.544 255.092V250.51H422.747V250.308Z" fill="black" fill-opacity="0.3"/>
<path fill-rule="evenodd" clip-rule="evenodd" d="M352 255.5C354.485 255.5 356.5 253.485 356.5 251C356.5 248.515 354.485 246.5 352 246.5C349.515 246.5 347.5 248.515 347.5 251C347.5 253.485 349.515 255.5 352 255.5Z" fill="#1F1F1F" fill-opacity="0.3"/>
<g filter="url(#filter3_d_509_5016)">
<rect x="176" y="281" width="308" height="19" rx="9.5" fill="#D9D9D9"/>
</g>
<rect x="176" y="281" width="52" height="19" rx="9.5" fill="white" fill-opacity="0.5"/>
<path d="M183.53 322.722H185.139V335H181.72C180.524 335 179.569 334.622 178.854 333.866C178.146 333.11 177.791 332.097 177.791 330.825C177.791 329.636 178.163 328.657 178.907 327.89C179.657 327.122 180.612 326.738 181.772 326.738C182.312 326.738 182.897 326.853 183.53 327.081V322.722ZM183.53 333.629V328.505C183.032 328.253 182.528 328.127 182.019 328.127C181.222 328.127 180.586 328.388 180.111 328.909C179.643 329.431 179.408 330.134 179.408 331.019C179.408 331.851 179.613 332.492 180.023 332.943C180.27 333.213 180.53 333.395 180.806 333.488C181.081 333.582 181.576 333.629 182.291 333.629H183.53ZM192.46 335V333.972C192.12 334.341 191.73 334.628 191.291 334.833C190.857 335.038 190.424 335.141 189.99 335.141C189.48 335.141 189.009 335.015 188.575 334.763C188.147 334.505 187.822 334.159 187.6 333.726C187.383 333.286 187.274 332.56 187.274 331.546V326.914H188.874V331.528C188.874 332.378 188.994 332.973 189.234 333.312C189.48 333.646 189.908 333.813 190.518 333.813C191.279 333.813 191.927 333.441 192.46 332.697V326.914H194.06V335H192.46ZM203.2 331.098H197.514C197.555 331.871 197.812 332.486 198.287 332.943C198.768 333.4 199.386 333.629 200.142 333.629C201.196 333.629 202.169 333.301 203.06 332.645V334.209C202.567 334.537 202.078 334.771 201.592 334.912C201.111 335.053 200.546 335.123 199.896 335.123C199.005 335.123 198.284 334.938 197.733 334.569C197.183 334.2 196.74 333.705 196.406 333.084C196.078 332.457 195.914 331.733 195.914 330.913C195.914 329.683 196.263 328.684 196.96 327.916C197.657 327.143 198.562 326.756 199.676 326.756C200.748 326.756 201.604 327.131 202.242 327.881C202.881 328.631 203.2 329.636 203.2 330.896V331.098ZM197.549 330.14H201.618C201.577 329.501 201.387 329.009 201.047 328.663C200.707 328.317 200.25 328.145 199.676 328.145C199.102 328.145 198.63 328.317 198.261 328.663C197.897 329.009 197.66 329.501 197.549 330.14ZM209.124 322.704H219.381V324.269H215.101V335H213.334V324.269H209.124V322.704ZM224.698 326.896C225.929 326.896 226.951 327.295 227.766 328.092C228.58 328.883 228.987 329.879 228.987 331.08C228.987 332.246 228.574 333.216 227.748 333.989C226.922 334.757 225.882 335.141 224.628 335.141C223.415 335.141 222.401 334.751 221.587 333.972C220.772 333.187 220.365 332.208 220.365 331.036C220.365 329.853 220.775 328.868 221.596 328.083C222.422 327.292 223.456 326.896 224.698 326.896ZM224.61 328.338C223.843 328.338 223.213 328.59 222.721 329.094C222.229 329.598 221.982 330.239 221.982 331.019C221.982 331.792 222.234 332.425 222.738 332.917C223.242 333.403 223.89 333.646 224.681 333.646C225.466 333.646 226.107 333.4 226.605 332.908C227.109 332.41 227.361 331.774 227.361 331.001C227.361 330.233 227.101 329.598 226.579 329.094C226.058 328.59 225.401 328.338 224.61 328.338ZM236.159 322.722H237.768V335H234.349C233.153 335 232.198 334.622 231.483 333.866C230.774 333.11 230.42 332.097 230.42 330.825C230.42 329.636 230.792 328.657 231.536 327.89C232.286 327.122 233.241 326.738 234.401 326.738C234.94 326.738 235.526 326.853 236.159 327.081V322.722ZM236.159 333.629V328.505C235.661 328.253 235.157 328.127 234.647 328.127C233.851 328.127 233.215 328.388 232.74 328.909C232.271 329.431 232.037 330.134 232.037 331.019C232.037 331.851 232.242 332.492 232.652 332.943C232.898 333.213 233.159 333.395 233.435 333.488C233.71 333.582 234.205 333.629 234.92 333.629H236.159ZM245.019 330.14V333.576C245.019 333.852 245.112 333.989 245.3 333.989C245.493 333.989 245.795 333.846 246.205 333.559V334.534C245.842 334.769 245.549 334.927 245.326 335.009C245.109 335.097 244.881 335.141 244.641 335.141C243.955 335.141 243.551 334.871 243.428 334.332C242.748 334.859 242.024 335.123 241.257 335.123C240.694 335.123 240.226 334.938 239.851 334.569C239.476 334.194 239.288 333.726 239.288 333.163C239.288 332.653 239.47 332.199 239.833 331.801C240.202 331.396 240.724 331.077 241.397 330.843L243.445 330.14V329.709C243.445 328.736 242.959 328.25 241.986 328.25C241.113 328.25 240.264 328.701 239.438 329.604V327.854C240.059 327.122 240.952 326.756 242.118 326.756C242.991 326.756 243.691 326.984 244.219 327.441C244.395 327.588 244.553 327.784 244.693 328.03C244.834 328.271 244.922 328.514 244.957 328.76C244.998 329 245.019 329.46 245.019 330.14ZM243.445 333.4V331.001L242.373 331.414C241.828 331.631 241.441 331.851 241.213 332.073C240.99 332.29 240.879 332.562 240.879 332.891C240.879 333.225 240.984 333.497 241.195 333.708C241.412 333.919 241.69 334.024 242.03 334.024C242.54 334.024 243.012 333.816 243.445 333.4ZM252.568 326.914H254.37L248.648 339.122H246.864L249.615 333.269L246.486 326.914H248.306L250.485 331.476L252.568 326.914ZM262.755 335.141L261.674 333.866C262.582 333.292 263.376 332.598 264.056 331.783C264.735 330.963 265.189 330.122 265.418 329.261C264.861 329.606 264.208 329.779 263.458 329.779C262.521 329.779 261.715 329.431 261.041 328.733C260.373 328.036 260.039 327.198 260.039 326.22C260.039 325.2 260.396 324.336 261.111 323.627C261.826 322.918 262.699 322.563 263.73 322.563C264.891 322.563 265.84 322.982 266.578 323.82C267.316 324.658 267.686 325.733 267.686 327.046C267.686 328.534 267.223 330.04 266.297 331.563C265.371 333.081 264.19 334.273 262.755 335.141ZM265.761 327.512C265.831 327.043 265.866 326.738 265.866 326.598C265.866 325.889 265.667 325.309 265.269 324.857C264.876 324.406 264.369 324.181 263.748 324.181C263.18 324.181 262.708 324.374 262.333 324.761C261.964 325.142 261.779 325.622 261.779 326.202C261.779 326.735 261.981 327.195 262.386 327.582C262.79 327.969 263.273 328.162 263.836 328.162C264.492 328.162 265.134 327.945 265.761 327.512ZM270.278 333.005C270.577 333.005 270.832 333.11 271.043 333.321C271.254 333.532 271.359 333.787 271.359 334.086C271.359 334.379 271.254 334.628 271.043 334.833C270.832 335.038 270.577 335.141 270.278 335.141C269.991 335.141 269.742 335.038 269.531 334.833C269.32 334.628 269.215 334.379 269.215 334.086C269.215 333.787 269.317 333.532 269.522 333.321C269.728 333.11 269.979 333.005 270.278 333.005ZM270.419 326.756C270.718 326.756 270.973 326.861 271.184 327.072C271.395 327.283 271.5 327.538 271.5 327.837C271.5 328.13 271.395 328.382 271.184 328.593C270.973 328.798 270.718 328.9 270.419 328.9C270.132 328.9 269.883 328.798 269.672 328.593C269.467 328.382 269.364 328.13 269.364 327.837C269.364 327.538 269.467 327.283 269.672 327.072C269.877 326.861 270.126 326.756 270.419 326.756ZM278.733 322.563H279.454V329.454H280.825V330.948H279.454V335H277.74V330.948H272.546V330.192L278.733 322.563ZM277.74 329.454V325.895L274.901 329.454H277.74ZM283.163 322.722H288.612V324.286H284.763V327.389C284.886 327.377 285.012 327.371 285.141 327.371C286.33 327.371 287.309 327.734 288.076 328.461C288.844 329.182 289.228 330.102 289.228 331.221C289.228 332.375 288.847 333.315 288.085 334.042C287.329 334.763 286.348 335.123 285.141 335.123C284.145 335.123 283.178 334.883 282.24 334.402V332.592C283.125 333.166 283.989 333.453 284.833 333.453C285.571 333.453 286.189 333.239 286.688 332.812C287.191 332.378 287.443 331.848 287.443 331.221C287.443 330.57 287.171 330.028 286.626 329.595C286.081 329.155 285.401 328.936 284.587 328.936C283.89 328.936 283.415 328.994 283.163 329.111V322.722ZM300.627 322.651H301.866L307.359 335H305.558L303.923 331.361H298.702L297.155 335H295.354L300.627 322.651ZM303.202 329.797L301.225 325.35L299.388 329.797H303.202ZM318.486 322.722H320.121V335H318.354V325.446L314.575 330.192H314.25L310.436 325.446V335H308.678V322.722H310.33L314.417 327.767L318.486 322.722Z" fill="black" fill-opacity="0.3"/>
<path d="M388.243 326.854H388.349C389.116 326.854 389.699 326.696 390.098 326.38C390.502 326.063 390.704 325.604 390.704 325C390.704 324.455 390.508 324.013 390.115 323.673C389.729 323.333 389.219 323.163 388.586 323.163C387.947 323.163 387.238 323.362 386.459 323.761V322.082C387.174 321.725 387.953 321.546 388.797 321.546C389.928 321.546 390.818 321.842 391.469 322.434C392.125 323.025 392.453 323.834 392.453 324.859C392.453 325.48 392.327 326.005 392.075 326.433C391.823 326.854 391.422 327.218 390.871 327.522C391.352 327.71 391.703 327.941 391.926 328.217C392.148 328.486 392.321 328.814 392.444 329.201C392.567 329.588 392.629 329.998 392.629 330.432C392.629 331.504 392.271 332.392 391.557 333.095C390.842 333.792 389.939 334.141 388.85 334.141C387.918 334.141 387.019 333.915 386.151 333.464V331.548C387.077 332.128 387.977 332.418 388.85 332.418C389.441 332.418 389.916 332.242 390.273 331.891C390.637 331.539 390.818 331.073 390.818 330.493C390.818 330.007 390.669 329.582 390.37 329.219C390.194 329.014 389.998 328.864 389.781 328.771C389.57 328.671 389.11 328.577 388.401 328.489L388.243 328.472V326.854ZM398.57 321.563C399.695 321.563 400.624 322.155 401.356 323.339C402.095 324.517 402.464 326.014 402.464 327.83C402.464 329.693 402.095 331.208 401.356 332.374C400.624 333.54 399.672 334.123 398.5 334.123C397.311 334.123 396.355 333.552 395.635 332.409C394.914 331.267 394.554 329.752 394.554 327.865C394.554 326.002 394.926 324.487 395.67 323.321C396.414 322.149 397.381 321.563 398.57 321.563ZM398.588 323.233H398.5C397.826 323.233 397.29 323.649 396.892 324.481C396.499 325.308 396.303 326.43 396.303 327.848C396.303 329.301 396.496 330.44 396.883 331.267C397.27 332.093 397.803 332.506 398.482 332.506C399.162 332.506 399.698 332.093 400.091 331.267C400.483 330.44 400.68 329.318 400.68 327.9C400.68 326.477 400.489 325.343 400.108 324.499C399.733 323.655 399.227 323.233 398.588 323.233ZM415.771 328.129V334H414.162V329.5C414.162 328.604 414.042 327.979 413.802 327.628C413.562 327.271 413.143 327.092 412.545 327.092C412.211 327.092 411.903 327.168 411.622 327.32C411.347 327.473 411.03 327.742 410.673 328.129V334H409.073V325.914H410.673V326.978C411.487 326.163 412.284 325.756 413.063 325.756C414.089 325.756 414.883 326.242 415.445 327.215C416.301 326.23 417.194 325.738 418.126 325.738C418.911 325.738 419.556 326.025 420.06 326.6C420.569 327.174 420.824 328.05 420.824 329.228V334H419.225V329.21C419.225 328.536 419.087 328.021 418.812 327.663C418.536 327.306 418.141 327.127 417.625 327.127C416.963 327.127 416.345 327.461 415.771 328.129ZM423.856 322.513C424.12 322.513 424.346 322.604 424.533 322.785C424.721 322.967 424.814 323.189 424.814 323.453C424.814 323.711 424.721 323.934 424.533 324.121C424.346 324.309 424.12 324.402 423.856 324.402C423.61 324.402 423.394 324.309 423.206 324.121C423.019 323.928 422.925 323.705 422.925 323.453C422.925 323.207 423.019 322.99 423.206 322.803C423.394 322.609 423.61 322.513 423.856 322.513ZM423.065 325.914H424.665V334H423.065V325.914ZM428.585 325.914V326.942C429.3 326.151 430.111 325.756 431.02 325.756C431.523 325.756 431.992 325.888 432.426 326.151C432.859 326.409 433.188 326.767 433.41 327.224C433.639 327.675 433.753 328.393 433.753 329.377V334H432.153V329.395C432.153 328.568 432.027 327.979 431.775 327.628C431.523 327.271 431.102 327.092 430.51 327.092C429.754 327.092 429.112 327.47 428.585 328.226V334H426.95V325.914H428.585ZM435.59 333.42V331.697C436.041 332.014 436.501 332.271 436.97 332.471C437.444 332.664 437.843 332.761 438.165 332.761C438.499 332.761 438.786 332.679 439.026 332.515C439.267 332.351 439.387 332.154 439.387 331.926C439.387 331.691 439.308 331.498 439.149 331.346C438.997 331.188 438.663 330.962 438.147 330.669C437.116 330.095 436.439 329.605 436.117 329.201C435.801 328.791 435.643 328.346 435.643 327.865C435.643 327.244 435.883 326.737 436.363 326.345C436.85 325.952 437.474 325.756 438.235 325.756C439.026 325.756 439.838 325.979 440.67 326.424V328.006C439.721 327.432 438.944 327.145 438.341 327.145C438.03 327.145 437.778 327.212 437.585 327.347C437.397 327.476 437.304 327.648 437.304 327.865C437.304 328.053 437.389 328.231 437.559 328.401C437.734 328.571 438.039 328.776 438.473 329.017L439.044 329.342C440.392 330.104 441.065 330.947 441.065 331.873C441.065 332.535 440.805 333.08 440.283 333.508C439.768 333.93 439.103 334.141 438.288 334.141C437.808 334.141 437.38 334.091 437.005 333.991C436.63 333.886 436.158 333.695 435.59 333.42ZM447.956 321.722H449.556V334H447.956V321.722ZM458.767 330.098H453.08C453.121 330.871 453.379 331.486 453.854 331.943C454.334 332.4 454.952 332.629 455.708 332.629C456.763 332.629 457.735 332.301 458.626 331.645V333.209C458.134 333.537 457.645 333.771 457.158 333.912C456.678 334.053 456.112 334.123 455.462 334.123C454.571 334.123 453.851 333.938 453.3 333.569C452.749 333.2 452.307 332.705 451.973 332.084C451.645 331.457 451.48 330.733 451.48 329.913C451.48 328.683 451.829 327.684 452.526 326.916C453.224 326.143 454.129 325.756 455.242 325.756C456.314 325.756 457.17 326.131 457.809 326.881C458.447 327.631 458.767 328.636 458.767 329.896V330.098ZM453.115 329.14H457.185C457.144 328.501 456.953 328.009 456.613 327.663C456.273 327.317 455.816 327.145 455.242 327.145C454.668 327.145 454.196 327.317 453.827 327.663C453.464 328.009 453.227 328.501 453.115 329.14ZM460.691 325.914V325.431C460.691 324.13 460.967 323.16 461.518 322.521C462.074 321.883 462.739 321.563 463.513 321.563C463.847 321.563 464.242 321.616 464.699 321.722V323.286C464.441 323.192 464.195 323.146 463.961 323.146C463.334 323.146 462.897 323.312 462.651 323.646C462.411 323.98 462.291 324.575 462.291 325.431V325.914H463.732V327.355H462.291V334H460.691V327.355H459.531V325.914H460.691ZM463.873 327.197L466.879 324.244V325.914H469.437V327.355H466.879V331.319C466.879 332.245 467.263 332.708 468.03 332.708C468.604 332.708 469.211 332.515 469.85 332.128V333.622C469.234 333.968 468.563 334.141 467.837 334.141C467.104 334.141 466.495 333.927 466.009 333.499C465.856 333.37 465.73 333.227 465.631 333.068C465.531 332.904 465.446 332.693 465.376 332.436C465.312 332.172 465.279 331.674 465.279 330.941V327.355H463.873V327.197Z" fill="black" fill-opacity="0.3"/>
<path d="M187.349 257.507L181.18 251.338L182.722 249.796L187.349 254.423L197.278 244.493L198.82 246.035L187.349 257.507Z" fill="black" fill-opacity="0.3"/>
<rect x="247.62" y="57.3037" width="157.461" height="47.2382" rx="23.6191" fill="#EEEEEE"/>
<rect x="273.864" y="903.393" width="103.924" height="4.19895" rx="2.09948" fill="#EEEEEE"/>
</g>
<rect x="129" y="72" width="393.652" height="852.388" rx="53.5367" stroke="#EEEEEE" stroke-width="16.7958"/>
</g>
<defs>
<filter id="filter0_d_509_5016" x="0.931952" y="0.617756" width="591.003" height="1049.74" filterUnits="userSpaceOnUse" color-interpolation-filters="sRGB">
<feFlood flood-opacity="0" result="BackgroundImageFix"/>
<feColorMatrix in="SourceAlpha" type="matrix" values="0 0 0 0 0 0 0 0 0 0 0 0 0 0 0 0 0 0 127 0" result="hardAlpha"/>
<feOffset dx="-29.3927" dy="27.2932"/>
<feGaussianBlur stdDeviation="45.1387"/>
<feComposite in2="hardAlpha" operator="out"/>
<feColorMatrix type="matrix" values="0 0 0 0 0 0 0 0 0 0 0 0 0 0 0 0 0 0 0.13 0"/>
<feBlend mode="normal" in2="BackgroundImageFix" result="effect1_dropShadow_509_5016"/>
<feBlend mode="normal" in="SourceGraphic" in2="effect1_dropShadow_509_5016" result="shape"/>
</filter>
<filter id="filter1_d_509_5016" x="209.208" y="157.12" width="207.944" height="38.4958" filterUnits="userSpaceOnUse" color-interpolation-filters="sRGB">
<feFlood flood-opacity="0" result="BackgroundImageFix"/>
<feColorMatrix in="SourceAlpha" type="matrix" values="0 0 0 0 0 0 0 0 0 0 0 0 0 0 0 0 0 0 127 0" result="hardAlpha"/>
<feOffset dy="4"/>
<feGaussianBlur stdDeviation="2"/>
<feComposite in2="hardAlpha" operator="out"/>
<feColorMatrix type="matrix" values="0 0 0 0 0 0 0 0 0 0 0 0 0 0 0 0 0 0 0.1 0"/>
<feBlend mode="normal" in2="BackgroundImageFix" result="effect1_dropShadow_509_5016"/>
<feBlend mode="normal" in="SourceGraphic" in2="effect1_dropShadow_509_5016" result="shape"/>
</filter>
<filter id="filter2_d_509_5016" x="172" y="445" width="316" height="27" filterUnits="userSpaceOnUse" color-interpolation-filters="sRGB">
<feFlood flood-opacity="0" result="BackgroundImageFix"/>
<feColorMatrix in="SourceAlpha" type="matrix" values="0 0 0 0 0 0 0 0 0 0 0 0 0 0 0 0 0 0 127 0" result="hardAlpha"/>
<feOffset dy="4"/>
<feGaussianBlur stdDeviation="2"/>
<feComposite in2="hardAlpha" operator="out"/>
<feColorMatrix type="matrix" values="0 0 0 0 0 0 0 0 0 0 0 0 0 0 0 0 0 0 0.25 0"/>
<feBlend mode="normal" in2="BackgroundImageFix" result="effect1_dropShadow_509_5016"/>
<feBlend mode="normal" in="SourceGraphic" in2="effect1_dropShadow_509_5016" result="shape"/>
</filter>
<filter id="filter3_d_509_5016" x="172" y="281" width="316" height="27" filterUnits="userSpaceOnUse" color-interpolation-filters="sRGB">
<feFlood flood-opacity="0" result="BackgroundImageFix"/>
<feColorMatrix in="SourceAlpha" type="matrix" values="0 0 0 0 0 0 0 0 0 0 0 0 0 0 0 0 0 0 127 0" result="hardAlpha"/>
<feOffset dy="4"/>
<feGaussianBlur stdDeviation="2"/>
<feComposite in2="hardAlpha" operator="out"/>
<feColorMatrix type="matrix" values="0 0 0 0 0 0 0 0 0 0 0 0 0 0 0 0 0 0 0.25 0"/>
<feBlend mode="normal" in2="BackgroundImageFix" result="effect1_dropShadow_509_5016"/>
<feBlend mode="normal" in="SourceGraphic" in2="effect1_dropShadow_509_5016" result="shape"/>
</filter>
<clipPath id="clip0_509_5016">
<rect x="129" y="72" width="393.652" height="852.388" rx="53.5367" fill="white"/>
</clipPath>
</defs>
</svg>
