<?xml version="1.0" encoding="UTF-8"?>
<svg id="walls_floor" xmlns="http://www.w3.org/2000/svg" viewBox="0 0 595.28 333.33">
  <defs>
    <style>
      .cls-1 {
        fill: #f9d8d3;
      }

      .cls-1, .cls-2, .cls-3, .cls-4, .cls-5, .cls-6, .cls-7, .cls-8 {
        fill-rule: evenodd;
      }

      .cls-2 {
        fill: #793f25;
      }

      .cls-3 {
        fill: #50210d;
      }

      .cls-4 {
        fill: #652d15;
      }

      .cls-5 {
        fill: #96573c;
      }

      .cls-6 {
        fill: #e2b7b2;
      }

      .cls-7 {
        fill: #874a31;
      }

      .cls-8 {
        fill: #fce6e3;
      }
    </style>
  </defs>
  <polygon class="cls-1" points="0 0 595.28 0 595.28 333.33 0 333.33 0 0 0 0"/>
  <path class="cls-8" d="M297.7,13.92c280.83-2.73,295.44-1.41,297.57,233.23-198.38,.67-396.76,1.33-595.14,2C-2.6-4.61,34.1,16.49,297.7,13.92h0Z"/>
  <polygon class="cls-6" points="0 236.28 595.28 236.28 595.28 244.49 0 244.49 0 236.28 0 236.28"/>
  <polygon class="cls-7" points="0 248.49 595.28 248.49 595.28 333.33 0 333.33 0 248.49 0 248.49"/>
  <polygon class="cls-2" points="0 248.49 595.28 248.49 595.28 269.38 0 269.38 0 248.49 0 248.49"/>
  <path class="cls-5" d="M581.16,333.33H14.12c44.26-44.6,85.69-48.62,146.36-48.62H434.8c60.67,0,102.09,4.02,146.36,48.62h0Z"/>
  <polygon class="cls-3" points="0 244.49 595.28 244.49 595.28 252.99 0 252.99 0 244.49 0 244.49"/>
  <polygon class="cls-4" points="0 246.65 595.27 246.65 595.27 250.82 0 250.82 0 246.65 0 246.65"/>
</svg>